solid bolt3mm_19.6mm
   facet normal -9.983119e-001 5.807913e-002 0.000000e+000
      outer loop
         vertex 1.072788e+000 2.810472e+000 1.780000e+001
         vertex 1.050000e+000 2.550000e+000 0.000000e+000
         vertex 1.050000e+000 2.550000e+000 1.780000e+001
      endloop
   endfacet
   facet normal -9.983119e-001 -5.807913e-002 0.000000e+000
      outer loop
         vertex 1.050000e+000 2.550000e+000 1.780000e+001
         vertex 1.050000e+000 2.550000e+000 0.000000e+000
         vertex 1.072788e+000 2.289528e+000 0.000000e+000
      endloop
   endfacet
   facet normal -9.932307e-001 -1.161583e-001 0.000000e+000
      outer loop
         vertex 1.050000e+000 2.550000e+000 1.780000e+001
         vertex 1.072788e+000 2.289528e+000 0.000000e+000
         vertex 1.072788e+000 2.289528e+000 1.780000e+001
      endloop
   endfacet
   facet normal -9.730601e-001 -2.305518e-001 0.000000e+000
      outer loop
         vertex 1.072788e+000 2.289528e+000 1.780000e+001
         vertex 1.072788e+000 2.289528e+000 0.000000e+000
         vertex 1.140461e+000 2.036970e+000 0.000000e+000
      endloop
   endfacet
   facet normal -9.579706e-001 -2.868663e-001 0.000000e+000
      outer loop
         vertex 1.072788e+000 2.289528e+000 1.780000e+001
         vertex 1.140461e+000 2.036970e+000 0.000000e+000
         vertex 1.140461e+000 2.036970e+000 1.780000e+001
      endloop
   endfacet
   facet normal -9.182422e-001 -3.960194e-001 0.000000e+000
      outer loop
         vertex 1.140461e+000 2.036970e+000 1.780000e+001
         vertex 1.140461e+000 2.036970e+000 0.000000e+000
         vertex 1.250962e+000 1.800000e+000 0.000000e+000
      endloop
   endfacet
   facet normal -8.936031e-001 -4.488580e-001 0.000000e+000
      outer loop
         vertex 1.140461e+000 2.036970e+000 1.780000e+001
         vertex 1.250962e+000 1.800000e+000 0.000000e+000
         vertex 1.250962e+000 1.800000e+000 1.780000e+001
      endloop
   endfacet
   facet normal -8.355240e-001 -5.494540e-001 0.000000e+000
      outer loop
         vertex 1.250962e+000 1.800000e+000 1.780000e+001
         vertex 1.250962e+000 1.800000e+000 0.000000e+000
         vertex 1.400934e+000 1.585819e+000 0.000000e+000
      endloop
   endfacet
   facet normal -8.020838e-001 -5.972114e-001 0.000000e+000
      outer loop
         vertex 1.250962e+000 1.800000e+000 1.780000e+001
         vertex 1.400934e+000 1.585819e+000 0.000000e+000
         vertex 1.400934e+000 1.585819e+000 1.780000e+001
      endloop
   endfacet
   facet normal -7.274188e-001 -6.861938e-001 0.000000e+000
      outer loop
         vertex 1.400934e+000 1.585819e+000 1.780000e+001
         vertex 1.400934e+000 1.585819e+000 0.000000e+000
         vertex 1.585819e+000 1.400934e+000 0.000000e+000
      endloop
   endfacet
   facet normal -6.861938e-001 -7.274188e-001 0.000000e+000
      outer loop
         vertex 1.400934e+000 1.585819e+000 1.780000e+001
         vertex 1.585819e+000 1.400934e+000 0.000000e+000
         vertex 1.585819e+000 1.400934e+000 1.780000e+001
      endloop
   endfacet
   facet normal -5.972114e-001 -8.020838e-001 0.000000e+000
      outer loop
         vertex 1.585819e+000 1.400934e+000 1.780000e+001
         vertex 1.585819e+000 1.400934e+000 0.000000e+000
         vertex 1.800000e+000 1.250962e+000 0.000000e+000
      endloop
   endfacet
   facet normal -5.494540e-001 -8.355240e-001 0.000000e+000
      outer loop
         vertex 1.585819e+000 1.400934e+000 1.780000e+001
         vertex 1.800000e+000 1.250962e+000 0.000000e+000
         vertex 1.800000e+000 1.250962e+000 1.780000e+001
      endloop
   endfacet
   facet normal -4.488580e-001 -8.936031e-001 0.000000e+000
      outer loop
         vertex 1.800000e+000 1.250962e+000 1.780000e+001
         vertex 1.800000e+000 1.250962e+000 0.000000e+000
         vertex 2.036970e+000 1.140461e+000 0.000000e+000
      endloop
   endfacet
   facet normal -3.960194e-001 -9.182422e-001 0.000000e+000
      outer loop
         vertex 1.800000e+000 1.250962e+000 1.780000e+001
         vertex 2.036970e+000 1.140461e+000 0.000000e+000
         vertex 2.036970e+000 1.140461e+000 1.780000e+001
      endloop
   endfacet
   facet normal -2.868663e-001 -9.579706e-001 0.000000e+000
      outer loop
         vertex 2.036970e+000 1.140461e+000 1.780000e+001
         vertex 2.036970e+000 1.140461e+000 0.000000e+000
         vertex 2.289528e+000 1.072788e+000 0.000000e+000
      endloop
   endfacet
   facet normal -2.305518e-001 -9.730601e-001 0.000000e+000
      outer loop
         vertex 2.036970e+000 1.140461e+000 1.780000e+001
         vertex 2.289528e+000 1.072788e+000 0.000000e+000
         vertex 2.289528e+000 1.072788e+000 1.780000e+001
      endloop
   endfacet
   facet normal -1.161583e-001 -9.932307e-001 0.000000e+000
      outer loop
         vertex 2.289528e+000 1.072788e+000 1.780000e+001
         vertex 2.289528e+000 1.072788e+000 0.000000e+000
         vertex 2.550000e+000 1.050000e+000 0.000000e+000
      endloop
   endfacet
   facet normal -5.807913e-002 -9.983119e-001 0.000000e+000
      outer loop
         vertex 2.289528e+000 1.072788e+000 1.780000e+001
         vertex 2.550000e+000 1.050000e+000 0.000000e+000
         vertex 2.550000e+000 1.050000e+000 1.780000e+001
      endloop
   endfacet
   facet normal 5.807913e-002 -9.983119e-001 0.000000e+000
      outer loop
         vertex 2.550000e+000 1.050000e+000 1.780000e+001
         vertex 2.550000e+000 1.050000e+000 0.000000e+000
         vertex 2.810472e+000 1.072788e+000 0.000000e+000
      endloop
   endfacet
   facet normal 1.161583e-001 -9.932307e-001 0.000000e+000
      outer loop
         vertex 2.550000e+000 1.050000e+000 1.780000e+001
         vertex 2.810472e+000 1.072788e+000 0.000000e+000
         vertex 2.810472e+000 1.072788e+000 1.780000e+001
      endloop
   endfacet
   facet normal 2.305518e-001 -9.730601e-001 0.000000e+000
      outer loop
         vertex 2.810472e+000 1.072788e+000 1.780000e+001
         vertex 2.810472e+000 1.072788e+000 0.000000e+000
         vertex 3.063030e+000 1.140461e+000 0.000000e+000
      endloop
   endfacet
   facet normal 2.868663e-001 -9.579706e-001 0.000000e+000
      outer loop
         vertex 2.810472e+000 1.072788e+000 1.780000e+001
         vertex 3.063030e+000 1.140461e+000 0.000000e+000
         vertex 3.063030e+000 1.140461e+000 1.780000e+001
      endloop
   endfacet
   facet normal 3.960194e-001 -9.182422e-001 0.000000e+000
      outer loop
         vertex 3.063030e+000 1.140461e+000 1.780000e+001
         vertex 3.063030e+000 1.140461e+000 0.000000e+000
         vertex 3.300000e+000 1.250962e+000 0.000000e+000
      endloop
   endfacet
   facet normal 4.488580e-001 -8.936031e-001 0.000000e+000
      outer loop
         vertex 3.063030e+000 1.140461e+000 1.780000e+001
         vertex 3.300000e+000 1.250962e+000 0.000000e+000
         vertex 3.300000e+000 1.250962e+000 1.780000e+001
      endloop
   endfacet
   facet normal 5.494540e-001 -8.355240e-001 0.000000e+000
      outer loop
         vertex 3.300000e+000 1.250962e+000 1.780000e+001
         vertex 3.300000e+000 1.250962e+000 0.000000e+000
         vertex 3.514182e+000 1.400934e+000 0.000000e+000
      endloop
   endfacet
   facet normal 5.972114e-001 -8.020838e-001 0.000000e+000
      outer loop
         vertex 3.300000e+000 1.250962e+000 1.780000e+001
         vertex 3.514182e+000 1.400934e+000 0.000000e+000
         vertex 3.514182e+000 1.400934e+000 1.780000e+001
      endloop
   endfacet
   facet normal 6.861938e-001 -7.274188e-001 0.000000e+000
      outer loop
         vertex 3.514182e+000 1.400934e+000 1.780000e+001
         vertex 3.514182e+000 1.400934e+000 0.000000e+000
         vertex 3.699067e+000 1.585819e+000 0.000000e+000
      endloop
   endfacet
   facet normal 7.274188e-001 -6.861938e-001 0.000000e+000
      outer loop
         vertex 3.514182e+000 1.400934e+000 1.780000e+001
         vertex 3.699067e+000 1.585819e+000 0.000000e+000
         vertex 3.699067e+000 1.585819e+000 1.780000e+001
      endloop
   endfacet
   facet normal 8.020838e-001 -5.972114e-001 0.000000e+000
      outer loop
         vertex 3.699067e+000 1.585819e+000 1.780000e+001
         vertex 3.699067e+000 1.585819e+000 0.000000e+000
         vertex 3.849038e+000 1.800000e+000 0.000000e+000
      endloop
   endfacet
   facet normal 8.355240e-001 -5.494540e-001 0.000000e+000
      outer loop
         vertex 3.699067e+000 1.585819e+000 1.780000e+001
         vertex 3.849038e+000 1.800000e+000 0.000000e+000
         vertex 3.849038e+000 1.800000e+000 1.780000e+001
      endloop
   endfacet
   facet normal 8.936031e-001 -4.488580e-001 0.000000e+000
      outer loop
         vertex 3.849038e+000 1.800000e+000 1.780000e+001
         vertex 3.849038e+000 1.800000e+000 0.000000e+000
         vertex 3.959539e+000 2.036970e+000 0.000000e+000
      endloop
   endfacet
   facet normal 9.182422e-001 -3.960194e-001 0.000000e+000
      outer loop
         vertex 3.849038e+000 1.800000e+000 1.780000e+001
         vertex 3.959539e+000 2.036970e+000 0.000000e+000
         vertex 3.959539e+000 2.036970e+000 1.780000e+001
      endloop
   endfacet
   facet normal 9.579706e-001 -2.868663e-001 0.000000e+000
      outer loop
         vertex 3.959539e+000 2.036970e+000 1.780000e+001
         vertex 3.959539e+000 2.036970e+000 0.000000e+000
         vertex 4.027212e+000 2.289528e+000 0.000000e+000
      endloop
   endfacet
   facet normal 9.730601e-001 -2.305518e-001 0.000000e+000
      outer loop
         vertex 3.959539e+000 2.036970e+000 1.780000e+001
         vertex 4.027212e+000 2.289528e+000 0.000000e+000
         vertex 4.027212e+000 2.289528e+000 1.780000e+001
      endloop
   endfacet
   facet normal 9.932307e-001 -1.161583e-001 0.000000e+000
      outer loop
         vertex 4.027212e+000 2.289528e+000 1.780000e+001
         vertex 4.027212e+000 2.289528e+000 0.000000e+000
         vertex 4.050000e+000 2.550000e+000 0.000000e+000
      endloop
   endfacet
   facet normal 9.983119e-001 -5.807913e-002 0.000000e+000
      outer loop
         vertex 4.027212e+000 2.289528e+000 1.780000e+001
         vertex 4.050000e+000 2.550000e+000 0.000000e+000
         vertex 4.050000e+000 2.550000e+000 1.780000e+001
      endloop
   endfacet
   facet normal 9.983119e-001 5.807913e-002 0.000000e+000
      outer loop
         vertex 4.050000e+000 2.550000e+000 1.780000e+001
         vertex 4.050000e+000 2.550000e+000 0.000000e+000
         vertex 4.027212e+000 2.810472e+000 0.000000e+000
      endloop
   endfacet
   facet normal 9.932307e-001 1.161583e-001 0.000000e+000
      outer loop
         vertex 4.050000e+000 2.550000e+000 1.780000e+001
         vertex 4.027212e+000 2.810472e+000 0.000000e+000
         vertex 4.027212e+000 2.810472e+000 1.780000e+001
      endloop
   endfacet
   facet normal 9.730601e-001 2.305518e-001 0.000000e+000
      outer loop
         vertex 4.027212e+000 2.810472e+000 1.780000e+001
         vertex 4.027212e+000 2.810472e+000 0.000000e+000
         vertex 3.959539e+000 3.063030e+000 0.000000e+000
      endloop
   endfacet
   facet normal 9.579706e-001 2.868663e-001 0.000000e+000
      outer loop
         vertex 4.027212e+000 2.810472e+000 1.780000e+001
         vertex 3.959539e+000 3.063030e+000 0.000000e+000
         vertex 3.959539e+000 3.063030e+000 1.780000e+001
      endloop
   endfacet
   facet normal 9.182422e-001 3.960194e-001 0.000000e+000
      outer loop
         vertex 3.959539e+000 3.063030e+000 1.780000e+001
         vertex 3.959539e+000 3.063030e+000 0.000000e+000
         vertex 3.849038e+000 3.300000e+000 0.000000e+000
      endloop
   endfacet
   facet normal 8.936031e-001 4.488580e-001 0.000000e+000
      outer loop
         vertex 3.959539e+000 3.063030e+000 1.780000e+001
         vertex 3.849038e+000 3.300000e+000 0.000000e+000
         vertex 3.849038e+000 3.300000e+000 1.780000e+001
      endloop
   endfacet
   facet normal 8.355240e-001 5.494540e-001 0.000000e+000
      outer loop
         vertex 3.849038e+000 3.300000e+000 1.780000e+001
         vertex 3.849038e+000 3.300000e+000 0.000000e+000
         vertex 3.699067e+000 3.514182e+000 0.000000e+000
      endloop
   endfacet
   facet normal 8.020838e-001 5.972114e-001 0.000000e+000
      outer loop
         vertex 3.849038e+000 3.300000e+000 1.780000e+001
         vertex 3.699067e+000 3.514182e+000 0.000000e+000
         vertex 3.699067e+000 3.514182e+000 1.780000e+001
      endloop
   endfacet
   facet normal 7.274188e-001 6.861938e-001 0.000000e+000
      outer loop
         vertex 3.699067e+000 3.514182e+000 1.780000e+001
         vertex 3.699067e+000 3.514182e+000 0.000000e+000
         vertex 3.514182e+000 3.699067e+000 0.000000e+000
      endloop
   endfacet
   facet normal 6.861938e-001 7.274188e-001 0.000000e+000
      outer loop
         vertex 3.699067e+000 3.514182e+000 1.780000e+001
         vertex 3.514182e+000 3.699067e+000 0.000000e+000
         vertex 3.514182e+000 3.699067e+000 1.780000e+001
      endloop
   endfacet
   facet normal 5.972114e-001 8.020838e-001 0.000000e+000
      outer loop
         vertex 3.514182e+000 3.699067e+000 1.780000e+001
         vertex 3.514182e+000 3.699067e+000 0.000000e+000
         vertex 3.300000e+000 3.849038e+000 0.000000e+000
      endloop
   endfacet
   facet normal 5.494540e-001 8.355240e-001 0.000000e+000
      outer loop
         vertex 3.514182e+000 3.699067e+000 1.780000e+001
         vertex 3.300000e+000 3.849038e+000 0.000000e+000
         vertex 3.300000e+000 3.849038e+000 1.780000e+001
      endloop
   endfacet
   facet normal 4.488580e-001 8.936031e-001 0.000000e+000
      outer loop
         vertex 3.300000e+000 3.849038e+000 1.780000e+001
         vertex 3.300000e+000 3.849038e+000 0.000000e+000
         vertex 3.063030e+000 3.959539e+000 0.000000e+000
      endloop
   endfacet
   facet normal 3.960194e-001 9.182422e-001 0.000000e+000
      outer loop
         vertex 3.300000e+000 3.849038e+000 1.780000e+001
         vertex 3.063030e+000 3.959539e+000 0.000000e+000
         vertex 3.063030e+000 3.959539e+000 1.780000e+001
      endloop
   endfacet
   facet normal 2.868663e-001 9.579706e-001 0.000000e+000
      outer loop
         vertex 3.063030e+000 3.959539e+000 1.780000e+001
         vertex 3.063030e+000 3.959539e+000 0.000000e+000
         vertex 2.810472e+000 4.027212e+000 0.000000e+000
      endloop
   endfacet
   facet normal 2.305518e-001 9.730601e-001 0.000000e+000
      outer loop
         vertex 3.063030e+000 3.959539e+000 1.780000e+001
         vertex 2.810472e+000 4.027212e+000 0.000000e+000
         vertex 2.810472e+000 4.027212e+000 1.780000e+001
      endloop
   endfacet
   facet normal 1.161583e-001 9.932307e-001 0.000000e+000
      outer loop
         vertex 2.810472e+000 4.027212e+000 1.780000e+001
         vertex 2.810472e+000 4.027212e+000 0.000000e+000
         vertex 2.550000e+000 4.050000e+000 0.000000e+000
      endloop
   endfacet
   facet normal 5.807913e-002 9.983119e-001 0.000000e+000
      outer loop
         vertex 2.810472e+000 4.027212e+000 1.780000e+001
         vertex 2.550000e+000 4.050000e+000 0.000000e+000
         vertex 2.550000e+000 4.050000e+000 1.780000e+001
      endloop
   endfacet
   facet normal -5.807913e-002 9.983119e-001 0.000000e+000
      outer loop
         vertex 2.550000e+000 4.050000e+000 1.780000e+001
         vertex 2.550000e+000 4.050000e+000 0.000000e+000
         vertex 2.289528e+000 4.027212e+000 0.000000e+000
      endloop
   endfacet
   facet normal -1.161583e-001 9.932307e-001 0.000000e+000
      outer loop
         vertex 2.550000e+000 4.050000e+000 1.780000e+001
         vertex 2.289528e+000 4.027212e+000 0.000000e+000
         vertex 2.289528e+000 4.027212e+000 1.780000e+001
      endloop
   endfacet
   facet normal -2.305518e-001 9.730601e-001 0.000000e+000
      outer loop
         vertex 2.289528e+000 4.027212e+000 1.780000e+001
         vertex 2.289528e+000 4.027212e+000 0.000000e+000
         vertex 2.036970e+000 3.959539e+000 0.000000e+000
      endloop
   endfacet
   facet normal -2.868663e-001 9.579706e-001 0.000000e+000
      outer loop
         vertex 2.289528e+000 4.027212e+000 1.780000e+001
         vertex 2.036970e+000 3.959539e+000 0.000000e+000
         vertex 2.036970e+000 3.959539e+000 1.780000e+001
      endloop
   endfacet
   facet normal -3.960194e-001 9.182422e-001 0.000000e+000
      outer loop
         vertex 2.036970e+000 3.959539e+000 1.780000e+001
         vertex 2.036970e+000 3.959539e+000 0.000000e+000
         vertex 1.800000e+000 3.849038e+000 0.000000e+000
      endloop
   endfacet
   facet normal -4.488580e-001 8.936031e-001 0.000000e+000
      outer loop
         vertex 2.036970e+000 3.959539e+000 1.780000e+001
         vertex 1.800000e+000 3.849038e+000 0.000000e+000
         vertex 1.800000e+000 3.849038e+000 1.780000e+001
      endloop
   endfacet
   facet normal -5.494540e-001 8.355240e-001 0.000000e+000
      outer loop
         vertex 1.800000e+000 3.849038e+000 1.780000e+001
         vertex 1.800000e+000 3.849038e+000 0.000000e+000
         vertex 1.585819e+000 3.699067e+000 0.000000e+000
      endloop
   endfacet
   facet normal -5.972114e-001 8.020838e-001 0.000000e+000
      outer loop
         vertex 1.800000e+000 3.849038e+000 1.780000e+001
         vertex 1.585819e+000 3.699067e+000 0.000000e+000
         vertex 1.585819e+000 3.699067e+000 1.780000e+001
      endloop
   endfacet
   facet normal -6.861938e-001 7.274188e-001 0.000000e+000
      outer loop
         vertex 1.585819e+000 3.699067e+000 1.780000e+001
         vertex 1.585819e+000 3.699067e+000 0.000000e+000
         vertex 1.400934e+000 3.514182e+000 0.000000e+000
      endloop
   endfacet
   facet normal -7.274188e-001 6.861938e-001 0.000000e+000
      outer loop
         vertex 1.585819e+000 3.699067e+000 1.780000e+001
         vertex 1.400934e+000 3.514182e+000 0.000000e+000
         vertex 1.400934e+000 3.514182e+000 1.780000e+001
      endloop
   endfacet
   facet normal -8.020838e-001 5.972114e-001 0.000000e+000
      outer loop
         vertex 1.400934e+000 3.514182e+000 1.780000e+001
         vertex 1.400934e+000 3.514182e+000 0.000000e+000
         vertex 1.250962e+000 3.300000e+000 0.000000e+000
      endloop
   endfacet
   facet normal -8.355240e-001 5.494540e-001 0.000000e+000
      outer loop
         vertex 1.400934e+000 3.514182e+000 1.780000e+001
         vertex 1.250962e+000 3.300000e+000 0.000000e+000
         vertex 1.250962e+000 3.300000e+000 1.780000e+001
      endloop
   endfacet
   facet normal -8.936031e-001 4.488580e-001 0.000000e+000
      outer loop
         vertex 1.250962e+000 3.300000e+000 1.780000e+001
         vertex 1.250962e+000 3.300000e+000 0.000000e+000
         vertex 1.140461e+000 3.063030e+000 0.000000e+000
      endloop
   endfacet
   facet normal -9.182422e-001 3.960194e-001 0.000000e+000
      outer loop
         vertex 1.250962e+000 3.300000e+000 1.780000e+001
         vertex 1.140461e+000 3.063030e+000 0.000000e+000
         vertex 1.140461e+000 3.063030e+000 1.780000e+001
      endloop
   endfacet
   facet normal -9.579706e-001 2.868663e-001 0.000000e+000
      outer loop
         vertex 1.140461e+000 3.063030e+000 1.780000e+001
         vertex 1.140461e+000 3.063030e+000 0.000000e+000
         vertex 1.072788e+000 2.810472e+000 0.000000e+000
      endloop
   endfacet
   facet normal -9.730601e-001 2.305518e-001 0.000000e+000
      outer loop
         vertex 1.140461e+000 3.063030e+000 1.780000e+001
         vertex 1.072788e+000 2.810472e+000 0.000000e+000
         vertex 1.072788e+000 2.810472e+000 1.780000e+001
      endloop
   endfacet
   facet normal -9.932307e-001 1.161583e-001 0.000000e+000
      outer loop
         vertex 1.072788e+000 2.810472e+000 1.780000e+001
         vertex 1.072788e+000 2.810472e+000 0.000000e+000
         vertex 1.050000e+000 2.550000e+000 0.000000e+000
      endloop
   endfacet
   facet normal 0.000000e+000 0.000000e+000 -1.000000e+000
      outer loop
         vertex 3.300000e+000 1.250962e+000 0.000000e+000
         vertex 3.063030e+000 1.140461e+000 0.000000e+000
         vertex 2.810472e+000 1.072788e+000 0.000000e+000
      endloop
   endfacet
   facet normal 0.000000e+000 0.000000e+000 -1.000000e+000
      outer loop
         vertex 2.550000e+000 4.050000e+000 0.000000e+000
         vertex 2.810472e+000 1.072788e+000 0.000000e+000
         vertex 2.289528e+000 4.027212e+000 0.000000e+000
      endloop
   endfacet
   facet normal 0.000000e+000 0.000000e+000 -1.000000e+000
      outer loop
         vertex 2.289528e+000 4.027212e+000 0.000000e+000
         vertex 2.810472e+000 1.072788e+000 0.000000e+000
         vertex 2.550000e+000 1.050000e+000 0.000000e+000
      endloop
   endfacet
   facet normal 0.000000e+000 0.000000e+000 -1.000000e+000
      outer loop
         vertex 2.550000e+000 4.050000e+000 0.000000e+000
         vertex 2.810472e+000 4.027212e+000 0.000000e+000
         vertex 2.810472e+000 1.072788e+000 0.000000e+000
      endloop
   endfacet
   facet normal 0.000000e+000 0.000000e+000 -1.000000e+000
      outer loop
         vertex 2.810472e+000 1.072788e+000 0.000000e+000
         vertex 2.810472e+000 4.027212e+000 0.000000e+000
         vertex 3.063030e+000 3.959539e+000 0.000000e+000
      endloop
   endfacet
   facet normal 0.000000e+000 0.000000e+000 -1.000000e+000
      outer loop
         vertex 2.810472e+000 1.072788e+000 0.000000e+000
         vertex 3.063030e+000 3.959539e+000 0.000000e+000
         vertex 3.300000e+000 3.849038e+000 0.000000e+000
      endloop
   endfacet
   facet normal 0.000000e+000 0.000000e+000 -1.000000e+000
      outer loop
         vertex 1.800000e+000 1.250962e+000 0.000000e+000
         vertex 2.289528e+000 4.027212e+000 0.000000e+000
         vertex 2.036970e+000 1.140461e+000 0.000000e+000
      endloop
   endfacet
   facet normal 0.000000e+000 0.000000e+000 -1.000000e+000
      outer loop
         vertex 2.036970e+000 1.140461e+000 0.000000e+000
         vertex 2.289528e+000 4.027212e+000 0.000000e+000
         vertex 2.550000e+000 1.050000e+000 0.000000e+000
      endloop
   endfacet
   facet normal 0.000000e+000 0.000000e+000 -1.000000e+000
      outer loop
         vertex 2.036970e+000 1.140461e+000 0.000000e+000
         vertex 2.550000e+000 1.050000e+000 0.000000e+000
         vertex 2.289528e+000 1.072788e+000 0.000000e+000
      endloop
   endfacet
   facet normal 0.000000e+000 0.000000e+000 -1.000000e+000
      outer loop
         vertex 1.072788e+000 2.289528e+000 0.000000e+000
         vertex 1.050000e+000 2.550000e+000 0.000000e+000
         vertex 1.072788e+000 2.810472e+000 0.000000e+000
      endloop
   endfacet
   facet normal 0.000000e+000 0.000000e+000 -1.000000e+000
      outer loop
         vertex 3.849038e+000 3.300000e+000 0.000000e+000
         vertex 3.959539e+000 3.063030e+000 0.000000e+000
         vertex 3.699067e+000 3.514182e+000 0.000000e+000
      endloop
   endfacet
   facet normal 0.000000e+000 0.000000e+000 -1.000000e+000
      outer loop
         vertex 3.699067e+000 3.514182e+000 0.000000e+000
         vertex 3.959539e+000 3.063030e+000 0.000000e+000
         vertex 2.810472e+000 1.072788e+000 0.000000e+000
      endloop
   endfacet
   facet normal 0.000000e+000 0.000000e+000 -1.000000e+000
      outer loop
         vertex 3.699067e+000 3.514182e+000 0.000000e+000
         vertex 2.810472e+000 1.072788e+000 0.000000e+000
         vertex 3.514182e+000 3.699067e+000 0.000000e+000
      endloop
   endfacet
   facet normal 0.000000e+000 0.000000e+000 -1.000000e+000
      outer loop
         vertex 3.514182e+000 3.699067e+000 0.000000e+000
         vertex 2.810472e+000 1.072788e+000 0.000000e+000
         vertex 3.300000e+000 3.849038e+000 0.000000e+000
      endloop
   endfacet
   facet normal 0.000000e+000 0.000000e+000 -1.000000e+000
      outer loop
         vertex 1.250962e+000 1.800000e+000 0.000000e+000
         vertex 2.289528e+000 4.027212e+000 0.000000e+000
         vertex 1.400934e+000 1.585819e+000 0.000000e+000
      endloop
   endfacet
   facet normal 0.000000e+000 0.000000e+000 -1.000000e+000
      outer loop
         vertex 1.400934e+000 1.585819e+000 0.000000e+000
         vertex 2.289528e+000 4.027212e+000 0.000000e+000
         vertex 1.800000e+000 1.250962e+000 0.000000e+000
      endloop
   endfacet
   facet normal 0.000000e+000 0.000000e+000 -1.000000e+000
      outer loop
         vertex 1.400934e+000 1.585819e+000 0.000000e+000
         vertex 1.800000e+000 1.250962e+000 0.000000e+000
         vertex 1.585819e+000 1.400934e+000 0.000000e+000
      endloop
   endfacet
   facet normal 0.000000e+000 0.000000e+000 -1.000000e+000
      outer loop
         vertex 4.027212e+000 2.289528e+000 0.000000e+000
         vertex 3.959539e+000 2.036970e+000 0.000000e+000
         vertex 4.050000e+000 2.550000e+000 0.000000e+000
      endloop
   endfacet
   facet normal 0.000000e+000 0.000000e+000 -1.000000e+000
      outer loop
         vertex 4.050000e+000 2.550000e+000 0.000000e+000
         vertex 3.959539e+000 2.036970e+000 0.000000e+000
         vertex 2.810472e+000 1.072788e+000 0.000000e+000
      endloop
   endfacet
   facet normal 0.000000e+000 0.000000e+000 -1.000000e+000
      outer loop
         vertex 4.050000e+000 2.550000e+000 0.000000e+000
         vertex 2.810472e+000 1.072788e+000 0.000000e+000
         vertex 4.027212e+000 2.810472e+000 0.000000e+000
      endloop
   endfacet
   facet normal 0.000000e+000 0.000000e+000 -1.000000e+000
      outer loop
         vertex 4.027212e+000 2.810472e+000 0.000000e+000
         vertex 2.810472e+000 1.072788e+000 0.000000e+000
         vertex 3.959539e+000 3.063030e+000 0.000000e+000
      endloop
   endfacet
   facet normal 0.000000e+000 0.000000e+000 -1.000000e+000
      outer loop
         vertex 3.514182e+000 1.400934e+000 0.000000e+000
         vertex 3.300000e+000 1.250962e+000 0.000000e+000
         vertex 3.699067e+000 1.585819e+000 0.000000e+000
      endloop
   endfacet
   facet normal 0.000000e+000 0.000000e+000 -1.000000e+000
      outer loop
         vertex 3.699067e+000 1.585819e+000 0.000000e+000
         vertex 3.300000e+000 1.250962e+000 0.000000e+000
         vertex 2.810472e+000 1.072788e+000 0.000000e+000
      endloop
   endfacet
   facet normal 0.000000e+000 0.000000e+000 -1.000000e+000
      outer loop
         vertex 3.699067e+000 1.585819e+000 0.000000e+000
         vertex 2.810472e+000 1.072788e+000 0.000000e+000
         vertex 3.849038e+000 1.800000e+000 0.000000e+000
      endloop
   endfacet
   facet normal 0.000000e+000 0.000000e+000 -1.000000e+000
      outer loop
         vertex 3.849038e+000 1.800000e+000 0.000000e+000
         vertex 2.810472e+000 1.072788e+000 0.000000e+000
         vertex 3.959539e+000 2.036970e+000 0.000000e+000
      endloop
   endfacet
   facet normal 0.000000e+000 0.000000e+000 -1.000000e+000
      outer loop
         vertex 1.400934e+000 3.514182e+000 0.000000e+000
         vertex 1.585819e+000 3.699067e+000 0.000000e+000
         vertex 1.250962e+000 3.300000e+000 0.000000e+000
      endloop
   endfacet
   facet normal 0.000000e+000 0.000000e+000 -1.000000e+000
      outer loop
         vertex 1.250962e+000 3.300000e+000 0.000000e+000
         vertex 1.585819e+000 3.699067e+000 0.000000e+000
         vertex 1.800000e+000 3.849038e+000 0.000000e+000
      endloop
   endfacet
   facet normal 0.000000e+000 0.000000e+000 -1.000000e+000
      outer loop
         vertex 1.250962e+000 3.300000e+000 0.000000e+000
         vertex 1.800000e+000 3.849038e+000 0.000000e+000
         vertex 1.140461e+000 3.063030e+000 0.000000e+000
      endloop
   endfacet
   facet normal 0.000000e+000 0.000000e+000 -1.000000e+000
      outer loop
         vertex 1.140461e+000 3.063030e+000 0.000000e+000
         vertex 1.800000e+000 3.849038e+000 0.000000e+000
         vertex 2.036970e+000 3.959539e+000 0.000000e+000
      endloop
   endfacet
   facet normal 0.000000e+000 0.000000e+000 -1.000000e+000
      outer loop
         vertex 1.140461e+000 3.063030e+000 0.000000e+000
         vertex 2.036970e+000 3.959539e+000 0.000000e+000
         vertex 1.072788e+000 2.810472e+000 0.000000e+000
      endloop
   endfacet
   facet normal 0.000000e+000 0.000000e+000 -1.000000e+000
      outer loop
         vertex 1.072788e+000 2.810472e+000 0.000000e+000
         vertex 2.036970e+000 3.959539e+000 0.000000e+000
         vertex 2.289528e+000 4.027212e+000 0.000000e+000
      endloop
   endfacet
   facet normal 0.000000e+000 0.000000e+000 -1.000000e+000
      outer loop
         vertex 1.072788e+000 2.810472e+000 0.000000e+000
         vertex 2.289528e+000 4.027212e+000 0.000000e+000
         vertex 1.072788e+000 2.289528e+000 0.000000e+000
      endloop
   endfacet
   facet normal 0.000000e+000 0.000000e+000 -1.000000e+000
      outer loop
         vertex 1.072788e+000 2.289528e+000 0.000000e+000
         vertex 2.289528e+000 4.027212e+000 0.000000e+000
         vertex 1.250962e+000 1.800000e+000 0.000000e+000
      endloop
   endfacet
   facet normal 0.000000e+000 0.000000e+000 -1.000000e+000
      outer loop
         vertex 1.072788e+000 2.289528e+000 0.000000e+000
         vertex 1.250962e+000 1.800000e+000 0.000000e+000
         vertex 1.140461e+000 2.036970e+000 0.000000e+000
      endloop
   endfacet
   facet normal 0.000000e+000 0.000000e+000 -1.000000e+000
      outer loop
         vertex 1.072788e+000 2.810472e+000 1.780000e+001
         vertex 3.874023e-002 2.992803e+000 1.780000e+001
         vertex 1.140461e+000 3.063030e+000 1.780000e+001
      endloop
   endfacet
   facet normal 0.000000e+000 0.000000e+000 -1.000000e+000
      outer loop
         vertex 1.140461e+000 3.063030e+000 1.780000e+001
         vertex 3.874023e-002 2.992803e+000 1.780000e+001
         vertex 1.537839e-001 3.422151e+000 1.780000e+001
      endloop
   endfacet
   facet normal 0.000000e+000 0.000000e+000 -1.000000e+000
      outer loop
         vertex 1.140461e+000 3.063030e+000 1.780000e+001
         vertex 1.537839e-001 3.422151e+000 1.780000e+001
         vertex 1.250962e+000 3.300000e+000 1.780000e+001
      endloop
   endfacet
   facet normal 0.000000e+000 0.000000e+000 -1.000000e+000
      outer loop
         vertex 1.250962e+000 3.300000e+000 1.780000e+001
         vertex 1.537839e-001 3.422151e+000 1.780000e+001
         vertex 3.416352e-001 3.825000e+000 1.780000e+001
      endloop
   endfacet
   facet normal 0.000000e+000 0.000000e+000 -1.000000e+000
      outer loop
         vertex 1.250962e+000 3.300000e+000 1.780000e+001
         vertex 3.416352e-001 3.825000e+000 1.780000e+001
         vertex 1.400934e+000 3.514182e+000 1.780000e+001
      endloop
   endfacet
   facet normal 0.000000e+000 0.000000e+000 -1.000000e+000
      outer loop
         vertex 1.400934e+000 3.514182e+000 1.780000e+001
         vertex 3.416352e-001 3.825000e+000 1.780000e+001
         vertex 5.965868e-001 4.189108e+000 1.780000e+001
      endloop
   endfacet
   facet normal 0.000000e+000 0.000000e+000 -1.000000e+000
      outer loop
         vertex 1.400934e+000 3.514182e+000 1.780000e+001
         vertex 5.965868e-001 4.189108e+000 1.780000e+001
         vertex 1.585819e+000 3.699067e+000 1.780000e+001
      endloop
   endfacet
   facet normal 0.000000e+000 0.000000e+000 -1.000000e+000
      outer loop
         vertex 1.585819e+000 3.699067e+000 1.780000e+001
         vertex 5.965868e-001 4.189108e+000 1.780000e+001
         vertex 9.108917e-001 4.503413e+000 1.780000e+001
      endloop
   endfacet
   facet normal 0.000000e+000 0.000000e+000 -1.000000e+000
      outer loop
         vertex 1.585819e+000 3.699067e+000 1.780000e+001
         vertex 9.108917e-001 4.503413e+000 1.780000e+001
         vertex 1.800000e+000 3.849038e+000 1.780000e+001
      endloop
   endfacet
   facet normal 0.000000e+000 0.000000e+000 -1.000000e+000
      outer loop
         vertex 1.800000e+000 3.849038e+000 1.780000e+001
         vertex 9.108917e-001 4.503413e+000 1.780000e+001
         vertex 1.275000e+000 4.758365e+000 1.780000e+001
      endloop
   endfacet
   facet normal 0.000000e+000 0.000000e+000 -1.000000e+000
      outer loop
         vertex 1.800000e+000 3.849038e+000 1.780000e+001
         vertex 1.275000e+000 4.758365e+000 1.780000e+001
         vertex 2.036970e+000 3.959539e+000 1.780000e+001
      endloop
   endfacet
   facet normal 0.000000e+000 0.000000e+000 -1.000000e+000
      outer loop
         vertex 2.036970e+000 3.959539e+000 1.780000e+001
         vertex 1.275000e+000 4.758365e+000 1.780000e+001
         vertex 1.677849e+000 4.946216e+000 1.780000e+001
      endloop
   endfacet
   facet normal 0.000000e+000 0.000000e+000 -1.000000e+000
      outer loop
         vertex 2.036970e+000 3.959539e+000 1.780000e+001
         vertex 1.677849e+000 4.946216e+000 1.780000e+001
         vertex 2.289528e+000 4.027212e+000 1.780000e+001
      endloop
   endfacet
   facet normal 0.000000e+000 0.000000e+000 -1.000000e+000
      outer loop
         vertex 2.289528e+000 4.027212e+000 1.780000e+001
         vertex 1.677849e+000 4.946216e+000 1.780000e+001
         vertex 2.107197e+000 5.061260e+000 1.780000e+001
      endloop
   endfacet
   facet normal 0.000000e+000 0.000000e+000 -1.000000e+000
      outer loop
         vertex 2.289528e+000 4.027212e+000 1.780000e+001
         vertex 2.107197e+000 5.061260e+000 1.780000e+001
         vertex 2.550000e+000 4.050000e+000 1.780000e+001
      endloop
   endfacet
   facet normal 0.000000e+000 0.000000e+000 -1.000000e+000
      outer loop
         vertex 2.550000e+000 4.050000e+000 1.780000e+001
         vertex 2.107197e+000 5.061260e+000 1.780000e+001
         vertex 2.550000e+000 5.100000e+000 1.780000e+001
      endloop
   endfacet
   facet normal 0.000000e+000 0.000000e+000 -1.000000e+000
      outer loop
         vertex 2.550000e+000 4.050000e+000 1.780000e+001
         vertex 2.550000e+000 5.100000e+000 1.780000e+001
         vertex 2.810472e+000 4.027212e+000 1.780000e+001
      endloop
   endfacet
   facet normal 0.000000e+000 0.000000e+000 -1.000000e+000
      outer loop
         vertex 2.810472e+000 4.027212e+000 1.780000e+001
         vertex 2.550000e+000 5.100000e+000 1.780000e+001
         vertex 2.992803e+000 5.061260e+000 1.780000e+001
      endloop
   endfacet
   facet normal 0.000000e+000 0.000000e+000 -1.000000e+000
      outer loop
         vertex 2.810472e+000 4.027212e+000 1.780000e+001
         vertex 2.992803e+000 5.061260e+000 1.780000e+001
         vertex 3.063030e+000 3.959539e+000 1.780000e+001
      endloop
   endfacet
   facet normal 0.000000e+000 0.000000e+000 -1.000000e+000
      outer loop
         vertex 3.063030e+000 3.959539e+000 1.780000e+001
         vertex 2.992803e+000 5.061260e+000 1.780000e+001
         vertex 3.422151e+000 4.946216e+000 1.780000e+001
      endloop
   endfacet
   facet normal 0.000000e+000 0.000000e+000 -1.000000e+000
      outer loop
         vertex 3.063030e+000 3.959539e+000 1.780000e+001
         vertex 3.422151e+000 4.946216e+000 1.780000e+001
         vertex 3.300000e+000 3.849038e+000 1.780000e+001
      endloop
   endfacet
   facet normal 0.000000e+000 0.000000e+000 -1.000000e+000
      outer loop
         vertex 3.300000e+000 3.849038e+000 1.780000e+001
         vertex 3.422151e+000 4.946216e+000 1.780000e+001
         vertex 3.825000e+000 4.758365e+000 1.780000e+001
      endloop
   endfacet
   facet normal 0.000000e+000 0.000000e+000 -1.000000e+000
      outer loop
         vertex 3.300000e+000 3.849038e+000 1.780000e+001
         vertex 3.825000e+000 4.758365e+000 1.780000e+001
         vertex 3.514182e+000 3.699067e+000 1.780000e+001
      endloop
   endfacet
   facet normal 0.000000e+000 0.000000e+000 -1.000000e+000
      outer loop
         vertex 3.514182e+000 3.699067e+000 1.780000e+001
         vertex 3.825000e+000 4.758365e+000 1.780000e+001
         vertex 4.189108e+000 4.503413e+000 1.780000e+001
      endloop
   endfacet
   facet normal 0.000000e+000 0.000000e+000 -1.000000e+000
      outer loop
         vertex 3.514182e+000 3.699067e+000 1.780000e+001
         vertex 4.189108e+000 4.503413e+000 1.780000e+001
         vertex 3.699067e+000 3.514182e+000 1.780000e+001
      endloop
   endfacet
   facet normal 0.000000e+000 0.000000e+000 -1.000000e+000
      outer loop
         vertex 3.699067e+000 3.514182e+000 1.780000e+001
         vertex 4.189108e+000 4.503413e+000 1.780000e+001
         vertex 4.503413e+000 4.189108e+000 1.780000e+001
      endloop
   endfacet
   facet normal 0.000000e+000 0.000000e+000 -1.000000e+000
      outer loop
         vertex 3.699067e+000 3.514182e+000 1.780000e+001
         vertex 4.503413e+000 4.189108e+000 1.780000e+001
         vertex 3.849038e+000 3.300000e+000 1.780000e+001
      endloop
   endfacet
   facet normal 0.000000e+000 0.000000e+000 -1.000000e+000
      outer loop
         vertex 3.849038e+000 3.300000e+000 1.780000e+001
         vertex 4.503413e+000 4.189108e+000 1.780000e+001
         vertex 4.758365e+000 3.825000e+000 1.780000e+001
      endloop
   endfacet
   facet normal 0.000000e+000 0.000000e+000 -1.000000e+000
      outer loop
         vertex 3.849038e+000 3.300000e+000 1.780000e+001
         vertex 4.758365e+000 3.825000e+000 1.780000e+001
         vertex 3.959539e+000 3.063030e+000 1.780000e+001
      endloop
   endfacet
   facet normal 0.000000e+000 0.000000e+000 -1.000000e+000
      outer loop
         vertex 3.959539e+000 3.063030e+000 1.780000e+001
         vertex 4.758365e+000 3.825000e+000 1.780000e+001
         vertex 4.946216e+000 3.422151e+000 1.780000e+001
      endloop
   endfacet
   facet normal 0.000000e+000 0.000000e+000 -1.000000e+000
      outer loop
         vertex 3.959539e+000 3.063030e+000 1.780000e+001
         vertex 4.946216e+000 3.422151e+000 1.780000e+001
         vertex 4.027212e+000 2.810472e+000 1.780000e+001
      endloop
   endfacet
   facet normal 0.000000e+000 0.000000e+000 -1.000000e+000
      outer loop
         vertex 4.027212e+000 2.810472e+000 1.780000e+001
         vertex 4.946216e+000 3.422151e+000 1.780000e+001
         vertex 5.061260e+000 2.992803e+000 1.780000e+001
      endloop
   endfacet
   facet normal 0.000000e+000 0.000000e+000 -1.000000e+000
      outer loop
         vertex 4.027212e+000 2.810472e+000 1.780000e+001
         vertex 5.061260e+000 2.992803e+000 1.780000e+001
         vertex 4.050000e+000 2.550000e+000 1.780000e+001
      endloop
   endfacet
   facet normal 0.000000e+000 0.000000e+000 -1.000000e+000
      outer loop
         vertex 4.050000e+000 2.550000e+000 1.780000e+001
         vertex 5.061260e+000 2.992803e+000 1.780000e+001
         vertex 5.100000e+000 2.550000e+000 1.780000e+001
      endloop
   endfacet
   facet normal 0.000000e+000 0.000000e+000 -1.000000e+000
      outer loop
         vertex 4.050000e+000 2.550000e+000 1.780000e+001
         vertex 5.100000e+000 2.550000e+000 1.780000e+001
         vertex 4.027212e+000 2.289528e+000 1.780000e+001
      endloop
   endfacet
   facet normal 0.000000e+000 0.000000e+000 -1.000000e+000
      outer loop
         vertex 4.027212e+000 2.289528e+000 1.780000e+001
         vertex 5.100000e+000 2.550000e+000 1.780000e+001
         vertex 5.061260e+000 2.107197e+000 1.780000e+001
      endloop
   endfacet
   facet normal 0.000000e+000 0.000000e+000 -1.000000e+000
      outer loop
         vertex 4.027212e+000 2.289528e+000 1.780000e+001
         vertex 5.061260e+000 2.107197e+000 1.780000e+001
         vertex 3.959539e+000 2.036970e+000 1.780000e+001
      endloop
   endfacet
   facet normal 0.000000e+000 0.000000e+000 -1.000000e+000
      outer loop
         vertex 3.959539e+000 2.036970e+000 1.780000e+001
         vertex 5.061260e+000 2.107197e+000 1.780000e+001
         vertex 4.946216e+000 1.677849e+000 1.780000e+001
      endloop
   endfacet
   facet normal 0.000000e+000 0.000000e+000 -1.000000e+000
      outer loop
         vertex 3.959539e+000 2.036970e+000 1.780000e+001
         vertex 4.946216e+000 1.677849e+000 1.780000e+001
         vertex 3.849038e+000 1.800000e+000 1.780000e+001
      endloop
   endfacet
   facet normal 0.000000e+000 0.000000e+000 -1.000000e+000
      outer loop
         vertex 3.849038e+000 1.800000e+000 1.780000e+001
         vertex 4.946216e+000 1.677849e+000 1.780000e+001
         vertex 4.758365e+000 1.275000e+000 1.780000e+001
      endloop
   endfacet
   facet normal 0.000000e+000 0.000000e+000 -1.000000e+000
      outer loop
         vertex 3.849038e+000 1.800000e+000 1.780000e+001
         vertex 4.758365e+000 1.275000e+000 1.780000e+001
         vertex 3.699067e+000 1.585819e+000 1.780000e+001
      endloop
   endfacet
   facet normal 0.000000e+000 0.000000e+000 -1.000000e+000
      outer loop
         vertex 3.699067e+000 1.585819e+000 1.780000e+001
         vertex 4.758365e+000 1.275000e+000 1.780000e+001
         vertex 4.503413e+000 9.108917e-001 1.780000e+001
      endloop
   endfacet
   facet normal 0.000000e+000 0.000000e+000 -1.000000e+000
      outer loop
         vertex 3.699067e+000 1.585819e+000 1.780000e+001
         vertex 4.503413e+000 9.108917e-001 1.780000e+001
         vertex 3.514182e+000 1.400934e+000 1.780000e+001
      endloop
   endfacet
   facet normal 0.000000e+000 0.000000e+000 -1.000000e+000
      outer loop
         vertex 3.514182e+000 1.400934e+000 1.780000e+001
         vertex 4.503413e+000 9.108917e-001 1.780000e+001
         vertex 4.189108e+000 5.965868e-001 1.780000e+001
      endloop
   endfacet
   facet normal 0.000000e+000 0.000000e+000 -1.000000e+000
      outer loop
         vertex 3.514182e+000 1.400934e+000 1.780000e+001
         vertex 4.189108e+000 5.965868e-001 1.780000e+001
         vertex 3.300000e+000 1.250962e+000 1.780000e+001
      endloop
   endfacet
   facet normal 0.000000e+000 0.000000e+000 -1.000000e+000
      outer loop
         vertex 3.300000e+000 1.250962e+000 1.780000e+001
         vertex 4.189108e+000 5.965868e-001 1.780000e+001
         vertex 3.825000e+000 3.416352e-001 1.780000e+001
      endloop
   endfacet
   facet normal 0.000000e+000 0.000000e+000 -1.000000e+000
      outer loop
         vertex 3.300000e+000 1.250962e+000 1.780000e+001
         vertex 3.825000e+000 3.416352e-001 1.780000e+001
         vertex 3.063030e+000 1.140461e+000 1.780000e+001
      endloop
   endfacet
   facet normal 0.000000e+000 0.000000e+000 -1.000000e+000
      outer loop
         vertex 3.063030e+000 1.140461e+000 1.780000e+001
         vertex 3.825000e+000 3.416352e-001 1.780000e+001
         vertex 3.422151e+000 1.537839e-001 1.780000e+001
      endloop
   endfacet
   facet normal 0.000000e+000 0.000000e+000 -1.000000e+000
      outer loop
         vertex 3.063030e+000 1.140461e+000 1.780000e+001
         vertex 3.422151e+000 1.537839e-001 1.780000e+001
         vertex 2.810472e+000 1.072788e+000 1.780000e+001
      endloop
   endfacet
   facet normal 0.000000e+000 0.000000e+000 -1.000000e+000
      outer loop
         vertex 2.810472e+000 1.072788e+000 1.780000e+001
         vertex 3.422151e+000 1.537839e-001 1.780000e+001
         vertex 2.992803e+000 3.874023e-002 1.780000e+001
      endloop
   endfacet
   facet normal 0.000000e+000 0.000000e+000 -1.000000e+000
      outer loop
         vertex 2.810472e+000 1.072788e+000 1.780000e+001
         vertex 2.992803e+000 3.874023e-002 1.780000e+001
         vertex 2.550000e+000 1.050000e+000 1.780000e+001
      endloop
   endfacet
   facet normal 0.000000e+000 0.000000e+000 -1.000000e+000
      outer loop
         vertex 2.550000e+000 1.050000e+000 1.780000e+001
         vertex 2.992803e+000 3.874023e-002 1.780000e+001
         vertex 2.550000e+000 0.000000e+000 1.780000e+001
      endloop
   endfacet
   facet normal 0.000000e+000 0.000000e+000 -1.000000e+000
      outer loop
         vertex 2.550000e+000 1.050000e+000 1.780000e+001
         vertex 2.550000e+000 0.000000e+000 1.780000e+001
         vertex 2.289528e+000 1.072788e+000 1.780000e+001
      endloop
   endfacet
   facet normal 0.000000e+000 0.000000e+000 -1.000000e+000
      outer loop
         vertex 2.289528e+000 1.072788e+000 1.780000e+001
         vertex 2.550000e+000 0.000000e+000 1.780000e+001
         vertex 2.107197e+000 3.874023e-002 1.780000e+001
      endloop
   endfacet
   facet normal 0.000000e+000 0.000000e+000 -1.000000e+000
      outer loop
         vertex 2.289528e+000 1.072788e+000 1.780000e+001
         vertex 2.107197e+000 3.874023e-002 1.780000e+001
         vertex 2.036970e+000 1.140461e+000 1.780000e+001
      endloop
   endfacet
   facet normal 0.000000e+000 0.000000e+000 -1.000000e+000
      outer loop
         vertex 2.036970e+000 1.140461e+000 1.780000e+001
         vertex 2.107197e+000 3.874023e-002 1.780000e+001
         vertex 1.677849e+000 1.537839e-001 1.780000e+001
      endloop
   endfacet
   facet normal 0.000000e+000 0.000000e+000 -1.000000e+000
      outer loop
         vertex 2.036970e+000 1.140461e+000 1.780000e+001
         vertex 1.677849e+000 1.537839e-001 1.780000e+001
         vertex 1.800000e+000 1.250962e+000 1.780000e+001
      endloop
   endfacet
   facet normal 0.000000e+000 0.000000e+000 -1.000000e+000
      outer loop
         vertex 1.800000e+000 1.250962e+000 1.780000e+001
         vertex 1.677849e+000 1.537839e-001 1.780000e+001
         vertex 1.275000e+000 3.416352e-001 1.780000e+001
      endloop
   endfacet
   facet normal 0.000000e+000 0.000000e+000 -1.000000e+000
      outer loop
         vertex 1.800000e+000 1.250962e+000 1.780000e+001
         vertex 1.275000e+000 3.416352e-001 1.780000e+001
         vertex 1.585819e+000 1.400934e+000 1.780000e+001
      endloop
   endfacet
   facet normal 0.000000e+000 0.000000e+000 -1.000000e+000
      outer loop
         vertex 1.585819e+000 1.400934e+000 1.780000e+001
         vertex 1.275000e+000 3.416352e-001 1.780000e+001
         vertex 9.108917e-001 5.965868e-001 1.780000e+001
      endloop
   endfacet
   facet normal 0.000000e+000 0.000000e+000 -1.000000e+000
      outer loop
         vertex 1.585819e+000 1.400934e+000 1.780000e+001
         vertex 9.108917e-001 5.965868e-001 1.780000e+001
         vertex 1.400934e+000 1.585819e+000 1.780000e+001
      endloop
   endfacet
   facet normal 0.000000e+000 0.000000e+000 -1.000000e+000
      outer loop
         vertex 1.400934e+000 1.585819e+000 1.780000e+001
         vertex 9.108917e-001 5.965868e-001 1.780000e+001
         vertex 5.965868e-001 9.108917e-001 1.780000e+001
      endloop
   endfacet
   facet normal 0.000000e+000 0.000000e+000 -1.000000e+000
      outer loop
         vertex 1.400934e+000 1.585819e+000 1.780000e+001
         vertex 5.965868e-001 9.108917e-001 1.780000e+001
         vertex 1.250962e+000 1.800000e+000 1.780000e+001
      endloop
   endfacet
   facet normal 0.000000e+000 0.000000e+000 -1.000000e+000
      outer loop
         vertex 1.250962e+000 1.800000e+000 1.780000e+001
         vertex 5.965868e-001 9.108917e-001 1.780000e+001
         vertex 3.416352e-001 1.275000e+000 1.780000e+001
      endloop
   endfacet
   facet normal 0.000000e+000 0.000000e+000 -1.000000e+000
      outer loop
         vertex 1.250962e+000 1.800000e+000 1.780000e+001
         vertex 3.416352e-001 1.275000e+000 1.780000e+001
         vertex 1.140461e+000 2.036970e+000 1.780000e+001
      endloop
   endfacet
   facet normal 0.000000e+000 0.000000e+000 -1.000000e+000
      outer loop
         vertex 1.140461e+000 2.036970e+000 1.780000e+001
         vertex 3.416352e-001 1.275000e+000 1.780000e+001
         vertex 1.537839e-001 1.677849e+000 1.780000e+001
      endloop
   endfacet
   facet normal 0.000000e+000 0.000000e+000 -1.000000e+000
      outer loop
         vertex 1.140461e+000 2.036970e+000 1.780000e+001
         vertex 1.537839e-001 1.677849e+000 1.780000e+001
         vertex 1.072788e+000 2.289528e+000 1.780000e+001
      endloop
   endfacet
   facet normal 0.000000e+000 0.000000e+000 -1.000000e+000
      outer loop
         vertex 1.072788e+000 2.289528e+000 1.780000e+001
         vertex 1.537839e-001 1.677849e+000 1.780000e+001
         vertex 3.874023e-002 2.107197e+000 1.780000e+001
      endloop
   endfacet
   facet normal 0.000000e+000 0.000000e+000 -1.000000e+000
      outer loop
         vertex 1.072788e+000 2.289528e+000 1.780000e+001
         vertex 3.874023e-002 2.107197e+000 1.780000e+001
         vertex 1.050000e+000 2.550000e+000 1.780000e+001
      endloop
   endfacet
   facet normal 0.000000e+000 0.000000e+000 -1.000000e+000
      outer loop
         vertex 1.050000e+000 2.550000e+000 1.780000e+001
         vertex 3.874023e-002 2.107197e+000 1.780000e+001
         vertex 0.000000e+000 2.550000e+000 1.780000e+001
      endloop
   endfacet
   facet normal 0.000000e+000 0.000000e+000 -1.000000e+000
      outer loop
         vertex 1.050000e+000 2.550000e+000 1.780000e+001
         vertex 0.000000e+000 2.550000e+000 1.780000e+001
         vertex 1.072788e+000 2.810472e+000 1.780000e+001
      endloop
   endfacet
   facet normal 0.000000e+000 0.000000e+000 -1.000000e+000
      outer loop
         vertex 1.072788e+000 2.810472e+000 1.780000e+001
         vertex 0.000000e+000 2.550000e+000 1.780000e+001
         vertex 3.874023e-002 2.992803e+000 1.780000e+001
      endloop
   endfacet
   facet normal 9.983119e-001 5.807913e-002 0.000000e+000
      outer loop
         vertex 5.061260e+000 2.992803e+000 1.780000e+001
         vertex 5.100000e+000 2.550000e+000 1.960000e+001
         vertex 5.100000e+000 2.550000e+000 1.780000e+001
      endloop
   endfacet
   facet normal 9.983119e-001 -5.807913e-002 0.000000e+000
      outer loop
         vertex 5.100000e+000 2.550000e+000 1.780000e+001
         vertex 5.100000e+000 2.550000e+000 1.960000e+001
         vertex 5.061260e+000 2.107197e+000 1.960000e+001
      endloop
   endfacet
   facet normal 9.932307e-001 -1.161583e-001 0.000000e+000
      outer loop
         vertex 5.100000e+000 2.550000e+000 1.780000e+001
         vertex 5.061260e+000 2.107197e+000 1.960000e+001
         vertex 5.061260e+000 2.107197e+000 1.780000e+001
      endloop
   endfacet
   facet normal 9.730601e-001 -2.305518e-001 0.000000e+000
      outer loop
         vertex 5.061260e+000 2.107197e+000 1.780000e+001
         vertex 5.061260e+000 2.107197e+000 1.960000e+001
         vertex 4.946216e+000 1.677849e+000 1.960000e+001
      endloop
   endfacet
   facet normal 9.579706e-001 -2.868663e-001 0.000000e+000
      outer loop
         vertex 5.061260e+000 2.107197e+000 1.780000e+001
         vertex 4.946216e+000 1.677849e+000 1.960000e+001
         vertex 4.946216e+000 1.677849e+000 1.780000e+001
      endloop
   endfacet
   facet normal 9.182422e-001 -3.960194e-001 0.000000e+000
      outer loop
         vertex 4.946216e+000 1.677849e+000 1.780000e+001
         vertex 4.946216e+000 1.677849e+000 1.960000e+001
         vertex 4.758365e+000 1.275000e+000 1.960000e+001
      endloop
   endfacet
   facet normal 8.936031e-001 -4.488580e-001 0.000000e+000
      outer loop
         vertex 4.946216e+000 1.677849e+000 1.780000e+001
         vertex 4.758365e+000 1.275000e+000 1.960000e+001
         vertex 4.758365e+000 1.275000e+000 1.780000e+001
      endloop
   endfacet
   facet normal 8.355240e-001 -5.494540e-001 0.000000e+000
      outer loop
         vertex 4.758365e+000 1.275000e+000 1.780000e+001
         vertex 4.758365e+000 1.275000e+000 1.960000e+001
         vertex 4.503413e+000 9.108917e-001 1.960000e+001
      endloop
   endfacet
   facet normal 8.020838e-001 -5.972114e-001 0.000000e+000
      outer loop
         vertex 4.758365e+000 1.275000e+000 1.780000e+001
         vertex 4.503413e+000 9.108917e-001 1.960000e+001
         vertex 4.503413e+000 9.108917e-001 1.780000e+001
      endloop
   endfacet
   facet normal 7.274188e-001 -6.861938e-001 0.000000e+000
      outer loop
         vertex 4.503413e+000 9.108917e-001 1.780000e+001
         vertex 4.503413e+000 9.108917e-001 1.960000e+001
         vertex 4.189108e+000 5.965868e-001 1.960000e+001
      endloop
   endfacet
   facet normal 6.861938e-001 -7.274188e-001 0.000000e+000
      outer loop
         vertex 4.503413e+000 9.108917e-001 1.780000e+001
         vertex 4.189108e+000 5.965868e-001 1.960000e+001
         vertex 4.189108e+000 5.965868e-001 1.780000e+001
      endloop
   endfacet
   facet normal 5.972114e-001 -8.020838e-001 0.000000e+000
      outer loop
         vertex 4.189108e+000 5.965868e-001 1.780000e+001
         vertex 4.189108e+000 5.965868e-001 1.960000e+001
         vertex 3.825000e+000 3.416352e-001 1.960000e+001
      endloop
   endfacet
   facet normal 5.494540e-001 -8.355240e-001 0.000000e+000
      outer loop
         vertex 4.189108e+000 5.965868e-001 1.780000e+001
         vertex 3.825000e+000 3.416352e-001 1.960000e+001
         vertex 3.825000e+000 3.416352e-001 1.780000e+001
      endloop
   endfacet
   facet normal 4.488580e-001 -8.936031e-001 0.000000e+000
      outer loop
         vertex 3.825000e+000 3.416352e-001 1.780000e+001
         vertex 3.825000e+000 3.416352e-001 1.960000e+001
         vertex 3.422151e+000 1.537839e-001 1.960000e+001
      endloop
   endfacet
   facet normal 3.960194e-001 -9.182422e-001 0.000000e+000
      outer loop
         vertex 3.825000e+000 3.416352e-001 1.780000e+001
         vertex 3.422151e+000 1.537839e-001 1.960000e+001
         vertex 3.422151e+000 1.537839e-001 1.780000e+001
      endloop
   endfacet
   facet normal 2.868663e-001 -9.579706e-001 0.000000e+000
      outer loop
         vertex 3.422151e+000 1.537839e-001 1.780000e+001
         vertex 3.422151e+000 1.537839e-001 1.960000e+001
         vertex 2.992803e+000 3.874023e-002 1.960000e+001
      endloop
   endfacet
   facet normal 2.305518e-001 -9.730601e-001 0.000000e+000
      outer loop
         vertex 3.422151e+000 1.537839e-001 1.780000e+001
         vertex 2.992803e+000 3.874023e-002 1.960000e+001
         vertex 2.992803e+000 3.874023e-002 1.780000e+001
      endloop
   endfacet
   facet normal 1.161583e-001 -9.932307e-001 0.000000e+000
      outer loop
         vertex 2.992803e+000 3.874023e-002 1.780000e+001
         vertex 2.992803e+000 3.874023e-002 1.960000e+001
         vertex 2.550000e+000 0.000000e+000 1.960000e+001
      endloop
   endfacet
   facet normal 5.807913e-002 -9.983119e-001 0.000000e+000
      outer loop
         vertex 2.992803e+000 3.874023e-002 1.780000e+001
         vertex 2.550000e+000 0.000000e+000 1.960000e+001
         vertex 2.550000e+000 0.000000e+000 1.780000e+001
      endloop
   endfacet
   facet normal -5.807913e-002 -9.983119e-001 0.000000e+000
      outer loop
         vertex 2.550000e+000 0.000000e+000 1.780000e+001
         vertex 2.550000e+000 0.000000e+000 1.960000e+001
         vertex 2.107197e+000 3.874023e-002 1.960000e+001
      endloop
   endfacet
   facet normal -1.161583e-001 -9.932307e-001 0.000000e+000
      outer loop
         vertex 2.550000e+000 0.000000e+000 1.780000e+001
         vertex 2.107197e+000 3.874023e-002 1.960000e+001
         vertex 2.107197e+000 3.874023e-002 1.780000e+001
      endloop
   endfacet
   facet normal -2.305518e-001 -9.730601e-001 0.000000e+000
      outer loop
         vertex 2.107197e+000 3.874023e-002 1.780000e+001
         vertex 2.107197e+000 3.874023e-002 1.960000e+001
         vertex 1.677849e+000 1.537839e-001 1.960000e+001
      endloop
   endfacet
   facet normal -2.868663e-001 -9.579706e-001 0.000000e+000
      outer loop
         vertex 2.107197e+000 3.874023e-002 1.780000e+001
         vertex 1.677849e+000 1.537839e-001 1.960000e+001
         vertex 1.677849e+000 1.537839e-001 1.780000e+001
      endloop
   endfacet
   facet normal -3.960194e-001 -9.182422e-001 0.000000e+000
      outer loop
         vertex 1.677849e+000 1.537839e-001 1.780000e+001
         vertex 1.677849e+000 1.537839e-001 1.960000e+001
         vertex 1.275000e+000 3.416352e-001 1.960000e+001
      endloop
   endfacet
   facet normal -4.488580e-001 -8.936031e-001 0.000000e+000
      outer loop
         vertex 1.677849e+000 1.537839e-001 1.780000e+001
         vertex 1.275000e+000 3.416352e-001 1.960000e+001
         vertex 1.275000e+000 3.416352e-001 1.780000e+001
      endloop
   endfacet
   facet normal -5.494540e-001 -8.355240e-001 0.000000e+000
      outer loop
         vertex 1.275000e+000 3.416352e-001 1.780000e+001
         vertex 1.275000e+000 3.416352e-001 1.960000e+001
         vertex 9.108917e-001 5.965868e-001 1.960000e+001
      endloop
   endfacet
   facet normal -5.972114e-001 -8.020838e-001 0.000000e+000
      outer loop
         vertex 1.275000e+000 3.416352e-001 1.780000e+001
         vertex 9.108917e-001 5.965868e-001 1.960000e+001
         vertex 9.108917e-001 5.965868e-001 1.780000e+001
      endloop
   endfacet
   facet normal -6.861938e-001 -7.274188e-001 0.000000e+000
      outer loop
         vertex 9.108917e-001 5.965868e-001 1.780000e+001
         vertex 9.108917e-001 5.965868e-001 1.960000e+001
         vertex 5.965868e-001 9.108917e-001 1.960000e+001
      endloop
   endfacet
   facet normal -7.274188e-001 -6.861938e-001 0.000000e+000
      outer loop
         vertex 9.108917e-001 5.965868e-001 1.780000e+001
         vertex 5.965868e-001 9.108917e-001 1.960000e+001
         vertex 5.965868e-001 9.108917e-001 1.780000e+001
      endloop
   endfacet
   facet normal -8.020838e-001 -5.972114e-001 0.000000e+000
      outer loop
         vertex 5.965868e-001 9.108917e-001 1.780000e+001
         vertex 5.965868e-001 9.108917e-001 1.960000e+001
         vertex 3.416352e-001 1.275000e+000 1.960000e+001
      endloop
   endfacet
   facet normal -8.355240e-001 -5.494540e-001 0.000000e+000
      outer loop
         vertex 5.965868e-001 9.108917e-001 1.780000e+001
         vertex 3.416352e-001 1.275000e+000 1.960000e+001
         vertex 3.416352e-001 1.275000e+000 1.780000e+001
      endloop
   endfacet
   facet normal -8.936031e-001 -4.488580e-001 0.000000e+000
      outer loop
         vertex 3.416352e-001 1.275000e+000 1.780000e+001
         vertex 3.416352e-001 1.275000e+000 1.960000e+001
         vertex 1.537839e-001 1.677849e+000 1.960000e+001
      endloop
   endfacet
   facet normal -9.182422e-001 -3.960194e-001 0.000000e+000
      outer loop
         vertex 3.416352e-001 1.275000e+000 1.780000e+001
         vertex 1.537839e-001 1.677849e+000 1.960000e+001
         vertex 1.537839e-001 1.677849e+000 1.780000e+001
      endloop
   endfacet
   facet normal -9.579706e-001 -2.868663e-001 0.000000e+000
      outer loop
         vertex 1.537839e-001 1.677849e+000 1.780000e+001
         vertex 1.537839e-001 1.677849e+000 1.960000e+001
         vertex 3.874023e-002 2.107197e+000 1.960000e+001
      endloop
   endfacet
   facet normal -9.730601e-001 -2.305518e-001 0.000000e+000
      outer loop
         vertex 1.537839e-001 1.677849e+000 1.780000e+001
         vertex 3.874023e-002 2.107197e+000 1.960000e+001
         vertex 3.874023e-002 2.107197e+000 1.780000e+001
      endloop
   endfacet
   facet normal -9.932307e-001 -1.161583e-001 0.000000e+000
      outer loop
         vertex 3.874023e-002 2.107197e+000 1.780000e+001
         vertex 3.874023e-002 2.107197e+000 1.960000e+001
         vertex 0.000000e+000 2.550000e+000 1.960000e+001
      endloop
   endfacet
   facet normal -9.983119e-001 -5.807913e-002 0.000000e+000
      outer loop
         vertex 3.874023e-002 2.107197e+000 1.780000e+001
         vertex 0.000000e+000 2.550000e+000 1.960000e+001
         vertex 0.000000e+000 2.550000e+000 1.780000e+001
      endloop
   endfacet
   facet normal -9.983119e-001 5.807913e-002 0.000000e+000
      outer loop
         vertex 0.000000e+000 2.550000e+000 1.780000e+001
         vertex 0.000000e+000 2.550000e+000 1.960000e+001
         vertex 3.874023e-002 2.992803e+000 1.960000e+001
      endloop
   endfacet
   facet normal -9.932307e-001 1.161583e-001 0.000000e+000
      outer loop
         vertex 0.000000e+000 2.550000e+000 1.780000e+001
         vertex 3.874023e-002 2.992803e+000 1.960000e+001
         vertex 3.874023e-002 2.992803e+000 1.780000e+001
      endloop
   endfacet
   facet normal -9.730601e-001 2.305518e-001 0.000000e+000
      outer loop
         vertex 3.874023e-002 2.992803e+000 1.780000e+001
         vertex 3.874023e-002 2.992803e+000 1.960000e+001
         vertex 1.537839e-001 3.422151e+000 1.960000e+001
      endloop
   endfacet
   facet normal -9.579706e-001 2.868663e-001 0.000000e+000
      outer loop
         vertex 3.874023e-002 2.992803e+000 1.780000e+001
         vertex 1.537839e-001 3.422151e+000 1.960000e+001
         vertex 1.537839e-001 3.422151e+000 1.780000e+001
      endloop
   endfacet
   facet normal -9.182422e-001 3.960194e-001 0.000000e+000
      outer loop
         vertex 1.537839e-001 3.422151e+000 1.780000e+001
         vertex 1.537839e-001 3.422151e+000 1.960000e+001
         vertex 3.416352e-001 3.825000e+000 1.960000e+001
      endloop
   endfacet
   facet normal -8.936031e-001 4.488580e-001 0.000000e+000
      outer loop
         vertex 1.537839e-001 3.422151e+000 1.780000e+001
         vertex 3.416352e-001 3.825000e+000 1.960000e+001
         vertex 3.416352e-001 3.825000e+000 1.780000e+001
      endloop
   endfacet
   facet normal -8.355240e-001 5.494540e-001 0.000000e+000
      outer loop
         vertex 3.416352e-001 3.825000e+000 1.780000e+001
         vertex 3.416352e-001 3.825000e+000 1.960000e+001
         vertex 5.965868e-001 4.189108e+000 1.960000e+001
      endloop
   endfacet
   facet normal -8.020838e-001 5.972114e-001 0.000000e+000
      outer loop
         vertex 3.416352e-001 3.825000e+000 1.780000e+001
         vertex 5.965868e-001 4.189108e+000 1.960000e+001
         vertex 5.965868e-001 4.189108e+000 1.780000e+001
      endloop
   endfacet
   facet normal -7.274188e-001 6.861938e-001 0.000000e+000
      outer loop
         vertex 5.965868e-001 4.189108e+000 1.780000e+001
         vertex 5.965868e-001 4.189108e+000 1.960000e+001
         vertex 9.108917e-001 4.503413e+000 1.960000e+001
      endloop
   endfacet
   facet normal -6.861938e-001 7.274188e-001 0.000000e+000
      outer loop
         vertex 5.965868e-001 4.189108e+000 1.780000e+001
         vertex 9.108917e-001 4.503413e+000 1.960000e+001
         vertex 9.108917e-001 4.503413e+000 1.780000e+001
      endloop
   endfacet
   facet normal -5.972114e-001 8.020838e-001 0.000000e+000
      outer loop
         vertex 9.108917e-001 4.503413e+000 1.780000e+001
         vertex 9.108917e-001 4.503413e+000 1.960000e+001
         vertex 1.275000e+000 4.758365e+000 1.960000e+001
      endloop
   endfacet
   facet normal -5.494540e-001 8.355240e-001 0.000000e+000
      outer loop
         vertex 9.108917e-001 4.503413e+000 1.780000e+001
         vertex 1.275000e+000 4.758365e+000 1.960000e+001
         vertex 1.275000e+000 4.758365e+000 1.780000e+001
      endloop
   endfacet
   facet normal -4.488580e-001 8.936031e-001 0.000000e+000
      outer loop
         vertex 1.275000e+000 4.758365e+000 1.780000e+001
         vertex 1.275000e+000 4.758365e+000 1.960000e+001
         vertex 1.677849e+000 4.946216e+000 1.960000e+001
      endloop
   endfacet
   facet normal -3.960194e-001 9.182422e-001 0.000000e+000
      outer loop
         vertex 1.275000e+000 4.758365e+000 1.780000e+001
         vertex 1.677849e+000 4.946216e+000 1.960000e+001
         vertex 1.677849e+000 4.946216e+000 1.780000e+001
      endloop
   endfacet
   facet normal -2.868663e-001 9.579706e-001 0.000000e+000
      outer loop
         vertex 1.677849e+000 4.946216e+000 1.780000e+001
         vertex 1.677849e+000 4.946216e+000 1.960000e+001
         vertex 2.107197e+000 5.061260e+000 1.960000e+001
      endloop
   endfacet
   facet normal -2.305518e-001 9.730601e-001 0.000000e+000
      outer loop
         vertex 1.677849e+000 4.946216e+000 1.780000e+001
         vertex 2.107197e+000 5.061260e+000 1.960000e+001
         vertex 2.107197e+000 5.061260e+000 1.780000e+001
      endloop
   endfacet
   facet normal -1.161583e-001 9.932307e-001 0.000000e+000
      outer loop
         vertex 2.107197e+000 5.061260e+000 1.780000e+001
         vertex 2.107197e+000 5.061260e+000 1.960000e+001
         vertex 2.550000e+000 5.100000e+000 1.960000e+001
      endloop
   endfacet
   facet normal -5.807913e-002 9.983119e-001 0.000000e+000
      outer loop
         vertex 2.107197e+000 5.061260e+000 1.780000e+001
         vertex 2.550000e+000 5.100000e+000 1.960000e+001
         vertex 2.550000e+000 5.100000e+000 1.780000e+001
      endloop
   endfacet
   facet normal 5.807913e-002 9.983119e-001 0.000000e+000
      outer loop
         vertex 2.550000e+000 5.100000e+000 1.780000e+001
         vertex 2.550000e+000 5.100000e+000 1.960000e+001
         vertex 2.992803e+000 5.061260e+000 1.960000e+001
      endloop
   endfacet
   facet normal 1.161583e-001 9.932307e-001 0.000000e+000
      outer loop
         vertex 2.550000e+000 5.100000e+000 1.780000e+001
         vertex 2.992803e+000 5.061260e+000 1.960000e+001
         vertex 2.992803e+000 5.061260e+000 1.780000e+001
      endloop
   endfacet
   facet normal 2.305518e-001 9.730601e-001 0.000000e+000
      outer loop
         vertex 2.992803e+000 5.061260e+000 1.780000e+001
         vertex 2.992803e+000 5.061260e+000 1.960000e+001
         vertex 3.422151e+000 4.946216e+000 1.960000e+001
      endloop
   endfacet
   facet normal 2.868663e-001 9.579706e-001 0.000000e+000
      outer loop
         vertex 2.992803e+000 5.061260e+000 1.780000e+001
         vertex 3.422151e+000 4.946216e+000 1.960000e+001
         vertex 3.422151e+000 4.946216e+000 1.780000e+001
      endloop
   endfacet
   facet normal 3.960194e-001 9.182422e-001 0.000000e+000
      outer loop
         vertex 3.422151e+000 4.946216e+000 1.780000e+001
         vertex 3.422151e+000 4.946216e+000 1.960000e+001
         vertex 3.825000e+000 4.758365e+000 1.960000e+001
      endloop
   endfacet
   facet normal 4.488580e-001 8.936031e-001 0.000000e+000
      outer loop
         vertex 3.422151e+000 4.946216e+000 1.780000e+001
         vertex 3.825000e+000 4.758365e+000 1.960000e+001
         vertex 3.825000e+000 4.758365e+000 1.780000e+001
      endloop
   endfacet
   facet normal 5.494540e-001 8.355240e-001 0.000000e+000
      outer loop
         vertex 3.825000e+000 4.758365e+000 1.780000e+001
         vertex 3.825000e+000 4.758365e+000 1.960000e+001
         vertex 4.189108e+000 4.503413e+000 1.960000e+001
      endloop
   endfacet
   facet normal 5.972114e-001 8.020838e-001 0.000000e+000
      outer loop
         vertex 3.825000e+000 4.758365e+000 1.780000e+001
         vertex 4.189108e+000 4.503413e+000 1.960000e+001
         vertex 4.189108e+000 4.503413e+000 1.780000e+001
      endloop
   endfacet
   facet normal 6.861938e-001 7.274188e-001 0.000000e+000
      outer loop
         vertex 4.189108e+000 4.503413e+000 1.780000e+001
         vertex 4.189108e+000 4.503413e+000 1.960000e+001
         vertex 4.503413e+000 4.189108e+000 1.960000e+001
      endloop
   endfacet
   facet normal 7.274188e-001 6.861938e-001 0.000000e+000
      outer loop
         vertex 4.189108e+000 4.503413e+000 1.780000e+001
         vertex 4.503413e+000 4.189108e+000 1.960000e+001
         vertex 4.503413e+000 4.189108e+000 1.780000e+001
      endloop
   endfacet
   facet normal 8.020838e-001 5.972114e-001 0.000000e+000
      outer loop
         vertex 4.503413e+000 4.189108e+000 1.780000e+001
         vertex 4.503413e+000 4.189108e+000 1.960000e+001
         vertex 4.758365e+000 3.825000e+000 1.960000e+001
      endloop
   endfacet
   facet normal 8.355240e-001 5.494540e-001 0.000000e+000
      outer loop
         vertex 4.503413e+000 4.189108e+000 1.780000e+001
         vertex 4.758365e+000 3.825000e+000 1.960000e+001
         vertex 4.758365e+000 3.825000e+000 1.780000e+001
      endloop
   endfacet
   facet normal 8.936031e-001 4.488580e-001 0.000000e+000
      outer loop
         vertex 4.758365e+000 3.825000e+000 1.780000e+001
         vertex 4.758365e+000 3.825000e+000 1.960000e+001
         vertex 4.946216e+000 3.422151e+000 1.960000e+001
      endloop
   endfacet
   facet normal 9.182422e-001 3.960194e-001 0.000000e+000
      outer loop
         vertex 4.758365e+000 3.825000e+000 1.780000e+001
         vertex 4.946216e+000 3.422151e+000 1.960000e+001
         vertex 4.946216e+000 3.422151e+000 1.780000e+001
      endloop
   endfacet
   facet normal 9.579706e-001 2.868663e-001 0.000000e+000
      outer loop
         vertex 4.946216e+000 3.422151e+000 1.780000e+001
         vertex 4.946216e+000 3.422151e+000 1.960000e+001
         vertex 5.061260e+000 2.992803e+000 1.960000e+001
      endloop
   endfacet
   facet normal 9.730601e-001 2.305518e-001 0.000000e+000
      outer loop
         vertex 4.946216e+000 3.422151e+000 1.780000e+001
         vertex 5.061260e+000 2.992803e+000 1.960000e+001
         vertex 5.061260e+000 2.992803e+000 1.780000e+001
      endloop
   endfacet
   facet normal 9.932307e-001 1.161583e-001 0.000000e+000
      outer loop
         vertex 5.061260e+000 2.992803e+000 1.780000e+001
         vertex 5.061260e+000 2.992803e+000 1.960000e+001
         vertex 5.100000e+000 2.550000e+000 1.960000e+001
      endloop
   endfacet
   facet normal 0.000000e+000 0.000000e+000 1.000000e+000
      outer loop
         vertex 4.503413e+000 9.108917e-001 1.960000e+001
         vertex 1.677849e+000 4.946216e+000 1.960000e+001
         vertex 4.189108e+000 5.965868e-001 1.960000e+001
      endloop
   endfacet
   facet normal 0.000000e+000 0.000000e+000 1.000000e+000
      outer loop
         vertex 4.189108e+000 5.965868e-001 1.960000e+001
         vertex 1.677849e+000 4.946216e+000 1.960000e+001
         vertex 3.422151e+000 1.537839e-001 1.960000e+001
      endloop
   endfacet
   facet normal 0.000000e+000 0.000000e+000 1.000000e+000
      outer loop
         vertex 4.189108e+000 5.965868e-001 1.960000e+001
         vertex 3.422151e+000 1.537839e-001 1.960000e+001
         vertex 3.825000e+000 3.416352e-001 1.960000e+001
      endloop
   endfacet
   facet normal 0.000000e+000 0.000000e+000 1.000000e+000
      outer loop
         vertex 5.100000e+000 2.550000e+000 1.960000e+001
         vertex 5.061260e+000 2.992803e+000 1.960000e+001
         vertex 1.677849e+000 4.946216e+000 1.960000e+001
      endloop
   endfacet
   facet normal 0.000000e+000 0.000000e+000 1.000000e+000
      outer loop
         vertex 1.677849e+000 4.946216e+000 1.960000e+001
         vertex 1.275000e+000 4.758365e+000 1.960000e+001
         vertex 3.422151e+000 1.537839e-001 1.960000e+001
      endloop
   endfacet
   facet normal 0.000000e+000 0.000000e+000 1.000000e+000
      outer loop
         vertex 3.422151e+000 1.537839e-001 1.960000e+001
         vertex 1.275000e+000 4.758365e+000 1.960000e+001
         vertex 9.108917e-001 4.503413e+000 1.960000e+001
      endloop
   endfacet
   facet normal 0.000000e+000 0.000000e+000 1.000000e+000
      outer loop
         vertex 3.422151e+000 1.537839e-001 1.960000e+001
         vertex 9.108917e-001 4.503413e+000 1.960000e+001
         vertex 5.965868e-001 4.189108e+000 1.960000e+001
      endloop
   endfacet
   facet normal 0.000000e+000 0.000000e+000 1.000000e+000
      outer loop
         vertex 3.874023e-002 2.992803e+000 1.960000e+001
         vertex 0.000000e+000 2.550000e+000 1.960000e+001
         vertex 1.537839e-001 3.422151e+000 1.960000e+001
      endloop
   endfacet
   facet normal 0.000000e+000 0.000000e+000 1.000000e+000
      outer loop
         vertex 1.537839e-001 3.422151e+000 1.960000e+001
         vertex 0.000000e+000 2.550000e+000 1.960000e+001
         vertex 3.422151e+000 1.537839e-001 1.960000e+001
      endloop
   endfacet
   facet normal 0.000000e+000 0.000000e+000 1.000000e+000
      outer loop
         vertex 1.537839e-001 3.422151e+000 1.960000e+001
         vertex 3.422151e+000 1.537839e-001 1.960000e+001
         vertex 3.416352e-001 3.825000e+000 1.960000e+001
      endloop
   endfacet
   facet normal 0.000000e+000 0.000000e+000 1.000000e+000
      outer loop
         vertex 3.416352e-001 3.825000e+000 1.960000e+001
         vertex 3.422151e+000 1.537839e-001 1.960000e+001
         vertex 5.965868e-001 4.189108e+000 1.960000e+001
      endloop
   endfacet
   facet normal 0.000000e+000 0.000000e+000 1.000000e+000
      outer loop
         vertex 5.061260e+000 2.107197e+000 1.960000e+001
         vertex 5.100000e+000 2.550000e+000 1.960000e+001
         vertex 4.946216e+000 1.677849e+000 1.960000e+001
      endloop
   endfacet
   facet normal 0.000000e+000 0.000000e+000 1.000000e+000
      outer loop
         vertex 4.946216e+000 1.677849e+000 1.960000e+001
         vertex 5.100000e+000 2.550000e+000 1.960000e+001
         vertex 1.677849e+000 4.946216e+000 1.960000e+001
      endloop
   endfacet
   facet normal 0.000000e+000 0.000000e+000 1.000000e+000
      outer loop
         vertex 4.946216e+000 1.677849e+000 1.960000e+001
         vertex 1.677849e+000 4.946216e+000 1.960000e+001
         vertex 4.758365e+000 1.275000e+000 1.960000e+001
      endloop
   endfacet
   facet normal 0.000000e+000 0.000000e+000 1.000000e+000
      outer loop
         vertex 4.758365e+000 1.275000e+000 1.960000e+001
         vertex 1.677849e+000 4.946216e+000 1.960000e+001
         vertex 4.503413e+000 9.108917e-001 1.960000e+001
      endloop
   endfacet
   facet normal 0.000000e+000 0.000000e+000 1.000000e+000
      outer loop
         vertex 4.503413e+000 4.189108e+000 1.960000e+001
         vertex 4.189108e+000 4.503413e+000 1.960000e+001
         vertex 4.758365e+000 3.825000e+000 1.960000e+001
      endloop
   endfacet
   facet normal 0.000000e+000 0.000000e+000 1.000000e+000
      outer loop
         vertex 4.758365e+000 3.825000e+000 1.960000e+001
         vertex 4.189108e+000 4.503413e+000 1.960000e+001
         vertex 1.677849e+000 4.946216e+000 1.960000e+001
      endloop
   endfacet
   facet normal 0.000000e+000 0.000000e+000 1.000000e+000
      outer loop
         vertex 4.758365e+000 3.825000e+000 1.960000e+001
         vertex 1.677849e+000 4.946216e+000 1.960000e+001
         vertex 4.946216e+000 3.422151e+000 1.960000e+001
      endloop
   endfacet
   facet normal 0.000000e+000 0.000000e+000 1.000000e+000
      outer loop
         vertex 4.946216e+000 3.422151e+000 1.960000e+001
         vertex 1.677849e+000 4.946216e+000 1.960000e+001
         vertex 5.061260e+000 2.992803e+000 1.960000e+001
      endloop
   endfacet
   facet normal 0.000000e+000 0.000000e+000 1.000000e+000
      outer loop
         vertex 4.189108e+000 4.503413e+000 1.960000e+001
         vertex 3.825000e+000 4.758365e+000 1.960000e+001
         vertex 1.677849e+000 4.946216e+000 1.960000e+001
      endloop
   endfacet
   facet normal 0.000000e+000 0.000000e+000 1.000000e+000
      outer loop
         vertex 1.677849e+000 4.946216e+000 1.960000e+001
         vertex 3.825000e+000 4.758365e+000 1.960000e+001
         vertex 3.422151e+000 4.946216e+000 1.960000e+001
      endloop
   endfacet
   facet normal 0.000000e+000 0.000000e+000 1.000000e+000
      outer loop
         vertex 1.677849e+000 4.946216e+000 1.960000e+001
         vertex 3.422151e+000 4.946216e+000 1.960000e+001
         vertex 2.107197e+000 5.061260e+000 1.960000e+001
      endloop
   endfacet
   facet normal 0.000000e+000 0.000000e+000 1.000000e+000
      outer loop
         vertex 2.107197e+000 5.061260e+000 1.960000e+001
         vertex 3.422151e+000 4.946216e+000 1.960000e+001
         vertex 2.992803e+000 5.061260e+000 1.960000e+001
      endloop
   endfacet
   facet normal 0.000000e+000 0.000000e+000 1.000000e+000
      outer loop
         vertex 2.107197e+000 5.061260e+000 1.960000e+001
         vertex 2.992803e+000 5.061260e+000 1.960000e+001
         vertex 2.550000e+000 5.100000e+000 1.960000e+001
      endloop
   endfacet
   facet normal 0.000000e+000 0.000000e+000 1.000000e+000
      outer loop
         vertex 5.965868e-001 9.108917e-001 1.960000e+001
         vertex 9.108917e-001 5.965868e-001 1.960000e+001
         vertex 3.422151e+000 1.537839e-001 1.960000e+001
      endloop
   endfacet
   facet normal 0.000000e+000 0.000000e+000 1.000000e+000
      outer loop
         vertex 3.416352e-001 1.275000e+000 1.960000e+001
         vertex 5.965868e-001 9.108917e-001 1.960000e+001
         vertex 1.537839e-001 1.677849e+000 1.960000e+001
      endloop
   endfacet
   facet normal 0.000000e+000 0.000000e+000 1.000000e+000
      outer loop
         vertex 1.537839e-001 1.677849e+000 1.960000e+001
         vertex 5.965868e-001 9.108917e-001 1.960000e+001
         vertex 3.422151e+000 1.537839e-001 1.960000e+001
      endloop
   endfacet
   facet normal 0.000000e+000 0.000000e+000 1.000000e+000
      outer loop
         vertex 1.537839e-001 1.677849e+000 1.960000e+001
         vertex 3.422151e+000 1.537839e-001 1.960000e+001
         vertex 3.874023e-002 2.107197e+000 1.960000e+001
      endloop
   endfacet
   facet normal 0.000000e+000 0.000000e+000 1.000000e+000
      outer loop
         vertex 3.874023e-002 2.107197e+000 1.960000e+001
         vertex 3.422151e+000 1.537839e-001 1.960000e+001
         vertex 0.000000e+000 2.550000e+000 1.960000e+001
      endloop
   endfacet
   facet normal 0.000000e+000 0.000000e+000 1.000000e+000
      outer loop
         vertex 9.108917e-001 5.965868e-001 1.960000e+001
         vertex 1.275000e+000 3.416352e-001 1.960000e+001
         vertex 3.422151e+000 1.537839e-001 1.960000e+001
      endloop
   endfacet
   facet normal 0.000000e+000 0.000000e+000 1.000000e+000
      outer loop
         vertex 3.422151e+000 1.537839e-001 1.960000e+001
         vertex 1.275000e+000 3.416352e-001 1.960000e+001
         vertex 1.677849e+000 1.537839e-001 1.960000e+001
      endloop
   endfacet
   facet normal 0.000000e+000 0.000000e+000 1.000000e+000
      outer loop
         vertex 3.422151e+000 1.537839e-001 1.960000e+001
         vertex 1.677849e+000 1.537839e-001 1.960000e+001
         vertex 2.992803e+000 3.874023e-002 1.960000e+001
      endloop
   endfacet
   facet normal 0.000000e+000 0.000000e+000 1.000000e+000
      outer loop
         vertex 2.992803e+000 3.874023e-002 1.960000e+001
         vertex 1.677849e+000 1.537839e-001 1.960000e+001
         vertex 2.107197e+000 3.874023e-002 1.960000e+001
      endloop
   endfacet
   facet normal 0.000000e+000 0.000000e+000 1.000000e+000
      outer loop
         vertex 2.992803e+000 3.874023e-002 1.960000e+001
         vertex 2.107197e+000 3.874023e-002 1.960000e+001
         vertex 2.550000e+000 0.000000e+000 1.960000e+001
      endloop
   endfacet
endsolid