solid mortorset1
   facet normal 0.000000e+000 -1.000000e+000 0.000000e+000
      outer loop
         vertex 3.117692e+000 2.890000e+001 0.000000e+000
         vertex 8.692691e+000 2.890000e+001 3.500000e+000
         vertex 8.432219e+000 2.890000e+001 3.522789e+000
      endloop
   endfacet
   facet normal 0.000000e+000 -1.000000e+000 0.000000e+000
      outer loop
         vertex 8.432219e+000 2.890000e+001 3.522789e+000
         vertex 8.179661e+000 2.890000e+001 3.590461e+000
         vertex 3.117692e+000 2.890000e+001 0.000000e+000
      endloop
   endfacet
   facet normal 0.000000e+000 -1.000000e+000 0.000000e+000
      outer loop
         vertex 3.117692e+000 2.890000e+001 0.000000e+000
         vertex 8.179661e+000 2.890000e+001 3.590461e+000
         vertex 7.942691e+000 2.890000e+001 3.700962e+000
      endloop
   endfacet
   facet normal 0.000000e+000 -1.000000e+000 0.000000e+000
      outer loop
         vertex 3.117692e+000 2.890000e+001 0.000000e+000
         vertex 7.942691e+000 2.890000e+001 3.700962e+000
         vertex 7.728510e+000 2.890000e+001 3.850933e+000
      endloop
   endfacet
   facet normal 0.000000e+000 -1.000000e+000 0.000000e+000
      outer loop
         vertex 2.380223e+001 2.890000e+001 4.486969e+000
         vertex 2.369173e+001 2.890000e+001 4.250000e+000
         vertex 2.796769e+001 2.890000e+001 0.000000e+000
      endloop
   endfacet
   facet normal 0.000000e+000 -1.000000e+000 0.000000e+000
      outer loop
         vertex 2.796769e+001 2.890000e+001 0.000000e+000
         vertex 2.369173e+001 2.890000e+001 4.250000e+000
         vertex 2.354176e+001 2.890000e+001 4.035819e+000
      endloop
   endfacet
   facet normal 0.000000e+000 -1.000000e+000 0.000000e+000
      outer loop
         vertex 2.796769e+001 2.890000e+001 0.000000e+000
         vertex 2.354176e+001 2.890000e+001 4.035819e+000
         vertex 2.335687e+001 2.890000e+001 3.850933e+000
      endloop
   endfacet
   facet normal 0.000000e+000 -1.000000e+000 0.000000e+000
      outer loop
         vertex 2.335687e+001 2.890000e+001 3.850933e+000
         vertex 2.314269e+001 2.890000e+001 3.700962e+000
         vertex 2.796769e+001 2.890000e+001 0.000000e+000
      endloop
   endfacet
   facet normal 0.000000e+000 -1.000000e+000 0.000000e+000
      outer loop
         vertex 2.796769e+001 2.890000e+001 0.000000e+000
         vertex 2.314269e+001 2.890000e+001 3.700962e+000
         vertex 2.290572e+001 2.890000e+001 3.590461e+000
      endloop
   endfacet
   facet normal 0.000000e+000 -1.000000e+000 0.000000e+000
      outer loop
         vertex 2.796769e+001 2.890000e+001 0.000000e+000
         vertex 2.290572e+001 2.890000e+001 3.590461e+000
         vertex 2.265316e+001 2.890000e+001 3.522789e+000
      endloop
   endfacet
   facet normal 0.000000e+000 -1.000000e+000 0.000000e+000
      outer loop
         vertex 2.109365e+001 2.890000e+001 5.750000e+000
         vertex 2.124362e+001 2.890000e+001 5.964181e+000
         vertex 3.117692e+000 2.890000e+001 1.000000e+001
      endloop
   endfacet
   facet normal 0.000000e+000 -1.000000e+000 0.000000e+000
      outer loop
         vertex 3.117692e+000 2.890000e+001 1.000000e+001
         vertex 2.124362e+001 2.890000e+001 5.964181e+000
         vertex 2.142851e+001 2.890000e+001 6.149066e+000
      endloop
   endfacet
   facet normal 0.000000e+000 -1.000000e+000 0.000000e+000
      outer loop
         vertex 2.314269e+001 2.890000e+001 6.299038e+000
         vertex 2.335687e+001 2.890000e+001 6.149066e+000
         vertex 2.796769e+001 2.890000e+001 1.000000e+001
      endloop
   endfacet
   facet normal 0.000000e+000 -1.000000e+000 0.000000e+000
      outer loop
         vertex 2.335687e+001 2.890000e+001 6.149066e+000
         vertex 2.354176e+001 2.890000e+001 5.964181e+000
         vertex 2.796769e+001 2.890000e+001 1.000000e+001
      endloop
   endfacet
   facet normal 0.000000e+000 -1.000000e+000 0.000000e+000
      outer loop
         vertex 2.796769e+001 2.890000e+001 1.000000e+001
         vertex 2.354176e+001 2.890000e+001 5.964181e+000
         vertex 2.369173e+001 2.890000e+001 5.750000e+000
      endloop
   endfacet
   facet normal 0.000000e+000 -1.000000e+000 0.000000e+000
      outer loop
         vertex 2.796769e+001 2.890000e+001 1.000000e+001
         vertex 2.369173e+001 2.890000e+001 5.750000e+000
         vertex 2.380223e+001 2.890000e+001 5.513030e+000
      endloop
   endfacet
   facet normal 0.000000e+000 -1.000000e+000 0.000000e+000
      outer loop
         vertex 2.265316e+001 2.890000e+001 3.522789e+000
         vertex 2.239269e+001 2.890000e+001 3.500000e+000
         vertex 2.796769e+001 2.890000e+001 0.000000e+000
      endloop
   endfacet
   facet normal 0.000000e+000 -1.000000e+000 0.000000e+000
      outer loop
         vertex 2.796769e+001 2.890000e+001 0.000000e+000
         vertex 2.239269e+001 2.890000e+001 3.500000e+000
         vertex 2.213222e+001 2.890000e+001 3.522789e+000
      endloop
   endfacet
   facet normal 0.000000e+000 -1.000000e+000 0.000000e+000
      outer loop
         vertex 2.796769e+001 2.890000e+001 0.000000e+000
         vertex 2.213222e+001 2.890000e+001 3.522789e+000
         vertex 3.117692e+000 2.890000e+001 0.000000e+000
      endloop
   endfacet
   facet normal 0.000000e+000 -1.000000e+000 0.000000e+000
      outer loop
         vertex 3.117692e+000 2.890000e+001 0.000000e+000
         vertex 2.213222e+001 2.890000e+001 3.522789e+000
         vertex 2.187966e+001 2.890000e+001 3.590461e+000
      endloop
   endfacet
   facet normal 0.000000e+000 -1.000000e+000 0.000000e+000
      outer loop
         vertex 3.117692e+000 2.890000e+001 0.000000e+000
         vertex 2.187966e+001 2.890000e+001 3.590461e+000
         vertex 2.164269e+001 2.890000e+001 3.700962e+000
      endloop
   endfacet
   facet normal 0.000000e+000 -1.000000e+000 0.000000e+000
      outer loop
         vertex 7.283153e+000 2.890000e+001 5.513030e+000
         vertex 7.393653e+000 2.890000e+001 5.750000e+000
         vertex 3.117692e+000 2.890000e+001 1.000000e+001
      endloop
   endfacet
   facet normal 0.000000e+000 -1.000000e+000 0.000000e+000
      outer loop
         vertex 3.117692e+000 2.890000e+001 1.000000e+001
         vertex 7.393653e+000 2.890000e+001 5.750000e+000
         vertex 7.543625e+000 2.890000e+001 5.964181e+000
      endloop
   endfacet
   facet normal 0.000000e+000 -1.000000e+000 0.000000e+000
      outer loop
         vertex 2.239269e+001 2.890000e+001 6.500000e+000
         vertex 2.265316e+001 2.890000e+001 6.477211e+000
         vertex 2.796769e+001 2.890000e+001 1.000000e+001
      endloop
   endfacet
   facet normal 0.000000e+000 -1.000000e+000 0.000000e+000
      outer loop
         vertex 2.796769e+001 2.890000e+001 1.000000e+001
         vertex 2.265316e+001 2.890000e+001 6.477211e+000
         vertex 2.290572e+001 2.890000e+001 6.409539e+000
      endloop
   endfacet
   facet normal 0.000000e+000 -1.000000e+000 0.000000e+000
      outer loop
         vertex 2.796769e+001 2.890000e+001 1.000000e+001
         vertex 2.290572e+001 2.890000e+001 6.409539e+000
         vertex 2.314269e+001 2.890000e+001 6.299038e+000
      endloop
   endfacet
   facet normal 0.000000e+000 -1.000000e+000 0.000000e+000
      outer loop
         vertex 2.380223e+001 2.890000e+001 5.513030e+000
         vertex 2.386990e+001 2.890000e+001 5.260472e+000
         vertex 2.796769e+001 2.890000e+001 1.000000e+001
      endloop
   endfacet
   facet normal 0.000000e+000 -1.000000e+000 0.000000e+000
      outer loop
         vertex 2.796769e+001 2.890000e+001 1.000000e+001
         vertex 2.386990e+001 2.890000e+001 5.260472e+000
         vertex 2.389269e+001 2.890000e+001 5.000000e+000
      endloop
   endfacet
   facet normal 0.000000e+000 -1.000000e+000 0.000000e+000
      outer loop
         vertex 2.796769e+001 2.890000e+001 1.000000e+001
         vertex 2.389269e+001 2.890000e+001 5.000000e+000
         vertex 2.796769e+001 2.890000e+001 0.000000e+000
      endloop
   endfacet
   facet normal 0.000000e+000 -1.000000e+000 0.000000e+000
      outer loop
         vertex 2.796769e+001 2.890000e+001 0.000000e+000
         vertex 2.389269e+001 2.890000e+001 5.000000e+000
         vertex 2.386990e+001 2.890000e+001 4.739528e+000
      endloop
   endfacet
   facet normal 0.000000e+000 -1.000000e+000 0.000000e+000
      outer loop
         vertex 2.796769e+001 2.890000e+001 0.000000e+000
         vertex 2.386990e+001 2.890000e+001 4.739528e+000
         vertex 2.380223e+001 2.890000e+001 4.486969e+000
      endloop
   endfacet
   facet normal 0.000000e+000 -1.000000e+000 0.000000e+000
      outer loop
         vertex 2.142851e+001 2.890000e+001 6.149066e+000
         vertex 2.164269e+001 2.890000e+001 6.299038e+000
         vertex 3.117692e+000 2.890000e+001 1.000000e+001
      endloop
   endfacet
   facet normal 0.000000e+000 -1.000000e+000 0.000000e+000
      outer loop
         vertex 3.117692e+000 2.890000e+001 1.000000e+001
         vertex 2.164269e+001 2.890000e+001 6.299038e+000
         vertex 2.187966e+001 2.890000e+001 6.409539e+000
      endloop
   endfacet
   facet normal 0.000000e+000 -1.000000e+000 0.000000e+000
      outer loop
         vertex 3.117692e+000 2.890000e+001 1.000000e+001
         vertex 2.187966e+001 2.890000e+001 6.409539e+000
         vertex 2.796769e+001 2.890000e+001 1.000000e+001
      endloop
   endfacet
   facet normal 0.000000e+000 -1.000000e+000 0.000000e+000
      outer loop
         vertex 2.796769e+001 2.890000e+001 1.000000e+001
         vertex 2.187966e+001 2.890000e+001 6.409539e+000
         vertex 2.213222e+001 2.890000e+001 6.477211e+000
      endloop
   endfacet
   facet normal 0.000000e+000 -1.000000e+000 0.000000e+000
      outer loop
         vertex 2.796769e+001 2.890000e+001 1.000000e+001
         vertex 2.213222e+001 2.890000e+001 6.477211e+000
         vertex 2.239269e+001 2.890000e+001 6.500000e+000
      endloop
   endfacet
   facet normal 0.000000e+000 -1.000000e+000 0.000000e+000
      outer loop
         vertex 9.442692e+000 2.890000e+001 6.299038e+000
         vertex 9.656873e+000 2.890000e+001 6.149066e+000
         vertex 2.091548e+001 2.890000e+001 5.260472e+000
      endloop
   endfacet
   facet normal 0.000000e+000 -1.000000e+000 0.000000e+000
      outer loop
         vertex 2.091548e+001 2.890000e+001 5.260472e+000
         vertex 9.656873e+000 2.890000e+001 6.149066e+000
         vertex 9.841759e+000 2.890000e+001 5.964181e+000
      endloop
   endfacet
   facet normal 0.000000e+000 -1.000000e+000 0.000000e+000
      outer loop
         vertex 2.091548e+001 2.890000e+001 5.260472e+000
         vertex 9.841759e+000 2.890000e+001 5.964181e+000
         vertex 9.991730e+000 2.890000e+001 5.750000e+000
      endloop
   endfacet
   facet normal 0.000000e+000 -1.000000e+000 0.000000e+000
      outer loop
         vertex 9.991730e+000 2.890000e+001 4.250000e+000
         vertex 9.841759e+000 2.890000e+001 4.035819e+000
         vertex 2.164269e+001 2.890000e+001 3.700962e+000
      endloop
   endfacet
   facet normal 0.000000e+000 -1.000000e+000 0.000000e+000
      outer loop
         vertex 2.164269e+001 2.890000e+001 3.700962e+000
         vertex 9.841759e+000 2.890000e+001 4.035819e+000
         vertex 9.656873e+000 2.890000e+001 3.850933e+000
      endloop
   endfacet
   facet normal 0.000000e+000 -1.000000e+000 0.000000e+000
      outer loop
         vertex 7.543625e+000 2.890000e+001 5.964181e+000
         vertex 7.728510e+000 2.890000e+001 6.149066e+000
         vertex 3.117692e+000 2.890000e+001 1.000000e+001
      endloop
   endfacet
   facet normal 0.000000e+000 -1.000000e+000 0.000000e+000
      outer loop
         vertex 3.117692e+000 2.890000e+001 1.000000e+001
         vertex 7.728510e+000 2.890000e+001 6.149066e+000
         vertex 7.942691e+000 2.890000e+001 6.299038e+000
      endloop
   endfacet
   facet normal 0.000000e+000 -1.000000e+000 0.000000e+000
      outer loop
         vertex 3.117692e+000 2.890000e+001 1.000000e+001
         vertex 7.942691e+000 2.890000e+001 6.299038e+000
         vertex 8.179661e+000 2.890000e+001 6.409539e+000
      endloop
   endfacet
   facet normal 0.000000e+000 -1.000000e+000 0.000000e+000
      outer loop
         vertex 9.991730e+000 2.890000e+001 4.250000e+000
         vertex 2.164269e+001 2.890000e+001 3.700962e+000
         vertex 1.010223e+001 2.890000e+001 4.486969e+000
      endloop
   endfacet
   facet normal 0.000000e+000 -1.000000e+000 0.000000e+000
      outer loop
         vertex 1.010223e+001 2.890000e+001 4.486969e+000
         vertex 2.164269e+001 2.890000e+001 3.700962e+000
         vertex 2.142851e+001 2.890000e+001 3.850933e+000
      endloop
   endfacet
   facet normal 0.000000e+000 -1.000000e+000 0.000000e+000
      outer loop
         vertex 1.010223e+001 2.890000e+001 4.486969e+000
         vertex 2.142851e+001 2.890000e+001 3.850933e+000
         vertex 2.124362e+001 2.890000e+001 4.035819e+000
      endloop
   endfacet
   facet normal 0.000000e+000 -1.000000e+000 0.000000e+000
      outer loop
         vertex 2.124362e+001 2.890000e+001 4.035819e+000
         vertex 2.109365e+001 2.890000e+001 4.250000e+000
         vertex 1.010223e+001 2.890000e+001 4.486969e+000
      endloop
   endfacet
   facet normal 0.000000e+000 -1.000000e+000 0.000000e+000
      outer loop
         vertex 1.010223e+001 2.890000e+001 4.486969e+000
         vertex 2.109365e+001 2.890000e+001 4.250000e+000
         vertex 2.098315e+001 2.890000e+001 4.486969e+000
      endloop
   endfacet
   facet normal 0.000000e+000 -1.000000e+000 0.000000e+000
      outer loop
         vertex 1.010223e+001 2.890000e+001 4.486969e+000
         vertex 2.098315e+001 2.890000e+001 4.486969e+000
         vertex 2.091548e+001 2.890000e+001 4.739528e+000
      endloop
   endfacet
   facet normal 0.000000e+000 -1.000000e+000 0.000000e+000
      outer loop
         vertex 9.656873e+000 2.890000e+001 3.850933e+000
         vertex 9.442692e+000 2.890000e+001 3.700962e+000
         vertex 2.164269e+001 2.890000e+001 3.700962e+000
      endloop
   endfacet
   facet normal 0.000000e+000 -1.000000e+000 0.000000e+000
      outer loop
         vertex 2.164269e+001 2.890000e+001 3.700962e+000
         vertex 9.442692e+000 2.890000e+001 3.700962e+000
         vertex 9.205721e+000 2.890000e+001 3.590461e+000
      endloop
   endfacet
   facet normal 0.000000e+000 -1.000000e+000 0.000000e+000
      outer loop
         vertex 2.164269e+001 2.890000e+001 3.700962e+000
         vertex 9.205721e+000 2.890000e+001 3.590461e+000
         vertex 3.117692e+000 2.890000e+001 0.000000e+000
      endloop
   endfacet
   facet normal 0.000000e+000 -1.000000e+000 0.000000e+000
      outer loop
         vertex 3.117692e+000 2.890000e+001 0.000000e+000
         vertex 9.205721e+000 2.890000e+001 3.590461e+000
         vertex 8.953163e+000 2.890000e+001 3.522789e+000
      endloop
   endfacet
   facet normal 0.000000e+000 -1.000000e+000 0.000000e+000
      outer loop
         vertex 3.117692e+000 2.890000e+001 0.000000e+000
         vertex 8.953163e+000 2.890000e+001 3.522789e+000
         vertex 8.692691e+000 2.890000e+001 3.500000e+000
      endloop
   endfacet
   facet normal 0.000000e+000 -1.000000e+000 0.000000e+000
      outer loop
         vertex 7.728510e+000 2.890000e+001 3.850933e+000
         vertex 7.543625e+000 2.890000e+001 4.035819e+000
         vertex 3.117692e+000 2.890000e+001 0.000000e+000
      endloop
   endfacet
   facet normal 0.000000e+000 -1.000000e+000 0.000000e+000
      outer loop
         vertex 3.117692e+000 2.890000e+001 0.000000e+000
         vertex 7.543625e+000 2.890000e+001 4.035819e+000
         vertex 7.393653e+000 2.890000e+001 4.250000e+000
      endloop
   endfacet
   facet normal 0.000000e+000 -1.000000e+000 0.000000e+000
      outer loop
         vertex 3.117692e+000 2.890000e+001 0.000000e+000
         vertex 7.393653e+000 2.890000e+001 4.250000e+000
         vertex 7.283153e+000 2.890000e+001 4.486969e+000
      endloop
   endfacet
   facet normal 0.000000e+000 -1.000000e+000 0.000000e+000
      outer loop
         vertex 7.283153e+000 2.890000e+001 4.486969e+000
         vertex 7.215480e+000 2.890000e+001 4.739528e+000
         vertex 3.117692e+000 2.890000e+001 0.000000e+000
      endloop
   endfacet
   facet normal 0.000000e+000 -1.000000e+000 0.000000e+000
      outer loop
         vertex 3.117692e+000 2.890000e+001 0.000000e+000
         vertex 7.215480e+000 2.890000e+001 4.739528e+000
         vertex 7.192692e+000 2.890000e+001 5.000000e+000
      endloop
   endfacet
   facet normal 0.000000e+000 -1.000000e+000 0.000000e+000
      outer loop
         vertex 3.117692e+000 2.890000e+001 0.000000e+000
         vertex 7.192692e+000 2.890000e+001 5.000000e+000
         vertex 3.117692e+000 2.890000e+001 1.000000e+001
      endloop
   endfacet
   facet normal 0.000000e+000 -1.000000e+000 0.000000e+000
      outer loop
         vertex 3.117692e+000 2.890000e+001 1.000000e+001
         vertex 7.192692e+000 2.890000e+001 5.000000e+000
         vertex 7.215480e+000 2.890000e+001 5.260472e+000
      endloop
   endfacet
   facet normal 0.000000e+000 -1.000000e+000 0.000000e+000
      outer loop
         vertex 3.117692e+000 2.890000e+001 1.000000e+001
         vertex 7.215480e+000 2.890000e+001 5.260472e+000
         vertex 7.283153e+000 2.890000e+001 5.513030e+000
      endloop
   endfacet
   facet normal 0.000000e+000 -1.000000e+000 0.000000e+000
      outer loop
         vertex 8.179661e+000 2.890000e+001 6.409539e+000
         vertex 8.432219e+000 2.890000e+001 6.477211e+000
         vertex 3.117692e+000 2.890000e+001 1.000000e+001
      endloop
   endfacet
   facet normal 0.000000e+000 -1.000000e+000 0.000000e+000
      outer loop
         vertex 3.117692e+000 2.890000e+001 1.000000e+001
         vertex 8.432219e+000 2.890000e+001 6.477211e+000
         vertex 8.692691e+000 2.890000e+001 6.500000e+000
      endloop
   endfacet
   facet normal 0.000000e+000 -1.000000e+000 0.000000e+000
      outer loop
         vertex 3.117692e+000 2.890000e+001 1.000000e+001
         vertex 8.692691e+000 2.890000e+001 6.500000e+000
         vertex 8.953163e+000 2.890000e+001 6.477211e+000
      endloop
   endfacet
   facet normal 0.000000e+000 -1.000000e+000 0.000000e+000
      outer loop
         vertex 9.991730e+000 2.890000e+001 5.750000e+000
         vertex 1.010223e+001 2.890000e+001 5.513030e+000
         vertex 2.091548e+001 2.890000e+001 5.260472e+000
      endloop
   endfacet
   facet normal 0.000000e+000 -1.000000e+000 0.000000e+000
      outer loop
         vertex 2.091548e+001 2.890000e+001 5.260472e+000
         vertex 1.010223e+001 2.890000e+001 5.513030e+000
         vertex 1.016990e+001 2.890000e+001 5.260472e+000
      endloop
   endfacet
   facet normal 0.000000e+000 -1.000000e+000 0.000000e+000
      outer loop
         vertex 2.091548e+001 2.890000e+001 5.260472e+000
         vertex 1.016990e+001 2.890000e+001 5.260472e+000
         vertex 2.089269e+001 2.890000e+001 5.000000e+000
      endloop
   endfacet
   facet normal 0.000000e+000 -1.000000e+000 0.000000e+000
      outer loop
         vertex 2.089269e+001 2.890000e+001 5.000000e+000
         vertex 1.016990e+001 2.890000e+001 5.260472e+000
         vertex 1.019269e+001 2.890000e+001 5.000000e+000
      endloop
   endfacet
   facet normal 0.000000e+000 -1.000000e+000 0.000000e+000
      outer loop
         vertex 2.089269e+001 2.890000e+001 5.000000e+000
         vertex 1.019269e+001 2.890000e+001 5.000000e+000
         vertex 2.091548e+001 2.890000e+001 4.739528e+000
      endloop
   endfacet
   facet normal 0.000000e+000 -1.000000e+000 0.000000e+000
      outer loop
         vertex 2.091548e+001 2.890000e+001 4.739528e+000
         vertex 1.019269e+001 2.890000e+001 5.000000e+000
         vertex 1.016990e+001 2.890000e+001 4.739528e+000
      endloop
   endfacet
   facet normal 0.000000e+000 -1.000000e+000 0.000000e+000
      outer loop
         vertex 2.091548e+001 2.890000e+001 4.739528e+000
         vertex 1.016990e+001 2.890000e+001 4.739528e+000
         vertex 1.010223e+001 2.890000e+001 4.486969e+000
      endloop
   endfacet
   facet normal 0.000000e+000 -1.000000e+000 0.000000e+000
      outer loop
         vertex 2.109365e+001 2.890000e+001 5.750000e+000
         vertex 3.117692e+000 2.890000e+001 1.000000e+001
         vertex 2.098315e+001 2.890000e+001 5.513030e+000
      endloop
   endfacet
   facet normal 0.000000e+000 -1.000000e+000 0.000000e+000
      outer loop
         vertex 2.098315e+001 2.890000e+001 5.513030e+000
         vertex 3.117692e+000 2.890000e+001 1.000000e+001
         vertex 8.953163e+000 2.890000e+001 6.477211e+000
      endloop
   endfacet
   facet normal 0.000000e+000 -1.000000e+000 0.000000e+000
      outer loop
         vertex 2.098315e+001 2.890000e+001 5.513030e+000
         vertex 8.953163e+000 2.890000e+001 6.477211e+000
         vertex 2.091548e+001 2.890000e+001 5.260472e+000
      endloop
   endfacet
   facet normal 0.000000e+000 -1.000000e+000 0.000000e+000
      outer loop
         vertex 2.091548e+001 2.890000e+001 5.260472e+000
         vertex 8.953163e+000 2.890000e+001 6.477211e+000
         vertex 9.205721e+000 2.890000e+001 6.409539e+000
      endloop
   endfacet
   facet normal 0.000000e+000 -1.000000e+000 0.000000e+000
      outer loop
         vertex 2.091548e+001 2.890000e+001 5.260472e+000
         vertex 9.205721e+000 2.890000e+001 6.409539e+000
         vertex 9.442692e+000 2.890000e+001 6.299038e+000
      endloop
   endfacet
   facet normal -1.000000e+000 1.387779e-016 0.000000e+000
      outer loop
         vertex 1.617692e+000 5.400000e+000 1.000000e+001
         vertex 1.617692e+000 3.040000e+001 1.000000e+001
         vertex 1.617692e+000 5.400000e+000 0.000000e+000
      endloop
   endfacet
   facet normal -1.000000e+000 1.387779e-016 0.000000e+000
      outer loop
         vertex 1.617692e+000 5.400000e+000 0.000000e+000
         vertex 1.617692e+000 3.040000e+001 1.000000e+001
         vertex 1.617692e+000 3.040000e+001 0.000000e+000
      endloop
   endfacet
   facet normal -2.144690e-015 1.000000e+000 0.000000e+000
      outer loop
         vertex 0.000000e+000 5.400000e+000 1.000000e+001
         vertex 1.617692e+000 5.400000e+000 1.000000e+001
         vertex 0.000000e+000 5.400000e+000 0.000000e+000
      endloop
   endfacet
   facet normal -2.144690e-015 1.000000e+000 0.000000e+000
      outer loop
         vertex 0.000000e+000 5.400000e+000 0.000000e+000
         vertex 1.617692e+000 5.400000e+000 1.000000e+001
         vertex 1.617692e+000 5.400000e+000 0.000000e+000
      endloop
   endfacet
   facet normal -8.660254e-001 -5.000000e-001 0.000000e+000
      outer loop
         vertex 3.117692e+000 0.000000e+000 1.000000e+001
         vertex 0.000000e+000 5.400000e+000 1.000000e+001
         vertex 3.117692e+000 0.000000e+000 -3.469447e-015
      endloop
   endfacet
   facet normal -8.660254e-001 -5.000000e-001 0.000000e+000
      outer loop
         vertex 3.117692e+000 0.000000e+000 -3.469447e-015
         vertex 0.000000e+000 5.400000e+000 1.000000e+001
         vertex 0.000000e+000 5.400000e+000 -3.469447e-015
      endloop
   endfacet
   facet normal 1.000000e+000 0.000000e+000 0.000000e+000
      outer loop
         vertex 3.117692e+000 2.890000e+001 1.000000e+001
         vertex 3.117692e+000 0.000000e+000 1.000000e+001
         vertex 3.117692e+000 2.890000e+001 0.000000e+000
      endloop
   endfacet
   facet normal 1.000000e+000 0.000000e+000 0.000000e+000
      outer loop
         vertex 3.117692e+000 2.890000e+001 0.000000e+000
         vertex 3.117692e+000 0.000000e+000 1.000000e+001
         vertex 3.117692e+000 0.000000e+000 0.000000e+000
      endloop
   endfacet
   facet normal -1.000000e+000 0.000000e+000 0.000000e+000
      outer loop
         vertex 2.796769e+001 0.000000e+000 1.000000e+001
         vertex 2.796769e+001 2.890000e+001 1.000000e+001
         vertex 2.796769e+001 0.000000e+000 0.000000e+000
      endloop
   endfacet
   facet normal -1.000000e+000 0.000000e+000 0.000000e+000
      outer loop
         vertex 2.796769e+001 0.000000e+000 0.000000e+000
         vertex 2.796769e+001 2.890000e+001 1.000000e+001
         vertex 2.796769e+001 2.890000e+001 0.000000e+000
      endloop
   endfacet
   facet normal 8.660254e-001 -5.000000e-001 0.000000e+000
      outer loop
         vertex 3.108538e+001 5.400000e+000 1.000000e+001
         vertex 2.796769e+001 0.000000e+000 1.000000e+001
         vertex 3.108538e+001 5.400000e+000 -3.469447e-015
      endloop
   endfacet
   facet normal 8.660254e-001 -5.000000e-001 0.000000e+000
      outer loop
         vertex 3.108538e+001 5.400000e+000 -3.469447e-015
         vertex 2.796769e+001 0.000000e+000 1.000000e+001
         vertex 2.796769e+001 0.000000e+000 -3.469447e-015
      endloop
   endfacet
   facet normal 2.144690e-015 1.000000e+000 0.000000e+000
      outer loop
         vertex 2.946769e+001 5.400000e+000 1.000000e+001
         vertex 3.108538e+001 5.400000e+000 1.000000e+001
         vertex 2.946769e+001 5.400000e+000 0.000000e+000
      endloop
   endfacet
   facet normal 2.144690e-015 1.000000e+000 0.000000e+000
      outer loop
         vertex 2.946769e+001 5.400000e+000 0.000000e+000
         vertex 3.108538e+001 5.400000e+000 1.000000e+001
         vertex 3.108538e+001 5.400000e+000 0.000000e+000
      endloop
   endfacet
   facet normal 1.000000e+000 1.387779e-016 0.000000e+000
      outer loop
         vertex 2.946769e+001 3.040000e+001 1.000000e+001
         vertex 2.946769e+001 5.400000e+000 1.000000e+001
         vertex 2.946769e+001 3.040000e+001 0.000000e+000
      endloop
   endfacet
   facet normal 1.000000e+000 1.387779e-016 0.000000e+000
      outer loop
         vertex 2.946769e+001 3.040000e+001 0.000000e+000
         vertex 2.946769e+001 5.400000e+000 1.000000e+001
         vertex 2.946769e+001 5.400000e+000 0.000000e+000
      endloop
   endfacet
   facet normal 0.000000e+000 1.000000e+000 0.000000e+000
      outer loop
         vertex 1.617692e+000 3.040000e+001 1.000000e+001
         vertex 2.946769e+001 3.040000e+001 1.000000e+001
         vertex 1.617692e+000 3.040000e+001 0.000000e+000
      endloop
   endfacet
   facet normal 0.000000e+000 1.000000e+000 0.000000e+000
      outer loop
         vertex 1.617692e+000 3.040000e+001 0.000000e+000
         vertex 2.946769e+001 3.040000e+001 1.000000e+001
         vertex 2.946769e+001 3.040000e+001 0.000000e+000
      endloop
   endfacet
   facet normal 0.000000e+000 0.000000e+000 1.000000e+000
      outer loop
         vertex 1.617692e+000 5.400000e+000 1.000000e+001
         vertex 0.000000e+000 5.400000e+000 1.000000e+001
         vertex 3.117692e+000 0.000000e+000 1.000000e+001
      endloop
   endfacet
   facet normal 0.000000e+000 0.000000e+000 1.000000e+000
      outer loop
         vertex 1.617692e+000 5.400000e+000 1.000000e+001
         vertex 3.117692e+000 0.000000e+000 1.000000e+001
         vertex 1.617692e+000 3.040000e+001 1.000000e+001
      endloop
   endfacet
   facet normal 0.000000e+000 0.000000e+000 1.000000e+000
      outer loop
         vertex 1.617692e+000 3.040000e+001 1.000000e+001
         vertex 3.117692e+000 0.000000e+000 1.000000e+001
         vertex 3.117692e+000 2.890000e+001 1.000000e+001
      endloop
   endfacet
   facet normal 0.000000e+000 0.000000e+000 1.000000e+000
      outer loop
         vertex 1.617692e+000 3.040000e+001 1.000000e+001
         vertex 3.117692e+000 2.890000e+001 1.000000e+001
         vertex 2.946769e+001 3.040000e+001 1.000000e+001
      endloop
   endfacet
   facet normal 0.000000e+000 0.000000e+000 1.000000e+000
      outer loop
         vertex 2.946769e+001 3.040000e+001 1.000000e+001
         vertex 3.117692e+000 2.890000e+001 1.000000e+001
         vertex 2.796769e+001 2.890000e+001 1.000000e+001
      endloop
   endfacet
   facet normal 0.000000e+000 0.000000e+000 1.000000e+000
      outer loop
         vertex 2.946769e+001 3.040000e+001 1.000000e+001
         vertex 2.796769e+001 2.890000e+001 1.000000e+001
         vertex 2.946769e+001 5.400000e+000 1.000000e+001
      endloop
   endfacet
   facet normal 0.000000e+000 0.000000e+000 1.000000e+000
      outer loop
         vertex 2.946769e+001 5.400000e+000 1.000000e+001
         vertex 2.796769e+001 2.890000e+001 1.000000e+001
         vertex 2.796769e+001 0.000000e+000 1.000000e+001
      endloop
   endfacet
   facet normal 0.000000e+000 0.000000e+000 1.000000e+000
      outer loop
         vertex 2.946769e+001 5.400000e+000 1.000000e+001
         vertex 2.796769e+001 0.000000e+000 1.000000e+001
         vertex 3.108538e+001 5.400000e+000 1.000000e+001
      endloop
   endfacet
   facet normal 0.000000e+000 0.000000e+000 -1.000000e+000
      outer loop
         vertex 2.946769e+001 5.400000e+000 0.000000e+000
         vertex 3.108538e+001 5.400000e+000 0.000000e+000
         vertex 2.796769e+001 0.000000e+000 0.000000e+000
      endloop
   endfacet
   facet normal 0.000000e+000 0.000000e+000 -1.000000e+000
      outer loop
         vertex 2.946769e+001 5.400000e+000 0.000000e+000
         vertex 2.796769e+001 0.000000e+000 0.000000e+000
         vertex 2.946769e+001 3.040000e+001 0.000000e+000
      endloop
   endfacet
   facet normal 0.000000e+000 0.000000e+000 -1.000000e+000
      outer loop
         vertex 2.946769e+001 3.040000e+001 0.000000e+000
         vertex 2.796769e+001 0.000000e+000 0.000000e+000
         vertex 2.796769e+001 2.890000e+001 0.000000e+000
      endloop
   endfacet
   facet normal 0.000000e+000 0.000000e+000 -1.000000e+000
      outer loop
         vertex 2.946769e+001 3.040000e+001 0.000000e+000
         vertex 2.796769e+001 2.890000e+001 0.000000e+000
         vertex 1.617692e+000 3.040000e+001 0.000000e+000
      endloop
   endfacet
   facet normal 0.000000e+000 0.000000e+000 -1.000000e+000
      outer loop
         vertex 1.617692e+000 3.040000e+001 0.000000e+000
         vertex 2.796769e+001 2.890000e+001 0.000000e+000
         vertex 3.117692e+000 2.890000e+001 0.000000e+000
      endloop
   endfacet
   facet normal 0.000000e+000 0.000000e+000 -1.000000e+000
      outer loop
         vertex 1.617692e+000 3.040000e+001 0.000000e+000
         vertex 3.117692e+000 2.890000e+001 0.000000e+000
         vertex 1.617692e+000 5.400000e+000 0.000000e+000
      endloop
   endfacet
   facet normal 0.000000e+000 0.000000e+000 -1.000000e+000
      outer loop
         vertex 1.617692e+000 5.400000e+000 0.000000e+000
         vertex 3.117692e+000 2.890000e+001 0.000000e+000
         vertex 3.117692e+000 0.000000e+000 0.000000e+000
      endloop
   endfacet
   facet normal 0.000000e+000 0.000000e+000 -1.000000e+000
      outer loop
         vertex 1.617692e+000 5.400000e+000 0.000000e+000
         vertex 3.117692e+000 0.000000e+000 0.000000e+000
         vertex 0.000000e+000 5.400000e+000 0.000000e+000
      endloop
   endfacet
   facet normal 5.807913e-002 0.000000e+000 9.983119e-001
      outer loop
         vertex 8.953163e+000 2.540000e+001 6.477211e+000
         vertex 8.692691e+000 2.890000e+001 6.500000e+000
         vertex 8.692691e+000 2.540000e+001 6.500000e+000
      endloop
   endfacet
   facet normal -5.807913e-002 0.000000e+000 9.983119e-001
      outer loop
         vertex 8.692691e+000 2.540000e+001 6.500000e+000
         vertex 8.692691e+000 2.890000e+001 6.500000e+000
         vertex 8.432219e+000 2.890000e+001 6.477211e+000
      endloop
   endfacet
   facet normal -1.161583e-001 0.000000e+000 9.932307e-001
      outer loop
         vertex 8.692691e+000 2.540000e+001 6.500000e+000
         vertex 8.432219e+000 2.890000e+001 6.477211e+000
         vertex 8.432219e+000 2.540000e+001 6.477211e+000
      endloop
   endfacet
   facet normal -2.305518e-001 0.000000e+000 9.730601e-001
      outer loop
         vertex 8.432219e+000 2.540000e+001 6.477211e+000
         vertex 8.432219e+000 2.890000e+001 6.477211e+000
         vertex 8.179661e+000 2.890000e+001 6.409539e+000
      endloop
   endfacet
   facet normal -2.868663e-001 0.000000e+000 9.579706e-001
      outer loop
         vertex 8.432219e+000 2.540000e+001 6.477211e+000
         vertex 8.179661e+000 2.890000e+001 6.409539e+000
         vertex 8.179661e+000 2.540000e+001 6.409539e+000
      endloop
   endfacet
   facet normal -3.960194e-001 0.000000e+000 9.182422e-001
      outer loop
         vertex 8.179661e+000 2.540000e+001 6.409539e+000
         vertex 8.179661e+000 2.890000e+001 6.409539e+000
         vertex 7.942691e+000 2.890000e+001 6.299038e+000
      endloop
   endfacet
   facet normal -4.488580e-001 0.000000e+000 8.936031e-001
      outer loop
         vertex 8.179661e+000 2.540000e+001 6.409539e+000
         vertex 7.942691e+000 2.890000e+001 6.299038e+000
         vertex 7.942691e+000 2.540000e+001 6.299038e+000
      endloop
   endfacet
   facet normal -5.494540e-001 0.000000e+000 8.355240e-001
      outer loop
         vertex 7.942691e+000 2.540000e+001 6.299038e+000
         vertex 7.942691e+000 2.890000e+001 6.299038e+000
         vertex 7.728510e+000 2.890000e+001 6.149066e+000
      endloop
   endfacet
   facet normal -5.972114e-001 0.000000e+000 8.020838e-001
      outer loop
         vertex 7.942691e+000 2.540000e+001 6.299038e+000
         vertex 7.728510e+000 2.890000e+001 6.149066e+000
         vertex 7.728510e+000 2.540000e+001 6.149066e+000
      endloop
   endfacet
   facet normal -6.861938e-001 0.000000e+000 7.274188e-001
      outer loop
         vertex 7.728510e+000 2.540000e+001 6.149066e+000
         vertex 7.728510e+000 2.890000e+001 6.149066e+000
         vertex 7.543625e+000 2.890000e+001 5.964181e+000
      endloop
   endfacet
   facet normal -7.274188e-001 0.000000e+000 6.861938e-001
      outer loop
         vertex 7.728510e+000 2.540000e+001 6.149066e+000
         vertex 7.543625e+000 2.890000e+001 5.964181e+000
         vertex 7.543625e+000 2.540000e+001 5.964181e+000
      endloop
   endfacet
   facet normal -8.020838e-001 0.000000e+000 5.972114e-001
      outer loop
         vertex 7.543625e+000 2.540000e+001 5.964181e+000
         vertex 7.543625e+000 2.890000e+001 5.964181e+000
         vertex 7.393653e+000 2.890000e+001 5.750000e+000
      endloop
   endfacet
   facet normal -8.355240e-001 0.000000e+000 5.494540e-001
      outer loop
         vertex 7.543625e+000 2.540000e+001 5.964181e+000
         vertex 7.393653e+000 2.890000e+001 5.750000e+000
         vertex 7.393653e+000 2.540000e+001 5.750000e+000
      endloop
   endfacet
   facet normal -8.936031e-001 0.000000e+000 4.488580e-001
      outer loop
         vertex 7.393653e+000 2.540000e+001 5.750000e+000
         vertex 7.393653e+000 2.890000e+001 5.750000e+000
         vertex 7.283153e+000 2.890000e+001 5.513030e+000
      endloop
   endfacet
   facet normal -9.182422e-001 0.000000e+000 3.960194e-001
      outer loop
         vertex 7.393653e+000 2.540000e+001 5.750000e+000
         vertex 7.283153e+000 2.890000e+001 5.513030e+000
         vertex 7.283153e+000 2.540000e+001 5.513030e+000
      endloop
   endfacet
   facet normal -9.579706e-001 0.000000e+000 2.868663e-001
      outer loop
         vertex 7.283153e+000 2.540000e+001 5.513030e+000
         vertex 7.283153e+000 2.890000e+001 5.513030e+000
         vertex 7.215480e+000 2.890000e+001 5.260472e+000
      endloop
   endfacet
   facet normal -9.730601e-001 0.000000e+000 2.305518e-001
      outer loop
         vertex 7.283153e+000 2.540000e+001 5.513030e+000
         vertex 7.215480e+000 2.890000e+001 5.260472e+000
         vertex 7.215480e+000 2.540000e+001 5.260472e+000
      endloop
   endfacet
   facet normal -9.932307e-001 0.000000e+000 1.161583e-001
      outer loop
         vertex 7.215480e+000 2.540000e+001 5.260472e+000
         vertex 7.215480e+000 2.890000e+001 5.260472e+000
         vertex 7.192692e+000 2.890000e+001 5.000000e+000
      endloop
   endfacet
   facet normal -9.983119e-001 0.000000e+000 5.807913e-002
      outer loop
         vertex 7.215480e+000 2.540000e+001 5.260472e+000
         vertex 7.192692e+000 2.890000e+001 5.000000e+000
         vertex 7.192692e+000 2.540000e+001 5.000000e+000
      endloop
   endfacet
   facet normal -9.983119e-001 0.000000e+000 -5.807913e-002
      outer loop
         vertex 7.192692e+000 2.540000e+001 5.000000e+000
         vertex 7.192692e+000 2.890000e+001 5.000000e+000
         vertex 7.215480e+000 2.890000e+001 4.739528e+000
      endloop
   endfacet
   facet normal -9.932307e-001 0.000000e+000 -1.161583e-001
      outer loop
         vertex 7.192692e+000 2.540000e+001 5.000000e+000
         vertex 7.215480e+000 2.890000e+001 4.739528e+000
         vertex 7.215480e+000 2.540000e+001 4.739528e+000
      endloop
   endfacet
   facet normal -9.730601e-001 0.000000e+000 -2.305518e-001
      outer loop
         vertex 7.215480e+000 2.540000e+001 4.739528e+000
         vertex 7.215480e+000 2.890000e+001 4.739528e+000
         vertex 7.283153e+000 2.890000e+001 4.486969e+000
      endloop
   endfacet
   facet normal -9.579706e-001 0.000000e+000 -2.868663e-001
      outer loop
         vertex 7.215480e+000 2.540000e+001 4.739528e+000
         vertex 7.283153e+000 2.890000e+001 4.486969e+000
         vertex 7.283153e+000 2.540000e+001 4.486969e+000
      endloop
   endfacet
   facet normal -9.182422e-001 0.000000e+000 -3.960194e-001
      outer loop
         vertex 7.283153e+000 2.540000e+001 4.486969e+000
         vertex 7.283153e+000 2.890000e+001 4.486969e+000
         vertex 7.393653e+000 2.890000e+001 4.250000e+000
      endloop
   endfacet
   facet normal -8.936031e-001 0.000000e+000 -4.488580e-001
      outer loop
         vertex 7.283153e+000 2.540000e+001 4.486969e+000
         vertex 7.393653e+000 2.890000e+001 4.250000e+000
         vertex 7.393653e+000 2.540000e+001 4.250000e+000
      endloop
   endfacet
   facet normal -8.355240e-001 0.000000e+000 -5.494540e-001
      outer loop
         vertex 7.393653e+000 2.540000e+001 4.250000e+000
         vertex 7.393653e+000 2.890000e+001 4.250000e+000
         vertex 7.543625e+000 2.890000e+001 4.035819e+000
      endloop
   endfacet
   facet normal -8.020838e-001 0.000000e+000 -5.972114e-001
      outer loop
         vertex 7.393653e+000 2.540000e+001 4.250000e+000
         vertex 7.543625e+000 2.890000e+001 4.035819e+000
         vertex 7.543625e+000 2.540000e+001 4.035819e+000
      endloop
   endfacet
   facet normal -7.274188e-001 0.000000e+000 -6.861938e-001
      outer loop
         vertex 7.543625e+000 2.540000e+001 4.035819e+000
         vertex 7.543625e+000 2.890000e+001 4.035819e+000
         vertex 7.728510e+000 2.890000e+001 3.850933e+000
      endloop
   endfacet
   facet normal -6.861938e-001 0.000000e+000 -7.274188e-001
      outer loop
         vertex 7.543625e+000 2.540000e+001 4.035819e+000
         vertex 7.728510e+000 2.890000e+001 3.850933e+000
         vertex 7.728510e+000 2.540000e+001 3.850933e+000
      endloop
   endfacet
   facet normal -5.972114e-001 0.000000e+000 -8.020838e-001
      outer loop
         vertex 7.728510e+000 2.540000e+001 3.850933e+000
         vertex 7.728510e+000 2.890000e+001 3.850933e+000
         vertex 7.942691e+000 2.890000e+001 3.700962e+000
      endloop
   endfacet
   facet normal -5.494540e-001 0.000000e+000 -8.355240e-001
      outer loop
         vertex 7.728510e+000 2.540000e+001 3.850933e+000
         vertex 7.942691e+000 2.890000e+001 3.700962e+000
         vertex 7.942691e+000 2.540000e+001 3.700962e+000
      endloop
   endfacet
   facet normal -4.488580e-001 0.000000e+000 -8.936031e-001
      outer loop
         vertex 7.942691e+000 2.540000e+001 3.700962e+000
         vertex 7.942691e+000 2.890000e+001 3.700962e+000
         vertex 8.179661e+000 2.890000e+001 3.590461e+000
      endloop
   endfacet
   facet normal -3.960194e-001 0.000000e+000 -9.182422e-001
      outer loop
         vertex 7.942691e+000 2.540000e+001 3.700962e+000
         vertex 8.179661e+000 2.890000e+001 3.590461e+000
         vertex 8.179661e+000 2.540000e+001 3.590461e+000
      endloop
   endfacet
   facet normal -2.868663e-001 0.000000e+000 -9.579706e-001
      outer loop
         vertex 8.179661e+000 2.540000e+001 3.590461e+000
         vertex 8.179661e+000 2.890000e+001 3.590461e+000
         vertex 8.432219e+000 2.890000e+001 3.522789e+000
      endloop
   endfacet
   facet normal -2.305518e-001 0.000000e+000 -9.730601e-001
      outer loop
         vertex 8.179661e+000 2.540000e+001 3.590461e+000
         vertex 8.432219e+000 2.890000e+001 3.522789e+000
         vertex 8.432219e+000 2.540000e+001 3.522789e+000
      endloop
   endfacet
   facet normal -1.161583e-001 0.000000e+000 -9.932307e-001
      outer loop
         vertex 8.432219e+000 2.540000e+001 3.522789e+000
         vertex 8.432219e+000 2.890000e+001 3.522789e+000
         vertex 8.692691e+000 2.890000e+001 3.500000e+000
      endloop
   endfacet
   facet normal -5.807913e-002 0.000000e+000 -9.983119e-001
      outer loop
         vertex 8.432219e+000 2.540000e+001 3.522789e+000
         vertex 8.692691e+000 2.890000e+001 3.500000e+000
         vertex 8.692691e+000 2.540000e+001 3.500000e+000
      endloop
   endfacet
   facet normal 5.807913e-002 0.000000e+000 -9.983119e-001
      outer loop
         vertex 8.692691e+000 2.540000e+001 3.500000e+000
         vertex 8.692691e+000 2.890000e+001 3.500000e+000
         vertex 8.953163e+000 2.890000e+001 3.522789e+000
      endloop
   endfacet
   facet normal 1.161583e-001 0.000000e+000 -9.932307e-001
      outer loop
         vertex 8.692691e+000 2.540000e+001 3.500000e+000
         vertex 8.953163e+000 2.890000e+001 3.522789e+000
         vertex 8.953163e+000 2.540000e+001 3.522789e+000
      endloop
   endfacet
   facet normal 2.305518e-001 0.000000e+000 -9.730601e-001
      outer loop
         vertex 8.953163e+000 2.540000e+001 3.522789e+000
         vertex 8.953163e+000 2.890000e+001 3.522789e+000
         vertex 9.205721e+000 2.890000e+001 3.590461e+000
      endloop
   endfacet
   facet normal 2.868663e-001 0.000000e+000 -9.579706e-001
      outer loop
         vertex 8.953163e+000 2.540000e+001 3.522789e+000
         vertex 9.205721e+000 2.890000e+001 3.590461e+000
         vertex 9.205721e+000 2.540000e+001 3.590461e+000
      endloop
   endfacet
   facet normal 3.960194e-001 0.000000e+000 -9.182422e-001
      outer loop
         vertex 9.205721e+000 2.540000e+001 3.590461e+000
         vertex 9.205721e+000 2.890000e+001 3.590461e+000
         vertex 9.442692e+000 2.890000e+001 3.700962e+000
      endloop
   endfacet
   facet normal 4.488580e-001 0.000000e+000 -8.936031e-001
      outer loop
         vertex 9.205721e+000 2.540000e+001 3.590461e+000
         vertex 9.442692e+000 2.890000e+001 3.700962e+000
         vertex 9.442692e+000 2.540000e+001 3.700962e+000
      endloop
   endfacet
   facet normal 5.494540e-001 0.000000e+000 -8.355240e-001
      outer loop
         vertex 9.442692e+000 2.540000e+001 3.700962e+000
         vertex 9.442692e+000 2.890000e+001 3.700962e+000
         vertex 9.656873e+000 2.890000e+001 3.850933e+000
      endloop
   endfacet
   facet normal 5.972114e-001 0.000000e+000 -8.020838e-001
      outer loop
         vertex 9.442692e+000 2.540000e+001 3.700962e+000
         vertex 9.656873e+000 2.890000e+001 3.850933e+000
         vertex 9.656873e+000 2.540000e+001 3.850933e+000
      endloop
   endfacet
   facet normal 6.861938e-001 0.000000e+000 -7.274188e-001
      outer loop
         vertex 9.656873e+000 2.540000e+001 3.850933e+000
         vertex 9.656873e+000 2.890000e+001 3.850933e+000
         vertex 9.841759e+000 2.890000e+001 4.035819e+000
      endloop
   endfacet
   facet normal 7.274188e-001 0.000000e+000 -6.861938e-001
      outer loop
         vertex 9.656873e+000 2.540000e+001 3.850933e+000
         vertex 9.841759e+000 2.890000e+001 4.035819e+000
         vertex 9.841759e+000 2.540000e+001 4.035819e+000
      endloop
   endfacet
   facet normal 8.020838e-001 0.000000e+000 -5.972114e-001
      outer loop
         vertex 9.841759e+000 2.540000e+001 4.035819e+000
         vertex 9.841759e+000 2.890000e+001 4.035819e+000
         vertex 9.991730e+000 2.890000e+001 4.250000e+000
      endloop
   endfacet
   facet normal 8.355240e-001 0.000000e+000 -5.494540e-001
      outer loop
         vertex 9.841759e+000 2.540000e+001 4.035819e+000
         vertex 9.991730e+000 2.890000e+001 4.250000e+000
         vertex 9.991730e+000 2.540000e+001 4.250000e+000
      endloop
   endfacet
   facet normal 8.936031e-001 0.000000e+000 -4.488580e-001
      outer loop
         vertex 9.991730e+000 2.540000e+001 4.250000e+000
         vertex 9.991730e+000 2.890000e+001 4.250000e+000
         vertex 1.010223e+001 2.890000e+001 4.486969e+000
      endloop
   endfacet
   facet normal 9.182422e-001 0.000000e+000 -3.960194e-001
      outer loop
         vertex 9.991730e+000 2.540000e+001 4.250000e+000
         vertex 1.010223e+001 2.890000e+001 4.486969e+000
         vertex 1.010223e+001 2.540000e+001 4.486969e+000
      endloop
   endfacet
   facet normal 9.579706e-001 0.000000e+000 -2.868663e-001
      outer loop
         vertex 1.010223e+001 2.540000e+001 4.486969e+000
         vertex 1.010223e+001 2.890000e+001 4.486969e+000
         vertex 1.016990e+001 2.890000e+001 4.739528e+000
      endloop
   endfacet
   facet normal 9.730601e-001 0.000000e+000 -2.305518e-001
      outer loop
         vertex 1.010223e+001 2.540000e+001 4.486969e+000
         vertex 1.016990e+001 2.890000e+001 4.739528e+000
         vertex 1.016990e+001 2.540000e+001 4.739528e+000
      endloop
   endfacet
   facet normal 9.932307e-001 0.000000e+000 -1.161583e-001
      outer loop
         vertex 1.016990e+001 2.540000e+001 4.739528e+000
         vertex 1.016990e+001 2.890000e+001 4.739528e+000
         vertex 1.019269e+001 2.890000e+001 5.000000e+000
      endloop
   endfacet
   facet normal 9.983119e-001 0.000000e+000 -5.807913e-002
      outer loop
         vertex 1.016990e+001 2.540000e+001 4.739528e+000
         vertex 1.019269e+001 2.890000e+001 5.000000e+000
         vertex 1.019269e+001 2.540000e+001 5.000000e+000
      endloop
   endfacet
   facet normal 9.983119e-001 0.000000e+000 5.807913e-002
      outer loop
         vertex 1.019269e+001 2.540000e+001 5.000000e+000
         vertex 1.019269e+001 2.890000e+001 5.000000e+000
         vertex 1.016990e+001 2.890000e+001 5.260472e+000
      endloop
   endfacet
   facet normal 9.932307e-001 0.000000e+000 1.161583e-001
      outer loop
         vertex 1.019269e+001 2.540000e+001 5.000000e+000
         vertex 1.016990e+001 2.890000e+001 5.260472e+000
         vertex 1.016990e+001 2.540000e+001 5.260472e+000
      endloop
   endfacet
   facet normal 9.730601e-001 0.000000e+000 2.305518e-001
      outer loop
         vertex 1.016990e+001 2.540000e+001 5.260472e+000
         vertex 1.016990e+001 2.890000e+001 5.260472e+000
         vertex 1.010223e+001 2.890000e+001 5.513030e+000
      endloop
   endfacet
   facet normal 9.579706e-001 0.000000e+000 2.868663e-001
      outer loop
         vertex 1.016990e+001 2.540000e+001 5.260472e+000
         vertex 1.010223e+001 2.890000e+001 5.513030e+000
         vertex 1.010223e+001 2.540000e+001 5.513030e+000
      endloop
   endfacet
   facet normal 9.182422e-001 0.000000e+000 3.960194e-001
      outer loop
         vertex 1.010223e+001 2.540000e+001 5.513030e+000
         vertex 1.010223e+001 2.890000e+001 5.513030e+000
         vertex 9.991730e+000 2.890000e+001 5.750000e+000
      endloop
   endfacet
   facet normal 8.936031e-001 0.000000e+000 4.488580e-001
      outer loop
         vertex 1.010223e+001 2.540000e+001 5.513030e+000
         vertex 9.991730e+000 2.890000e+001 5.750000e+000
         vertex 9.991730e+000 2.540000e+001 5.750000e+000
      endloop
   endfacet
   facet normal 8.355240e-001 0.000000e+000 5.494540e-001
      outer loop
         vertex 9.991730e+000 2.540000e+001 5.750000e+000
         vertex 9.991730e+000 2.890000e+001 5.750000e+000
         vertex 9.841759e+000 2.890000e+001 5.964181e+000
      endloop
   endfacet
   facet normal 8.020838e-001 0.000000e+000 5.972114e-001
      outer loop
         vertex 9.991730e+000 2.540000e+001 5.750000e+000
         vertex 9.841759e+000 2.890000e+001 5.964181e+000
         vertex 9.841759e+000 2.540000e+001 5.964181e+000
      endloop
   endfacet
   facet normal 7.274188e-001 0.000000e+000 6.861938e-001
      outer loop
         vertex 9.841759e+000 2.540000e+001 5.964181e+000
         vertex 9.841759e+000 2.890000e+001 5.964181e+000
         vertex 9.656873e+000 2.890000e+001 6.149066e+000
      endloop
   endfacet
   facet normal 6.861938e-001 0.000000e+000 7.274188e-001
      outer loop
         vertex 9.841759e+000 2.540000e+001 5.964181e+000
         vertex 9.656873e+000 2.890000e+001 6.149066e+000
         vertex 9.656873e+000 2.540000e+001 6.149066e+000
      endloop
   endfacet
   facet normal 5.972114e-001 0.000000e+000 8.020838e-001
      outer loop
         vertex 9.656873e+000 2.540000e+001 6.149066e+000
         vertex 9.656873e+000 2.890000e+001 6.149066e+000
         vertex 9.442692e+000 2.890000e+001 6.299038e+000
      endloop
   endfacet
   facet normal 5.494540e-001 0.000000e+000 8.355240e-001
      outer loop
         vertex 9.656873e+000 2.540000e+001 6.149066e+000
         vertex 9.442692e+000 2.890000e+001 6.299038e+000
         vertex 9.442692e+000 2.540000e+001 6.299038e+000
      endloop
   endfacet
   facet normal 4.488580e-001 0.000000e+000 8.936031e-001
      outer loop
         vertex 9.442692e+000 2.540000e+001 6.299038e+000
         vertex 9.442692e+000 2.890000e+001 6.299038e+000
         vertex 9.205721e+000 2.890000e+001 6.409539e+000
      endloop
   endfacet
   facet normal 3.960194e-001 0.000000e+000 9.182422e-001
      outer loop
         vertex 9.442692e+000 2.540000e+001 6.299038e+000
         vertex 9.205721e+000 2.890000e+001 6.409539e+000
         vertex 9.205721e+000 2.540000e+001 6.409539e+000
      endloop
   endfacet
   facet normal 2.868663e-001 0.000000e+000 9.579706e-001
      outer loop
         vertex 9.205721e+000 2.540000e+001 6.409539e+000
         vertex 9.205721e+000 2.890000e+001 6.409539e+000
         vertex 8.953163e+000 2.890000e+001 6.477211e+000
      endloop
   endfacet
   facet normal 2.305518e-001 0.000000e+000 9.730601e-001
      outer loop
         vertex 9.205721e+000 2.540000e+001 6.409539e+000
         vertex 8.953163e+000 2.890000e+001 6.477211e+000
         vertex 8.953163e+000 2.540000e+001 6.477211e+000
      endloop
   endfacet
   facet normal 1.161583e-001 0.000000e+000 9.932307e-001
      outer loop
         vertex 8.953163e+000 2.540000e+001 6.477211e+000
         vertex 8.953163e+000 2.890000e+001 6.477211e+000
         vertex 8.692691e+000 2.890000e+001 6.500000e+000
      endloop
   endfacet
   facet normal 0.000000e+000 -1.000000e+000 0.000000e+000
      outer loop
         vertex 8.953163e+000 2.540000e+001 3.522789e+000
         vertex 9.205721e+000 2.540000e+001 3.590461e+000
         vertex 9.442692e+000 2.540000e+001 3.700962e+000
      endloop
   endfacet
   facet normal 0.000000e+000 -1.000000e+000 0.000000e+000
      outer loop
         vertex 8.692691e+000 2.540000e+001 6.500000e+000
         vertex 9.442692e+000 2.540000e+001 3.700962e+000
         vertex 9.656873e+000 2.540000e+001 3.850933e+000
      endloop
   endfacet
   facet normal 0.000000e+000 -1.000000e+000 0.000000e+000
      outer loop
         vertex 7.283153e+000 2.540000e+001 4.486969e+000
         vertex 7.393653e+000 2.540000e+001 4.250000e+000
         vertex 7.543625e+000 2.540000e+001 4.035819e+000
      endloop
   endfacet
   facet normal 0.000000e+000 -1.000000e+000 0.000000e+000
      outer loop
         vertex 8.692691e+000 2.540000e+001 3.500000e+000
         vertex 7.942691e+000 2.540000e+001 6.299038e+000
         vertex 8.432219e+000 2.540000e+001 3.522789e+000
      endloop
   endfacet
   facet normal 0.000000e+000 -1.000000e+000 0.000000e+000
      outer loop
         vertex 8.432219e+000 2.540000e+001 3.522789e+000
         vertex 7.942691e+000 2.540000e+001 6.299038e+000
         vertex 7.942691e+000 2.540000e+001 3.700962e+000
      endloop
   endfacet
   facet normal 0.000000e+000 -1.000000e+000 0.000000e+000
      outer loop
         vertex 8.432219e+000 2.540000e+001 3.522789e+000
         vertex 7.942691e+000 2.540000e+001 3.700962e+000
         vertex 8.179661e+000 2.540000e+001 3.590461e+000
      endloop
   endfacet
   facet normal 0.000000e+000 -1.000000e+000 0.000000e+000
      outer loop
         vertex 8.692691e+000 2.540000e+001 3.500000e+000
         vertex 8.953163e+000 2.540000e+001 3.522789e+000
         vertex 7.942691e+000 2.540000e+001 6.299038e+000
      endloop
   endfacet
   facet normal 0.000000e+000 -1.000000e+000 0.000000e+000
      outer loop
         vertex 7.942691e+000 2.540000e+001 6.299038e+000
         vertex 8.953163e+000 2.540000e+001 3.522789e+000
         vertex 9.442692e+000 2.540000e+001 3.700962e+000
      endloop
   endfacet
   facet normal 0.000000e+000 -1.000000e+000 0.000000e+000
      outer loop
         vertex 7.942691e+000 2.540000e+001 6.299038e+000
         vertex 9.442692e+000 2.540000e+001 3.700962e+000
         vertex 8.179661e+000 2.540000e+001 6.409539e+000
      endloop
   endfacet
   facet normal 0.000000e+000 -1.000000e+000 0.000000e+000
      outer loop
         vertex 8.179661e+000 2.540000e+001 6.409539e+000
         vertex 9.442692e+000 2.540000e+001 3.700962e+000
         vertex 8.692691e+000 2.540000e+001 6.500000e+000
      endloop
   endfacet
   facet normal 0.000000e+000 -1.000000e+000 0.000000e+000
      outer loop
         vertex 8.179661e+000 2.540000e+001 6.409539e+000
         vertex 8.692691e+000 2.540000e+001 6.500000e+000
         vertex 8.432219e+000 2.540000e+001 6.477211e+000
      endloop
   endfacet
   facet normal 0.000000e+000 -1.000000e+000 0.000000e+000
      outer loop
         vertex 7.192692e+000 2.540000e+001 5.000000e+000
         vertex 7.215480e+000 2.540000e+001 4.739528e+000
         vertex 7.283153e+000 2.540000e+001 4.486969e+000
      endloop
   endfacet
   facet normal 0.000000e+000 -1.000000e+000 0.000000e+000
      outer loop
         vertex 9.656873e+000 2.540000e+001 3.850933e+000
         vertex 9.841759e+000 2.540000e+001 4.035819e+000
         vertex 8.692691e+000 2.540000e+001 6.500000e+000
      endloop
   endfacet
   facet normal 0.000000e+000 -1.000000e+000 0.000000e+000
      outer loop
         vertex 8.692691e+000 2.540000e+001 6.500000e+000
         vertex 9.841759e+000 2.540000e+001 4.035819e+000
         vertex 9.205721e+000 2.540000e+001 6.409539e+000
      endloop
   endfacet
   facet normal 0.000000e+000 -1.000000e+000 0.000000e+000
      outer loop
         vertex 8.692691e+000 2.540000e+001 6.500000e+000
         vertex 9.205721e+000 2.540000e+001 6.409539e+000
         vertex 8.953163e+000 2.540000e+001 6.477211e+000
      endloop
   endfacet
   facet normal 0.000000e+000 -1.000000e+000 0.000000e+000
      outer loop
         vertex 1.010223e+001 2.540000e+001 5.513030e+000
         vertex 9.991730e+000 2.540000e+001 5.750000e+000
         vertex 1.016990e+001 2.540000e+001 5.260472e+000
      endloop
   endfacet
   facet normal 0.000000e+000 -1.000000e+000 0.000000e+000
      outer loop
         vertex 1.016990e+001 2.540000e+001 5.260472e+000
         vertex 9.991730e+000 2.540000e+001 5.750000e+000
         vertex 9.841759e+000 2.540000e+001 5.964181e+000
      endloop
   endfacet
   facet normal 0.000000e+000 -1.000000e+000 0.000000e+000
      outer loop
         vertex 1.016990e+001 2.540000e+001 5.260472e+000
         vertex 9.841759e+000 2.540000e+001 5.964181e+000
         vertex 1.019269e+001 2.540000e+001 5.000000e+000
      endloop
   endfacet
   facet normal 0.000000e+000 -1.000000e+000 0.000000e+000
      outer loop
         vertex 1.019269e+001 2.540000e+001 5.000000e+000
         vertex 9.841759e+000 2.540000e+001 5.964181e+000
         vertex 1.016990e+001 2.540000e+001 4.739528e+000
      endloop
   endfacet
   facet normal 0.000000e+000 -1.000000e+000 0.000000e+000
      outer loop
         vertex 9.442692e+000 2.540000e+001 6.299038e+000
         vertex 9.205721e+000 2.540000e+001 6.409539e+000
         vertex 9.656873e+000 2.540000e+001 6.149066e+000
      endloop
   endfacet
   facet normal 0.000000e+000 -1.000000e+000 0.000000e+000
      outer loop
         vertex 9.656873e+000 2.540000e+001 6.149066e+000
         vertex 9.205721e+000 2.540000e+001 6.409539e+000
         vertex 9.841759e+000 2.540000e+001 4.035819e+000
      endloop
   endfacet
   facet normal 0.000000e+000 -1.000000e+000 0.000000e+000
      outer loop
         vertex 9.656873e+000 2.540000e+001 6.149066e+000
         vertex 9.841759e+000 2.540000e+001 4.035819e+000
         vertex 9.841759e+000 2.540000e+001 5.964181e+000
      endloop
   endfacet
   facet normal 0.000000e+000 -1.000000e+000 0.000000e+000
      outer loop
         vertex 9.841759e+000 2.540000e+001 5.964181e+000
         vertex 9.841759e+000 2.540000e+001 4.035819e+000
         vertex 9.991730e+000 2.540000e+001 4.250000e+000
      endloop
   endfacet
   facet normal 0.000000e+000 -1.000000e+000 0.000000e+000
      outer loop
         vertex 9.841759e+000 2.540000e+001 5.964181e+000
         vertex 9.991730e+000 2.540000e+001 4.250000e+000
         vertex 1.016990e+001 2.540000e+001 4.739528e+000
      endloop
   endfacet
   facet normal 0.000000e+000 -1.000000e+000 0.000000e+000
      outer loop
         vertex 1.016990e+001 2.540000e+001 4.739528e+000
         vertex 9.991730e+000 2.540000e+001 4.250000e+000
         vertex 1.010223e+001 2.540000e+001 4.486969e+000
      endloop
   endfacet
   facet normal 0.000000e+000 -1.000000e+000 0.000000e+000
      outer loop
         vertex 7.283153e+000 2.540000e+001 5.513030e+000
         vertex 7.215480e+000 2.540000e+001 5.260472e+000
         vertex 7.393653e+000 2.540000e+001 5.750000e+000
      endloop
   endfacet
   facet normal 0.000000e+000 -1.000000e+000 0.000000e+000
      outer loop
         vertex 7.393653e+000 2.540000e+001 5.750000e+000
         vertex 7.215480e+000 2.540000e+001 5.260472e+000
         vertex 7.728510e+000 2.540000e+001 6.149066e+000
      endloop
   endfacet
   facet normal 0.000000e+000 -1.000000e+000 0.000000e+000
      outer loop
         vertex 7.393653e+000 2.540000e+001 5.750000e+000
         vertex 7.728510e+000 2.540000e+001 6.149066e+000
         vertex 7.543625e+000 2.540000e+001 5.964181e+000
      endloop
   endfacet
   facet normal 0.000000e+000 -1.000000e+000 0.000000e+000
      outer loop
         vertex 7.215480e+000 2.540000e+001 5.260472e+000
         vertex 7.192692e+000 2.540000e+001 5.000000e+000
         vertex 7.728510e+000 2.540000e+001 6.149066e+000
      endloop
   endfacet
   facet normal 0.000000e+000 -1.000000e+000 0.000000e+000
      outer loop
         vertex 7.728510e+000 2.540000e+001 6.149066e+000
         vertex 7.192692e+000 2.540000e+001 5.000000e+000
         vertex 7.283153e+000 2.540000e+001 4.486969e+000
      endloop
   endfacet
   facet normal 0.000000e+000 -1.000000e+000 0.000000e+000
      outer loop
         vertex 7.728510e+000 2.540000e+001 6.149066e+000
         vertex 7.283153e+000 2.540000e+001 4.486969e+000
         vertex 7.942691e+000 2.540000e+001 6.299038e+000
      endloop
   endfacet
   facet normal 0.000000e+000 -1.000000e+000 0.000000e+000
      outer loop
         vertex 7.942691e+000 2.540000e+001 6.299038e+000
         vertex 7.283153e+000 2.540000e+001 4.486969e+000
         vertex 7.543625e+000 2.540000e+001 4.035819e+000
      endloop
   endfacet
   facet normal 0.000000e+000 -1.000000e+000 0.000000e+000
      outer loop
         vertex 7.942691e+000 2.540000e+001 6.299038e+000
         vertex 7.543625e+000 2.540000e+001 4.035819e+000
         vertex 7.942691e+000 2.540000e+001 3.700962e+000
      endloop
   endfacet
   facet normal 0.000000e+000 -1.000000e+000 0.000000e+000
      outer loop
         vertex 7.942691e+000 2.540000e+001 3.700962e+000
         vertex 7.543625e+000 2.540000e+001 4.035819e+000
         vertex 7.728510e+000 2.540000e+001 3.850933e+000
      endloop
   endfacet
   facet normal 5.807913e-002 0.000000e+000 9.983119e-001
      outer loop
         vertex 2.265316e+001 2.540000e+001 6.477211e+000
         vertex 2.239269e+001 2.890000e+001 6.500000e+000
         vertex 2.239269e+001 2.540000e+001 6.500000e+000
      endloop
   endfacet
   facet normal -5.807913e-002 0.000000e+000 9.983119e-001
      outer loop
         vertex 2.239269e+001 2.540000e+001 6.500000e+000
         vertex 2.239269e+001 2.890000e+001 6.500000e+000
         vertex 2.213222e+001 2.890000e+001 6.477211e+000
      endloop
   endfacet
   facet normal -1.161583e-001 0.000000e+000 9.932307e-001
      outer loop
         vertex 2.239269e+001 2.540000e+001 6.500000e+000
         vertex 2.213222e+001 2.890000e+001 6.477211e+000
         vertex 2.213222e+001 2.540000e+001 6.477211e+000
      endloop
   endfacet
   facet normal -2.305518e-001 0.000000e+000 9.730601e-001
      outer loop
         vertex 2.213222e+001 2.540000e+001 6.477211e+000
         vertex 2.213222e+001 2.890000e+001 6.477211e+000
         vertex 2.187966e+001 2.890000e+001 6.409539e+000
      endloop
   endfacet
   facet normal -2.868663e-001 0.000000e+000 9.579706e-001
      outer loop
         vertex 2.213222e+001 2.540000e+001 6.477211e+000
         vertex 2.187966e+001 2.890000e+001 6.409539e+000
         vertex 2.187966e+001 2.540000e+001 6.409539e+000
      endloop
   endfacet
   facet normal -3.960194e-001 0.000000e+000 9.182422e-001
      outer loop
         vertex 2.187966e+001 2.540000e+001 6.409539e+000
         vertex 2.187966e+001 2.890000e+001 6.409539e+000
         vertex 2.164269e+001 2.890000e+001 6.299038e+000
      endloop
   endfacet
   facet normal -4.488580e-001 0.000000e+000 8.936031e-001
      outer loop
         vertex 2.187966e+001 2.540000e+001 6.409539e+000
         vertex 2.164269e+001 2.890000e+001 6.299038e+000
         vertex 2.164269e+001 2.540000e+001 6.299038e+000
      endloop
   endfacet
   facet normal -5.494540e-001 0.000000e+000 8.355240e-001
      outer loop
         vertex 2.164269e+001 2.540000e+001 6.299038e+000
         vertex 2.164269e+001 2.890000e+001 6.299038e+000
         vertex 2.142851e+001 2.890000e+001 6.149066e+000
      endloop
   endfacet
   facet normal -5.972114e-001 0.000000e+000 8.020838e-001
      outer loop
         vertex 2.164269e+001 2.540000e+001 6.299038e+000
         vertex 2.142851e+001 2.890000e+001 6.149066e+000
         vertex 2.142851e+001 2.540000e+001 6.149066e+000
      endloop
   endfacet
   facet normal -6.861938e-001 0.000000e+000 7.274188e-001
      outer loop
         vertex 2.142851e+001 2.540000e+001 6.149066e+000
         vertex 2.142851e+001 2.890000e+001 6.149066e+000
         vertex 2.124362e+001 2.890000e+001 5.964181e+000
      endloop
   endfacet
   facet normal -7.274188e-001 0.000000e+000 6.861938e-001
      outer loop
         vertex 2.142851e+001 2.540000e+001 6.149066e+000
         vertex 2.124362e+001 2.890000e+001 5.964181e+000
         vertex 2.124362e+001 2.540000e+001 5.964181e+000
      endloop
   endfacet
   facet normal -8.020838e-001 0.000000e+000 5.972114e-001
      outer loop
         vertex 2.124362e+001 2.540000e+001 5.964181e+000
         vertex 2.124362e+001 2.890000e+001 5.964181e+000
         vertex 2.109365e+001 2.890000e+001 5.750000e+000
      endloop
   endfacet
   facet normal -8.355240e-001 0.000000e+000 5.494540e-001
      outer loop
         vertex 2.124362e+001 2.540000e+001 5.964181e+000
         vertex 2.109365e+001 2.890000e+001 5.750000e+000
         vertex 2.109365e+001 2.540000e+001 5.750000e+000
      endloop
   endfacet
   facet normal -8.936031e-001 0.000000e+000 4.488580e-001
      outer loop
         vertex 2.109365e+001 2.540000e+001 5.750000e+000
         vertex 2.109365e+001 2.890000e+001 5.750000e+000
         vertex 2.098315e+001 2.890000e+001 5.513030e+000
      endloop
   endfacet
   facet normal -9.182422e-001 0.000000e+000 3.960194e-001
      outer loop
         vertex 2.109365e+001 2.540000e+001 5.750000e+000
         vertex 2.098315e+001 2.890000e+001 5.513030e+000
         vertex 2.098315e+001 2.540000e+001 5.513030e+000
      endloop
   endfacet
   facet normal -9.579706e-001 0.000000e+000 2.868663e-001
      outer loop
         vertex 2.098315e+001 2.540000e+001 5.513030e+000
         vertex 2.098315e+001 2.890000e+001 5.513030e+000
         vertex 2.091548e+001 2.890000e+001 5.260472e+000
      endloop
   endfacet
   facet normal -9.730601e-001 0.000000e+000 2.305518e-001
      outer loop
         vertex 2.098315e+001 2.540000e+001 5.513030e+000
         vertex 2.091548e+001 2.890000e+001 5.260472e+000
         vertex 2.091548e+001 2.540000e+001 5.260472e+000
      endloop
   endfacet
   facet normal -9.932307e-001 0.000000e+000 1.161583e-001
      outer loop
         vertex 2.091548e+001 2.540000e+001 5.260472e+000
         vertex 2.091548e+001 2.890000e+001 5.260472e+000
         vertex 2.089269e+001 2.890000e+001 5.000000e+000
      endloop
   endfacet
   facet normal -9.983119e-001 0.000000e+000 5.807913e-002
      outer loop
         vertex 2.091548e+001 2.540000e+001 5.260472e+000
         vertex 2.089269e+001 2.890000e+001 5.000000e+000
         vertex 2.089269e+001 2.540000e+001 5.000000e+000
      endloop
   endfacet
   facet normal -9.983119e-001 0.000000e+000 -5.807913e-002
      outer loop
         vertex 2.089269e+001 2.540000e+001 5.000000e+000
         vertex 2.089269e+001 2.890000e+001 5.000000e+000
         vertex 2.091548e+001 2.890000e+001 4.739528e+000
      endloop
   endfacet
   facet normal -9.932307e-001 0.000000e+000 -1.161583e-001
      outer loop
         vertex 2.089269e+001 2.540000e+001 5.000000e+000
         vertex 2.091548e+001 2.890000e+001 4.739528e+000
         vertex 2.091548e+001 2.540000e+001 4.739528e+000
      endloop
   endfacet
   facet normal -9.730601e-001 0.000000e+000 -2.305518e-001
      outer loop
         vertex 2.091548e+001 2.540000e+001 4.739528e+000
         vertex 2.091548e+001 2.890000e+001 4.739528e+000
         vertex 2.098315e+001 2.890000e+001 4.486969e+000
      endloop
   endfacet
   facet normal -9.579706e-001 0.000000e+000 -2.868663e-001
      outer loop
         vertex 2.091548e+001 2.540000e+001 4.739528e+000
         vertex 2.098315e+001 2.890000e+001 4.486969e+000
         vertex 2.098315e+001 2.540000e+001 4.486969e+000
      endloop
   endfacet
   facet normal -9.182422e-001 0.000000e+000 -3.960194e-001
      outer loop
         vertex 2.098315e+001 2.540000e+001 4.486969e+000
         vertex 2.098315e+001 2.890000e+001 4.486969e+000
         vertex 2.109365e+001 2.890000e+001 4.250000e+000
      endloop
   endfacet
   facet normal -8.936031e-001 0.000000e+000 -4.488580e-001
      outer loop
         vertex 2.098315e+001 2.540000e+001 4.486969e+000
         vertex 2.109365e+001 2.890000e+001 4.250000e+000
         vertex 2.109365e+001 2.540000e+001 4.250000e+000
      endloop
   endfacet
   facet normal -8.355240e-001 0.000000e+000 -5.494540e-001
      outer loop
         vertex 2.109365e+001 2.540000e+001 4.250000e+000
         vertex 2.109365e+001 2.890000e+001 4.250000e+000
         vertex 2.124362e+001 2.890000e+001 4.035819e+000
      endloop
   endfacet
   facet normal -8.020838e-001 0.000000e+000 -5.972114e-001
      outer loop
         vertex 2.109365e+001 2.540000e+001 4.250000e+000
         vertex 2.124362e+001 2.890000e+001 4.035819e+000
         vertex 2.124362e+001 2.540000e+001 4.035819e+000
      endloop
   endfacet
   facet normal -7.274188e-001 0.000000e+000 -6.861938e-001
      outer loop
         vertex 2.124362e+001 2.540000e+001 4.035819e+000
         vertex 2.124362e+001 2.890000e+001 4.035819e+000
         vertex 2.142851e+001 2.890000e+001 3.850933e+000
      endloop
   endfacet
   facet normal -6.861938e-001 0.000000e+000 -7.274188e-001
      outer loop
         vertex 2.124362e+001 2.540000e+001 4.035819e+000
         vertex 2.142851e+001 2.890000e+001 3.850933e+000
         vertex 2.142851e+001 2.540000e+001 3.850933e+000
      endloop
   endfacet
   facet normal -5.972114e-001 0.000000e+000 -8.020838e-001
      outer loop
         vertex 2.142851e+001 2.540000e+001 3.850933e+000
         vertex 2.142851e+001 2.890000e+001 3.850933e+000
         vertex 2.164269e+001 2.890000e+001 3.700962e+000
      endloop
   endfacet
   facet normal -5.494540e-001 0.000000e+000 -8.355240e-001
      outer loop
         vertex 2.142851e+001 2.540000e+001 3.850933e+000
         vertex 2.164269e+001 2.890000e+001 3.700962e+000
         vertex 2.164269e+001 2.540000e+001 3.700962e+000
      endloop
   endfacet
   facet normal -4.488580e-001 0.000000e+000 -8.936031e-001
      outer loop
         vertex 2.164269e+001 2.540000e+001 3.700962e+000
         vertex 2.164269e+001 2.890000e+001 3.700962e+000
         vertex 2.187966e+001 2.890000e+001 3.590461e+000
      endloop
   endfacet
   facet normal -3.960194e-001 0.000000e+000 -9.182422e-001
      outer loop
         vertex 2.164269e+001 2.540000e+001 3.700962e+000
         vertex 2.187966e+001 2.890000e+001 3.590461e+000
         vertex 2.187966e+001 2.540000e+001 3.590461e+000
      endloop
   endfacet
   facet normal -2.868663e-001 0.000000e+000 -9.579706e-001
      outer loop
         vertex 2.187966e+001 2.540000e+001 3.590461e+000
         vertex 2.187966e+001 2.890000e+001 3.590461e+000
         vertex 2.213222e+001 2.890000e+001 3.522789e+000
      endloop
   endfacet
   facet normal -2.305518e-001 0.000000e+000 -9.730601e-001
      outer loop
         vertex 2.187966e+001 2.540000e+001 3.590461e+000
         vertex 2.213222e+001 2.890000e+001 3.522789e+000
         vertex 2.213222e+001 2.540000e+001 3.522789e+000
      endloop
   endfacet
   facet normal -1.161583e-001 0.000000e+000 -9.932307e-001
      outer loop
         vertex 2.213222e+001 2.540000e+001 3.522789e+000
         vertex 2.213222e+001 2.890000e+001 3.522789e+000
         vertex 2.239269e+001 2.890000e+001 3.500000e+000
      endloop
   endfacet
   facet normal -5.807913e-002 0.000000e+000 -9.983119e-001
      outer loop
         vertex 2.213222e+001 2.540000e+001 3.522789e+000
         vertex 2.239269e+001 2.890000e+001 3.500000e+000
         vertex 2.239269e+001 2.540000e+001 3.500000e+000
      endloop
   endfacet
   facet normal 5.807913e-002 0.000000e+000 -9.983119e-001
      outer loop
         vertex 2.239269e+001 2.540000e+001 3.500000e+000
         vertex 2.239269e+001 2.890000e+001 3.500000e+000
         vertex 2.265316e+001 2.890000e+001 3.522789e+000
      endloop
   endfacet
   facet normal 1.161583e-001 0.000000e+000 -9.932307e-001
      outer loop
         vertex 2.239269e+001 2.540000e+001 3.500000e+000
         vertex 2.265316e+001 2.890000e+001 3.522789e+000
         vertex 2.265316e+001 2.540000e+001 3.522789e+000
      endloop
   endfacet
   facet normal 2.305518e-001 0.000000e+000 -9.730601e-001
      outer loop
         vertex 2.265316e+001 2.540000e+001 3.522789e+000
         vertex 2.265316e+001 2.890000e+001 3.522789e+000
         vertex 2.290572e+001 2.890000e+001 3.590461e+000
      endloop
   endfacet
   facet normal 2.868663e-001 0.000000e+000 -9.579706e-001
      outer loop
         vertex 2.265316e+001 2.540000e+001 3.522789e+000
         vertex 2.290572e+001 2.890000e+001 3.590461e+000
         vertex 2.290572e+001 2.540000e+001 3.590461e+000
      endloop
   endfacet
   facet normal 3.960194e-001 0.000000e+000 -9.182422e-001
      outer loop
         vertex 2.290572e+001 2.540000e+001 3.590461e+000
         vertex 2.290572e+001 2.890000e+001 3.590461e+000
         vertex 2.314269e+001 2.890000e+001 3.700962e+000
      endloop
   endfacet
   facet normal 4.488580e-001 0.000000e+000 -8.936031e-001
      outer loop
         vertex 2.290572e+001 2.540000e+001 3.590461e+000
         vertex 2.314269e+001 2.890000e+001 3.700962e+000
         vertex 2.314269e+001 2.540000e+001 3.700962e+000
      endloop
   endfacet
   facet normal 5.494540e-001 0.000000e+000 -8.355240e-001
      outer loop
         vertex 2.314269e+001 2.540000e+001 3.700962e+000
         vertex 2.314269e+001 2.890000e+001 3.700962e+000
         vertex 2.335687e+001 2.890000e+001 3.850933e+000
      endloop
   endfacet
   facet normal 5.972114e-001 0.000000e+000 -8.020838e-001
      outer loop
         vertex 2.314269e+001 2.540000e+001 3.700962e+000
         vertex 2.335687e+001 2.890000e+001 3.850933e+000
         vertex 2.335687e+001 2.540000e+001 3.850933e+000
      endloop
   endfacet
   facet normal 6.861938e-001 0.000000e+000 -7.274188e-001
      outer loop
         vertex 2.335687e+001 2.540000e+001 3.850933e+000
         vertex 2.335687e+001 2.890000e+001 3.850933e+000
         vertex 2.354176e+001 2.890000e+001 4.035819e+000
      endloop
   endfacet
   facet normal 7.274188e-001 0.000000e+000 -6.861938e-001
      outer loop
         vertex 2.335687e+001 2.540000e+001 3.850933e+000
         vertex 2.354176e+001 2.890000e+001 4.035819e+000
         vertex 2.354176e+001 2.540000e+001 4.035819e+000
      endloop
   endfacet
   facet normal 8.020838e-001 0.000000e+000 -5.972114e-001
      outer loop
         vertex 2.354176e+001 2.540000e+001 4.035819e+000
         vertex 2.354176e+001 2.890000e+001 4.035819e+000
         vertex 2.369173e+001 2.890000e+001 4.250000e+000
      endloop
   endfacet
   facet normal 8.355240e-001 0.000000e+000 -5.494540e-001
      outer loop
         vertex 2.354176e+001 2.540000e+001 4.035819e+000
         vertex 2.369173e+001 2.890000e+001 4.250000e+000
         vertex 2.369173e+001 2.540000e+001 4.250000e+000
      endloop
   endfacet
   facet normal 8.936031e-001 0.000000e+000 -4.488580e-001
      outer loop
         vertex 2.369173e+001 2.540000e+001 4.250000e+000
         vertex 2.369173e+001 2.890000e+001 4.250000e+000
         vertex 2.380223e+001 2.890000e+001 4.486969e+000
      endloop
   endfacet
   facet normal 9.182422e-001 0.000000e+000 -3.960194e-001
      outer loop
         vertex 2.369173e+001 2.540000e+001 4.250000e+000
         vertex 2.380223e+001 2.890000e+001 4.486969e+000
         vertex 2.380223e+001 2.540000e+001 4.486969e+000
      endloop
   endfacet
   facet normal 9.579706e-001 0.000000e+000 -2.868663e-001
      outer loop
         vertex 2.380223e+001 2.540000e+001 4.486969e+000
         vertex 2.380223e+001 2.890000e+001 4.486969e+000
         vertex 2.386990e+001 2.890000e+001 4.739528e+000
      endloop
   endfacet
   facet normal 9.730601e-001 0.000000e+000 -2.305518e-001
      outer loop
         vertex 2.380223e+001 2.540000e+001 4.486969e+000
         vertex 2.386990e+001 2.890000e+001 4.739528e+000
         vertex 2.386990e+001 2.540000e+001 4.739528e+000
      endloop
   endfacet
   facet normal 9.932307e-001 0.000000e+000 -1.161583e-001
      outer loop
         vertex 2.386990e+001 2.540000e+001 4.739528e+000
         vertex 2.386990e+001 2.890000e+001 4.739528e+000
         vertex 2.389269e+001 2.890000e+001 5.000000e+000
      endloop
   endfacet
   facet normal 9.983119e-001 0.000000e+000 -5.807913e-002
      outer loop
         vertex 2.386990e+001 2.540000e+001 4.739528e+000
         vertex 2.389269e+001 2.890000e+001 5.000000e+000
         vertex 2.389269e+001 2.540000e+001 5.000000e+000
      endloop
   endfacet
   facet normal 9.983119e-001 0.000000e+000 5.807913e-002
      outer loop
         vertex 2.389269e+001 2.540000e+001 5.000000e+000
         vertex 2.389269e+001 2.890000e+001 5.000000e+000
         vertex 2.386990e+001 2.890000e+001 5.260472e+000
      endloop
   endfacet
   facet normal 9.932307e-001 0.000000e+000 1.161583e-001
      outer loop
         vertex 2.389269e+001 2.540000e+001 5.000000e+000
         vertex 2.386990e+001 2.890000e+001 5.260472e+000
         vertex 2.386990e+001 2.540000e+001 5.260472e+000
      endloop
   endfacet
   facet normal 9.730601e-001 0.000000e+000 2.305518e-001
      outer loop
         vertex 2.386990e+001 2.540000e+001 5.260472e+000
         vertex 2.386990e+001 2.890000e+001 5.260472e+000
         vertex 2.380223e+001 2.890000e+001 5.513030e+000
      endloop
   endfacet
   facet normal 9.579706e-001 0.000000e+000 2.868663e-001
      outer loop
         vertex 2.386990e+001 2.540000e+001 5.260472e+000
         vertex 2.380223e+001 2.890000e+001 5.513030e+000
         vertex 2.380223e+001 2.540000e+001 5.513030e+000
      endloop
   endfacet
   facet normal 9.182422e-001 0.000000e+000 3.960194e-001
      outer loop
         vertex 2.380223e+001 2.540000e+001 5.513030e+000
         vertex 2.380223e+001 2.890000e+001 5.513030e+000
         vertex 2.369173e+001 2.890000e+001 5.750000e+000
      endloop
   endfacet
   facet normal 8.936031e-001 0.000000e+000 4.488580e-001
      outer loop
         vertex 2.380223e+001 2.540000e+001 5.513030e+000
         vertex 2.369173e+001 2.890000e+001 5.750000e+000
         vertex 2.369173e+001 2.540000e+001 5.750000e+000
      endloop
   endfacet
   facet normal 8.355240e-001 0.000000e+000 5.494540e-001
      outer loop
         vertex 2.369173e+001 2.540000e+001 5.750000e+000
         vertex 2.369173e+001 2.890000e+001 5.750000e+000
         vertex 2.354176e+001 2.890000e+001 5.964181e+000
      endloop
   endfacet
   facet normal 8.020838e-001 0.000000e+000 5.972114e-001
      outer loop
         vertex 2.369173e+001 2.540000e+001 5.750000e+000
         vertex 2.354176e+001 2.890000e+001 5.964181e+000
         vertex 2.354176e+001 2.540000e+001 5.964181e+000
      endloop
   endfacet
   facet normal 7.274188e-001 0.000000e+000 6.861938e-001
      outer loop
         vertex 2.354176e+001 2.540000e+001 5.964181e+000
         vertex 2.354176e+001 2.890000e+001 5.964181e+000
         vertex 2.335687e+001 2.890000e+001 6.149066e+000
      endloop
   endfacet
   facet normal 6.861938e-001 0.000000e+000 7.274188e-001
      outer loop
         vertex 2.354176e+001 2.540000e+001 5.964181e+000
         vertex 2.335687e+001 2.890000e+001 6.149066e+000
         vertex 2.335687e+001 2.540000e+001 6.149066e+000
      endloop
   endfacet
   facet normal 5.972114e-001 0.000000e+000 8.020838e-001
      outer loop
         vertex 2.335687e+001 2.540000e+001 6.149066e+000
         vertex 2.335687e+001 2.890000e+001 6.149066e+000
         vertex 2.314269e+001 2.890000e+001 6.299038e+000
      endloop
   endfacet
   facet normal 5.494540e-001 0.000000e+000 8.355240e-001
      outer loop
         vertex 2.335687e+001 2.540000e+001 6.149066e+000
         vertex 2.314269e+001 2.890000e+001 6.299038e+000
         vertex 2.314269e+001 2.540000e+001 6.299038e+000
      endloop
   endfacet
   facet normal 4.488580e-001 0.000000e+000 8.936031e-001
      outer loop
         vertex 2.314269e+001 2.540000e+001 6.299038e+000
         vertex 2.314269e+001 2.890000e+001 6.299038e+000
         vertex 2.290572e+001 2.890000e+001 6.409539e+000
      endloop
   endfacet
   facet normal 3.960194e-001 0.000000e+000 9.182422e-001
      outer loop
         vertex 2.314269e+001 2.540000e+001 6.299038e+000
         vertex 2.290572e+001 2.890000e+001 6.409539e+000
         vertex 2.290572e+001 2.540000e+001 6.409539e+000
      endloop
   endfacet
   facet normal 2.868663e-001 0.000000e+000 9.579706e-001
      outer loop
         vertex 2.290572e+001 2.540000e+001 6.409539e+000
         vertex 2.290572e+001 2.890000e+001 6.409539e+000
         vertex 2.265316e+001 2.890000e+001 6.477211e+000
      endloop
   endfacet
   facet normal 2.305518e-001 0.000000e+000 9.730601e-001
      outer loop
         vertex 2.290572e+001 2.540000e+001 6.409539e+000
         vertex 2.265316e+001 2.890000e+001 6.477211e+000
         vertex 2.265316e+001 2.540000e+001 6.477211e+000
      endloop
   endfacet
   facet normal 1.161583e-001 0.000000e+000 9.932307e-001
      outer loop
         vertex 2.265316e+001 2.540000e+001 6.477211e+000
         vertex 2.265316e+001 2.890000e+001 6.477211e+000
         vertex 2.239269e+001 2.890000e+001 6.500000e+000
      endloop
   endfacet
   facet normal 0.000000e+000 -1.000000e+000 0.000000e+000
      outer loop
         vertex 2.290572e+001 2.540000e+001 6.409539e+000
         vertex 2.265316e+001 2.540000e+001 6.477211e+000
         vertex 2.239269e+001 2.540000e+001 6.500000e+000
      endloop
   endfacet
   facet normal 0.000000e+000 -1.000000e+000 0.000000e+000
      outer loop
         vertex 2.265316e+001 2.540000e+001 3.522789e+000
         vertex 2.290572e+001 2.540000e+001 3.590461e+000
         vertex 2.187966e+001 2.540000e+001 6.409539e+000
      endloop
   endfacet
   facet normal 0.000000e+000 -1.000000e+000 0.000000e+000
      outer loop
         vertex 2.187966e+001 2.540000e+001 6.409539e+000
         vertex 2.290572e+001 2.540000e+001 3.590461e+000
         vertex 2.239269e+001 2.540000e+001 6.500000e+000
      endloop
   endfacet
   facet normal 0.000000e+000 -1.000000e+000 0.000000e+000
      outer loop
         vertex 2.187966e+001 2.540000e+001 6.409539e+000
         vertex 2.239269e+001 2.540000e+001 6.500000e+000
         vertex 2.213222e+001 2.540000e+001 6.477211e+000
      endloop
   endfacet
   facet normal 0.000000e+000 -1.000000e+000 0.000000e+000
      outer loop
         vertex 2.380223e+001 2.540000e+001 5.513030e+000
         vertex 2.369173e+001 2.540000e+001 5.750000e+000
         vertex 2.354176e+001 2.540000e+001 5.964181e+000
      endloop
   endfacet
   facet normal 0.000000e+000 -1.000000e+000 0.000000e+000
      outer loop
         vertex 2.142851e+001 2.540000e+001 6.149066e+000
         vertex 2.124362e+001 2.540000e+001 5.964181e+000
         vertex 2.164269e+001 2.540000e+001 6.299038e+000
      endloop
   endfacet
   facet normal 0.000000e+000 -1.000000e+000 0.000000e+000
      outer loop
         vertex 2.164269e+001 2.540000e+001 6.299038e+000
         vertex 2.124362e+001 2.540000e+001 5.964181e+000
         vertex 2.187966e+001 2.540000e+001 6.409539e+000
      endloop
   endfacet
   facet normal 0.000000e+000 -1.000000e+000 0.000000e+000
      outer loop
         vertex 2.109365e+001 2.540000e+001 5.750000e+000
         vertex 2.098315e+001 2.540000e+001 5.513030e+000
         vertex 2.124362e+001 2.540000e+001 4.035819e+000
      endloop
   endfacet
   facet normal 0.000000e+000 -1.000000e+000 0.000000e+000
      outer loop
         vertex 2.124362e+001 2.540000e+001 4.035819e+000
         vertex 2.098315e+001 2.540000e+001 5.513030e+000
         vertex 2.091548e+001 2.540000e+001 5.260472e+000
      endloop
   endfacet
   facet normal 0.000000e+000 -1.000000e+000 0.000000e+000
      outer loop
         vertex 2.142851e+001 2.540000e+001 3.850933e+000
         vertex 2.164269e+001 2.540000e+001 3.700962e+000
         vertex 2.124362e+001 2.540000e+001 4.035819e+000
      endloop
   endfacet
   facet normal 0.000000e+000 -1.000000e+000 0.000000e+000
      outer loop
         vertex 2.124362e+001 2.540000e+001 4.035819e+000
         vertex 2.164269e+001 2.540000e+001 3.700962e+000
         vertex 2.187966e+001 2.540000e+001 6.409539e+000
      endloop
   endfacet
   facet normal 0.000000e+000 -1.000000e+000 0.000000e+000
      outer loop
         vertex 2.124362e+001 2.540000e+001 4.035819e+000
         vertex 2.187966e+001 2.540000e+001 6.409539e+000
         vertex 2.109365e+001 2.540000e+001 5.750000e+000
      endloop
   endfacet
   facet normal 0.000000e+000 -1.000000e+000 0.000000e+000
      outer loop
         vertex 2.109365e+001 2.540000e+001 5.750000e+000
         vertex 2.187966e+001 2.540000e+001 6.409539e+000
         vertex 2.124362e+001 2.540000e+001 5.964181e+000
      endloop
   endfacet
   facet normal 0.000000e+000 -1.000000e+000 0.000000e+000
      outer loop
         vertex 2.239269e+001 2.540000e+001 3.500000e+000
         vertex 2.265316e+001 2.540000e+001 3.522789e+000
         vertex 2.213222e+001 2.540000e+001 3.522789e+000
      endloop
   endfacet
   facet normal 0.000000e+000 -1.000000e+000 0.000000e+000
      outer loop
         vertex 2.213222e+001 2.540000e+001 3.522789e+000
         vertex 2.265316e+001 2.540000e+001 3.522789e+000
         vertex 2.187966e+001 2.540000e+001 6.409539e+000
      endloop
   endfacet
   facet normal 0.000000e+000 -1.000000e+000 0.000000e+000
      outer loop
         vertex 2.213222e+001 2.540000e+001 3.522789e+000
         vertex 2.187966e+001 2.540000e+001 6.409539e+000
         vertex 2.187966e+001 2.540000e+001 3.590461e+000
      endloop
   endfacet
   facet normal 0.000000e+000 -1.000000e+000 0.000000e+000
      outer loop
         vertex 2.187966e+001 2.540000e+001 3.590461e+000
         vertex 2.187966e+001 2.540000e+001 6.409539e+000
         vertex 2.164269e+001 2.540000e+001 3.700962e+000
      endloop
   endfacet
   facet normal 0.000000e+000 -1.000000e+000 0.000000e+000
      outer loop
         vertex 2.354176e+001 2.540000e+001 5.964181e+000
         vertex 2.335687e+001 2.540000e+001 6.149066e+000
         vertex 2.354176e+001 2.540000e+001 4.035819e+000
      endloop
   endfacet
   facet normal 0.000000e+000 -1.000000e+000 0.000000e+000
      outer loop
         vertex 2.354176e+001 2.540000e+001 4.035819e+000
         vertex 2.335687e+001 2.540000e+001 6.149066e+000
         vertex 2.314269e+001 2.540000e+001 6.299038e+000
      endloop
   endfacet
   facet normal 0.000000e+000 -1.000000e+000 0.000000e+000
      outer loop
         vertex 2.098315e+001 2.540000e+001 4.486969e+000
         vertex 2.109365e+001 2.540000e+001 4.250000e+000
         vertex 2.091548e+001 2.540000e+001 4.739528e+000
      endloop
   endfacet
   facet normal 0.000000e+000 -1.000000e+000 0.000000e+000
      outer loop
         vertex 2.091548e+001 2.540000e+001 4.739528e+000
         vertex 2.109365e+001 2.540000e+001 4.250000e+000
         vertex 2.124362e+001 2.540000e+001 4.035819e+000
      endloop
   endfacet
   facet normal 0.000000e+000 -1.000000e+000 0.000000e+000
      outer loop
         vertex 2.091548e+001 2.540000e+001 4.739528e+000
         vertex 2.124362e+001 2.540000e+001 4.035819e+000
         vertex 2.089269e+001 2.540000e+001 5.000000e+000
      endloop
   endfacet
   facet normal 0.000000e+000 -1.000000e+000 0.000000e+000
      outer loop
         vertex 2.089269e+001 2.540000e+001 5.000000e+000
         vertex 2.124362e+001 2.540000e+001 4.035819e+000
         vertex 2.091548e+001 2.540000e+001 5.260472e+000
      endloop
   endfacet
   facet normal 0.000000e+000 -1.000000e+000 0.000000e+000
      outer loop
         vertex 2.380223e+001 2.540000e+001 4.486969e+000
         vertex 2.386990e+001 2.540000e+001 4.739528e+000
         vertex 2.389269e+001 2.540000e+001 5.000000e+000
      endloop
   endfacet
   facet normal 0.000000e+000 -1.000000e+000 0.000000e+000
      outer loop
         vertex 2.354176e+001 2.540000e+001 4.035819e+000
         vertex 2.369173e+001 2.540000e+001 4.250000e+000
         vertex 2.354176e+001 2.540000e+001 5.964181e+000
      endloop
   endfacet
   facet normal 0.000000e+000 -1.000000e+000 0.000000e+000
      outer loop
         vertex 2.354176e+001 2.540000e+001 5.964181e+000
         vertex 2.369173e+001 2.540000e+001 4.250000e+000
         vertex 2.380223e+001 2.540000e+001 4.486969e+000
      endloop
   endfacet
   facet normal 0.000000e+000 -1.000000e+000 0.000000e+000
      outer loop
         vertex 2.354176e+001 2.540000e+001 5.964181e+000
         vertex 2.380223e+001 2.540000e+001 4.486969e+000
         vertex 2.380223e+001 2.540000e+001 5.513030e+000
      endloop
   endfacet
   facet normal 0.000000e+000 -1.000000e+000 0.000000e+000
      outer loop
         vertex 2.380223e+001 2.540000e+001 5.513030e+000
         vertex 2.380223e+001 2.540000e+001 4.486969e+000
         vertex 2.389269e+001 2.540000e+001 5.000000e+000
      endloop
   endfacet
   facet normal 0.000000e+000 -1.000000e+000 0.000000e+000
      outer loop
         vertex 2.380223e+001 2.540000e+001 5.513030e+000
         vertex 2.389269e+001 2.540000e+001 5.000000e+000
         vertex 2.386990e+001 2.540000e+001 5.260472e+000
      endloop
   endfacet
   facet normal 0.000000e+000 -1.000000e+000 0.000000e+000
      outer loop
         vertex 2.314269e+001 2.540000e+001 6.299038e+000
         vertex 2.290572e+001 2.540000e+001 6.409539e+000
         vertex 2.354176e+001 2.540000e+001 4.035819e+000
      endloop
   endfacet
   facet normal 0.000000e+000 -1.000000e+000 0.000000e+000
      outer loop
         vertex 2.354176e+001 2.540000e+001 4.035819e+000
         vertex 2.290572e+001 2.540000e+001 6.409539e+000
         vertex 2.239269e+001 2.540000e+001 6.500000e+000
      endloop
   endfacet
   facet normal 0.000000e+000 -1.000000e+000 0.000000e+000
      outer loop
         vertex 2.354176e+001 2.540000e+001 4.035819e+000
         vertex 2.239269e+001 2.540000e+001 6.500000e+000
         vertex 2.335687e+001 2.540000e+001 3.850933e+000
      endloop
   endfacet
   facet normal 0.000000e+000 -1.000000e+000 0.000000e+000
      outer loop
         vertex 2.335687e+001 2.540000e+001 3.850933e+000
         vertex 2.239269e+001 2.540000e+001 6.500000e+000
         vertex 2.290572e+001 2.540000e+001 3.590461e+000
      endloop
   endfacet
   facet normal 0.000000e+000 -1.000000e+000 0.000000e+000
      outer loop
         vertex 2.335687e+001 2.540000e+001 3.850933e+000
         vertex 2.290572e+001 2.540000e+001 3.590461e+000
         vertex 2.314269e+001 2.540000e+001 3.700962e+000
      endloop
   endfacet
endsolid