solid pin1.9x11.8mm
   facet normal -9.983119e-001 5.807913e-002 0.000000e+000
      outer loop
         vertex 9.144326e-001 2.014966e+000 1.180000e+001
         vertex 9.000000e-001 1.850000e+000 5.000000e-001
         vertex 9.000000e-001 1.850000e+000 1.180000e+001
      endloop
   endfacet
   facet normal -9.983119e-001 -5.807913e-002 0.000000e+000
      outer loop
         vertex 9.000000e-001 1.850000e+000 1.180000e+001
         vertex 9.000000e-001 1.850000e+000 5.000000e-001
         vertex 9.144326e-001 1.685034e+000 5.000000e-001
      endloop
   endfacet
   facet normal -9.932307e-001 -1.161583e-001 0.000000e+000
      outer loop
         vertex 9.000000e-001 1.850000e+000 1.180000e+001
         vertex 9.144326e-001 1.685034e+000 5.000000e-001
         vertex 9.144326e-001 1.685034e+000 1.180000e+001
      endloop
   endfacet
   facet normal -9.730601e-001 -2.305518e-001 0.000000e+000
      outer loop
         vertex 9.144326e-001 1.685034e+000 1.180000e+001
         vertex 9.144326e-001 1.685034e+000 5.000000e-001
         vertex 9.572920e-001 1.525081e+000 5.000000e-001
      endloop
   endfacet
   facet normal -9.579706e-001 -2.868663e-001 0.000000e+000
      outer loop
         vertex 9.144326e-001 1.685034e+000 1.180000e+001
         vertex 9.572920e-001 1.525081e+000 5.000000e-001
         vertex 9.572920e-001 1.525081e+000 1.180000e+001
      endloop
   endfacet
   facet normal -9.182422e-001 -3.960194e-001 0.000000e+000
      outer loop
         vertex 9.572920e-001 1.525081e+000 1.180000e+001
         vertex 9.572920e-001 1.525081e+000 5.000000e-001
         vertex 1.027276e+000 1.375000e+000 5.000000e-001
      endloop
   endfacet
   facet normal -8.936031e-001 -4.488580e-001 0.000000e+000
      outer loop
         vertex 9.572920e-001 1.525081e+000 1.180000e+001
         vertex 1.027276e+000 1.375000e+000 5.000000e-001
         vertex 1.027276e+000 1.375000e+000 1.180000e+001
      endloop
   endfacet
   facet normal -8.355240e-001 -5.494540e-001 0.000000e+000
      outer loop
         vertex 1.027276e+000 1.375000e+000 1.180000e+001
         vertex 1.027276e+000 1.375000e+000 5.000000e-001
         vertex 1.122258e+000 1.239352e+000 5.000000e-001
      endloop
   endfacet
   facet normal -8.020838e-001 -5.972114e-001 0.000000e+000
      outer loop
         vertex 1.027276e+000 1.375000e+000 1.180000e+001
         vertex 1.122258e+000 1.239352e+000 5.000000e-001
         vertex 1.122258e+000 1.239352e+000 1.180000e+001
      endloop
   endfacet
   facet normal -7.274188e-001 -6.861938e-001 0.000000e+000
      outer loop
         vertex 1.122258e+000 1.239352e+000 1.180000e+001
         vertex 1.122258e+000 1.239352e+000 5.000000e-001
         vertex 1.239352e+000 1.122258e+000 5.000000e-001
      endloop
   endfacet
   facet normal -6.861938e-001 -7.274188e-001 0.000000e+000
      outer loop
         vertex 1.122258e+000 1.239352e+000 1.180000e+001
         vertex 1.239352e+000 1.122258e+000 5.000000e-001
         vertex 1.239352e+000 1.122258e+000 1.180000e+001
      endloop
   endfacet
   facet normal -5.972114e-001 -8.020838e-001 0.000000e+000
      outer loop
         vertex 1.239352e+000 1.122258e+000 1.180000e+001
         vertex 1.239352e+000 1.122258e+000 5.000000e-001
         vertex 1.375000e+000 1.027276e+000 5.000000e-001
      endloop
   endfacet
   facet normal -5.494540e-001 -8.355240e-001 0.000000e+000
      outer loop
         vertex 1.239352e+000 1.122258e+000 1.180000e+001
         vertex 1.375000e+000 1.027276e+000 5.000000e-001
         vertex 1.375000e+000 1.027276e+000 1.180000e+001
      endloop
   endfacet
   facet normal -4.488580e-001 -8.936031e-001 0.000000e+000
      outer loop
         vertex 1.375000e+000 1.027276e+000 1.180000e+001
         vertex 1.375000e+000 1.027276e+000 5.000000e-001
         vertex 1.525081e+000 9.572920e-001 5.000000e-001
      endloop
   endfacet
   facet normal -3.960194e-001 -9.182422e-001 0.000000e+000
      outer loop
         vertex 1.375000e+000 1.027276e+000 1.180000e+001
         vertex 1.525081e+000 9.572920e-001 5.000000e-001
         vertex 1.525081e+000 9.572920e-001 1.180000e+001
      endloop
   endfacet
   facet normal -2.868663e-001 -9.579706e-001 0.000000e+000
      outer loop
         vertex 1.525081e+000 9.572920e-001 1.180000e+001
         vertex 1.525081e+000 9.572920e-001 5.000000e-001
         vertex 1.685034e+000 9.144326e-001 5.000000e-001
      endloop
   endfacet
   facet normal -2.305518e-001 -9.730601e-001 0.000000e+000
      outer loop
         vertex 1.525081e+000 9.572920e-001 1.180000e+001
         vertex 1.685034e+000 9.144326e-001 5.000000e-001
         vertex 1.685034e+000 9.144326e-001 1.180000e+001
      endloop
   endfacet
   facet normal -1.161583e-001 -9.932307e-001 0.000000e+000
      outer loop
         vertex 1.685034e+000 9.144326e-001 1.180000e+001
         vertex 1.685034e+000 9.144326e-001 5.000000e-001
         vertex 1.850000e+000 9.000000e-001 5.000000e-001
      endloop
   endfacet
   facet normal -5.807913e-002 -9.983119e-001 0.000000e+000
      outer loop
         vertex 1.685034e+000 9.144326e-001 1.180000e+001
         vertex 1.850000e+000 9.000000e-001 5.000000e-001
         vertex 1.850000e+000 9.000000e-001 1.180000e+001
      endloop
   endfacet
   facet normal 5.807913e-002 -9.983119e-001 0.000000e+000
      outer loop
         vertex 1.850000e+000 9.000000e-001 1.180000e+001
         vertex 1.850000e+000 9.000000e-001 5.000000e-001
         vertex 2.014966e+000 9.144326e-001 5.000000e-001
      endloop
   endfacet
   facet normal 1.161583e-001 -9.932307e-001 0.000000e+000
      outer loop
         vertex 1.850000e+000 9.000000e-001 1.180000e+001
         vertex 2.014966e+000 9.144326e-001 5.000000e-001
         vertex 2.014966e+000 9.144326e-001 1.180000e+001
      endloop
   endfacet
   facet normal 2.305518e-001 -9.730601e-001 0.000000e+000
      outer loop
         vertex 2.014966e+000 9.144326e-001 1.180000e+001
         vertex 2.014966e+000 9.144326e-001 5.000000e-001
         vertex 2.174919e+000 9.572920e-001 5.000000e-001
      endloop
   endfacet
   facet normal 2.868663e-001 -9.579706e-001 0.000000e+000
      outer loop
         vertex 2.014966e+000 9.144326e-001 1.180000e+001
         vertex 2.174919e+000 9.572920e-001 5.000000e-001
         vertex 2.174919e+000 9.572920e-001 1.180000e+001
      endloop
   endfacet
   facet normal 3.960194e-001 -9.182422e-001 0.000000e+000
      outer loop
         vertex 2.174919e+000 9.572920e-001 1.180000e+001
         vertex 2.174919e+000 9.572920e-001 5.000000e-001
         vertex 2.325000e+000 1.027276e+000 5.000000e-001
      endloop
   endfacet
   facet normal 4.488580e-001 -8.936031e-001 0.000000e+000
      outer loop
         vertex 2.174919e+000 9.572920e-001 1.180000e+001
         vertex 2.325000e+000 1.027276e+000 5.000000e-001
         vertex 2.325000e+000 1.027276e+000 1.180000e+001
      endloop
   endfacet
   facet normal 5.494540e-001 -8.355240e-001 0.000000e+000
      outer loop
         vertex 2.325000e+000 1.027276e+000 1.180000e+001
         vertex 2.325000e+000 1.027276e+000 5.000000e-001
         vertex 2.460648e+000 1.122258e+000 5.000000e-001
      endloop
   endfacet
   facet normal 5.972114e-001 -8.020838e-001 0.000000e+000
      outer loop
         vertex 2.325000e+000 1.027276e+000 1.180000e+001
         vertex 2.460648e+000 1.122258e+000 5.000000e-001
         vertex 2.460648e+000 1.122258e+000 1.180000e+001
      endloop
   endfacet
   facet normal 6.861938e-001 -7.274188e-001 0.000000e+000
      outer loop
         vertex 2.460648e+000 1.122258e+000 1.180000e+001
         vertex 2.460648e+000 1.122258e+000 5.000000e-001
         vertex 2.577742e+000 1.239352e+000 5.000000e-001
      endloop
   endfacet
   facet normal 7.274188e-001 -6.861938e-001 0.000000e+000
      outer loop
         vertex 2.460648e+000 1.122258e+000 1.180000e+001
         vertex 2.577742e+000 1.239352e+000 5.000000e-001
         vertex 2.577742e+000 1.239352e+000 1.180000e+001
      endloop
   endfacet
   facet normal 8.020838e-001 -5.972114e-001 0.000000e+000
      outer loop
         vertex 2.577742e+000 1.239352e+000 1.180000e+001
         vertex 2.577742e+000 1.239352e+000 5.000000e-001
         vertex 2.672724e+000 1.375000e+000 5.000000e-001
      endloop
   endfacet
   facet normal 8.355240e-001 -5.494540e-001 0.000000e+000
      outer loop
         vertex 2.577742e+000 1.239352e+000 1.180000e+001
         vertex 2.672724e+000 1.375000e+000 5.000000e-001
         vertex 2.672724e+000 1.375000e+000 1.180000e+001
      endloop
   endfacet
   facet normal 8.936031e-001 -4.488580e-001 0.000000e+000
      outer loop
         vertex 2.672724e+000 1.375000e+000 1.180000e+001
         vertex 2.672724e+000 1.375000e+000 5.000000e-001
         vertex 2.742708e+000 1.525081e+000 5.000000e-001
      endloop
   endfacet
   facet normal 9.182422e-001 -3.960194e-001 0.000000e+000
      outer loop
         vertex 2.672724e+000 1.375000e+000 1.180000e+001
         vertex 2.742708e+000 1.525081e+000 5.000000e-001
         vertex 2.742708e+000 1.525081e+000 1.180000e+001
      endloop
   endfacet
   facet normal 9.579706e-001 -2.868663e-001 0.000000e+000
      outer loop
         vertex 2.742708e+000 1.525081e+000 1.180000e+001
         vertex 2.742708e+000 1.525081e+000 5.000000e-001
         vertex 2.785568e+000 1.685034e+000 5.000000e-001
      endloop
   endfacet
   facet normal 9.730601e-001 -2.305518e-001 0.000000e+000
      outer loop
         vertex 2.742708e+000 1.525081e+000 1.180000e+001
         vertex 2.785568e+000 1.685034e+000 5.000000e-001
         vertex 2.785568e+000 1.685034e+000 1.180000e+001
      endloop
   endfacet
   facet normal 9.932307e-001 -1.161583e-001 0.000000e+000
      outer loop
         vertex 2.785568e+000 1.685034e+000 1.180000e+001
         vertex 2.785568e+000 1.685034e+000 5.000000e-001
         vertex 2.800000e+000 1.850000e+000 5.000000e-001
      endloop
   endfacet
   facet normal 9.983119e-001 -5.807913e-002 0.000000e+000
      outer loop
         vertex 2.785568e+000 1.685034e+000 1.180000e+001
         vertex 2.800000e+000 1.850000e+000 5.000000e-001
         vertex 2.800000e+000 1.850000e+000 1.180000e+001
      endloop
   endfacet
   facet normal 9.983119e-001 5.807913e-002 0.000000e+000
      outer loop
         vertex 2.800000e+000 1.850000e+000 1.180000e+001
         vertex 2.800000e+000 1.850000e+000 5.000000e-001
         vertex 2.785568e+000 2.014966e+000 5.000000e-001
      endloop
   endfacet
   facet normal 9.932307e-001 1.161583e-001 0.000000e+000
      outer loop
         vertex 2.800000e+000 1.850000e+000 1.180000e+001
         vertex 2.785568e+000 2.014966e+000 5.000000e-001
         vertex 2.785568e+000 2.014966e+000 1.180000e+001
      endloop
   endfacet
   facet normal 9.730601e-001 2.305518e-001 0.000000e+000
      outer loop
         vertex 2.785568e+000 2.014966e+000 1.180000e+001
         vertex 2.785568e+000 2.014966e+000 5.000000e-001
         vertex 2.742708e+000 2.174919e+000 5.000000e-001
      endloop
   endfacet
   facet normal 9.579706e-001 2.868663e-001 0.000000e+000
      outer loop
         vertex 2.785568e+000 2.014966e+000 1.180000e+001
         vertex 2.742708e+000 2.174919e+000 5.000000e-001
         vertex 2.742708e+000 2.174919e+000 1.180000e+001
      endloop
   endfacet
   facet normal 9.182422e-001 3.960194e-001 0.000000e+000
      outer loop
         vertex 2.742708e+000 2.174919e+000 1.180000e+001
         vertex 2.742708e+000 2.174919e+000 5.000000e-001
         vertex 2.672724e+000 2.325000e+000 5.000000e-001
      endloop
   endfacet
   facet normal 8.936031e-001 4.488580e-001 0.000000e+000
      outer loop
         vertex 2.742708e+000 2.174919e+000 1.180000e+001
         vertex 2.672724e+000 2.325000e+000 5.000000e-001
         vertex 2.672724e+000 2.325000e+000 1.180000e+001
      endloop
   endfacet
   facet normal 8.355240e-001 5.494540e-001 0.000000e+000
      outer loop
         vertex 2.672724e+000 2.325000e+000 1.180000e+001
         vertex 2.672724e+000 2.325000e+000 5.000000e-001
         vertex 2.577742e+000 2.460648e+000 5.000000e-001
      endloop
   endfacet
   facet normal 8.020838e-001 5.972114e-001 0.000000e+000
      outer loop
         vertex 2.672724e+000 2.325000e+000 1.180000e+001
         vertex 2.577742e+000 2.460648e+000 5.000000e-001
         vertex 2.577742e+000 2.460648e+000 1.180000e+001
      endloop
   endfacet
   facet normal 7.274188e-001 6.861938e-001 0.000000e+000
      outer loop
         vertex 2.577742e+000 2.460648e+000 1.180000e+001
         vertex 2.577742e+000 2.460648e+000 5.000000e-001
         vertex 2.460648e+000 2.577742e+000 5.000000e-001
      endloop
   endfacet
   facet normal 6.861938e-001 7.274188e-001 0.000000e+000
      outer loop
         vertex 2.577742e+000 2.460648e+000 1.180000e+001
         vertex 2.460648e+000 2.577742e+000 5.000000e-001
         vertex 2.460648e+000 2.577742e+000 1.180000e+001
      endloop
   endfacet
   facet normal 5.972114e-001 8.020838e-001 0.000000e+000
      outer loop
         vertex 2.460648e+000 2.577742e+000 1.180000e+001
         vertex 2.460648e+000 2.577742e+000 5.000000e-001
         vertex 2.325000e+000 2.672724e+000 5.000000e-001
      endloop
   endfacet
   facet normal 5.494540e-001 8.355240e-001 0.000000e+000
      outer loop
         vertex 2.460648e+000 2.577742e+000 1.180000e+001
         vertex 2.325000e+000 2.672724e+000 5.000000e-001
         vertex 2.325000e+000 2.672724e+000 1.180000e+001
      endloop
   endfacet
   facet normal 4.488580e-001 8.936031e-001 0.000000e+000
      outer loop
         vertex 2.325000e+000 2.672724e+000 1.180000e+001
         vertex 2.325000e+000 2.672724e+000 5.000000e-001
         vertex 2.174919e+000 2.742708e+000 5.000000e-001
      endloop
   endfacet
   facet normal 3.960194e-001 9.182422e-001 0.000000e+000
      outer loop
         vertex 2.325000e+000 2.672724e+000 1.180000e+001
         vertex 2.174919e+000 2.742708e+000 5.000000e-001
         vertex 2.174919e+000 2.742708e+000 1.180000e+001
      endloop
   endfacet
   facet normal 2.868663e-001 9.579706e-001 0.000000e+000
      outer loop
         vertex 2.174919e+000 2.742708e+000 1.180000e+001
         vertex 2.174919e+000 2.742708e+000 5.000000e-001
         vertex 2.014966e+000 2.785568e+000 5.000000e-001
      endloop
   endfacet
   facet normal 2.305518e-001 9.730601e-001 0.000000e+000
      outer loop
         vertex 2.174919e+000 2.742708e+000 1.180000e+001
         vertex 2.014966e+000 2.785568e+000 5.000000e-001
         vertex 2.014966e+000 2.785568e+000 1.180000e+001
      endloop
   endfacet
   facet normal 1.161583e-001 9.932307e-001 0.000000e+000
      outer loop
         vertex 2.014966e+000 2.785568e+000 1.180000e+001
         vertex 2.014966e+000 2.785568e+000 5.000000e-001
         vertex 1.850000e+000 2.800000e+000 5.000000e-001
      endloop
   endfacet
   facet normal 5.807913e-002 9.983119e-001 0.000000e+000
      outer loop
         vertex 2.014966e+000 2.785568e+000 1.180000e+001
         vertex 1.850000e+000 2.800000e+000 5.000000e-001
         vertex 1.850000e+000 2.800000e+000 1.180000e+001
      endloop
   endfacet
   facet normal -5.807913e-002 9.983119e-001 0.000000e+000
      outer loop
         vertex 1.850000e+000 2.800000e+000 1.180000e+001
         vertex 1.850000e+000 2.800000e+000 5.000000e-001
         vertex 1.685034e+000 2.785568e+000 5.000000e-001
      endloop
   endfacet
   facet normal -1.161583e-001 9.932307e-001 0.000000e+000
      outer loop
         vertex 1.850000e+000 2.800000e+000 1.180000e+001
         vertex 1.685034e+000 2.785568e+000 5.000000e-001
         vertex 1.685034e+000 2.785568e+000 1.180000e+001
      endloop
   endfacet
   facet normal -2.305518e-001 9.730601e-001 0.000000e+000
      outer loop
         vertex 1.685034e+000 2.785568e+000 1.180000e+001
         vertex 1.685034e+000 2.785568e+000 5.000000e-001
         vertex 1.525081e+000 2.742708e+000 5.000000e-001
      endloop
   endfacet
   facet normal -2.868663e-001 9.579706e-001 0.000000e+000
      outer loop
         vertex 1.685034e+000 2.785568e+000 1.180000e+001
         vertex 1.525081e+000 2.742708e+000 5.000000e-001
         vertex 1.525081e+000 2.742708e+000 1.180000e+001
      endloop
   endfacet
   facet normal -3.960194e-001 9.182422e-001 0.000000e+000
      outer loop
         vertex 1.525081e+000 2.742708e+000 1.180000e+001
         vertex 1.525081e+000 2.742708e+000 5.000000e-001
         vertex 1.375000e+000 2.672724e+000 5.000000e-001
      endloop
   endfacet
   facet normal -4.488580e-001 8.936031e-001 0.000000e+000
      outer loop
         vertex 1.525081e+000 2.742708e+000 1.180000e+001
         vertex 1.375000e+000 2.672724e+000 5.000000e-001
         vertex 1.375000e+000 2.672724e+000 1.180000e+001
      endloop
   endfacet
   facet normal -5.494540e-001 8.355240e-001 0.000000e+000
      outer loop
         vertex 1.375000e+000 2.672724e+000 1.180000e+001
         vertex 1.375000e+000 2.672724e+000 5.000000e-001
         vertex 1.239352e+000 2.577742e+000 5.000000e-001
      endloop
   endfacet
   facet normal -5.972114e-001 8.020838e-001 0.000000e+000
      outer loop
         vertex 1.375000e+000 2.672724e+000 1.180000e+001
         vertex 1.239352e+000 2.577742e+000 5.000000e-001
         vertex 1.239352e+000 2.577742e+000 1.180000e+001
      endloop
   endfacet
   facet normal -6.861938e-001 7.274188e-001 0.000000e+000
      outer loop
         vertex 1.239352e+000 2.577742e+000 1.180000e+001
         vertex 1.239352e+000 2.577742e+000 5.000000e-001
         vertex 1.122258e+000 2.460648e+000 5.000000e-001
      endloop
   endfacet
   facet normal -7.274188e-001 6.861938e-001 0.000000e+000
      outer loop
         vertex 1.239352e+000 2.577742e+000 1.180000e+001
         vertex 1.122258e+000 2.460648e+000 5.000000e-001
         vertex 1.122258e+000 2.460648e+000 1.180000e+001
      endloop
   endfacet
   facet normal -8.020838e-001 5.972114e-001 0.000000e+000
      outer loop
         vertex 1.122258e+000 2.460648e+000 1.180000e+001
         vertex 1.122258e+000 2.460648e+000 5.000000e-001
         vertex 1.027276e+000 2.325000e+000 5.000000e-001
      endloop
   endfacet
   facet normal -8.355240e-001 5.494540e-001 0.000000e+000
      outer loop
         vertex 1.122258e+000 2.460648e+000 1.180000e+001
         vertex 1.027276e+000 2.325000e+000 5.000000e-001
         vertex 1.027276e+000 2.325000e+000 1.180000e+001
      endloop
   endfacet
   facet normal -8.936031e-001 4.488580e-001 0.000000e+000
      outer loop
         vertex 1.027276e+000 2.325000e+000 1.180000e+001
         vertex 1.027276e+000 2.325000e+000 5.000000e-001
         vertex 9.572920e-001 2.174919e+000 5.000000e-001
      endloop
   endfacet
   facet normal -9.182422e-001 3.960194e-001 0.000000e+000
      outer loop
         vertex 1.027276e+000 2.325000e+000 1.180000e+001
         vertex 9.572920e-001 2.174919e+000 5.000000e-001
         vertex 9.572920e-001 2.174919e+000 1.180000e+001
      endloop
   endfacet
   facet normal -9.579706e-001 2.868663e-001 0.000000e+000
      outer loop
         vertex 9.572920e-001 2.174919e+000 1.180000e+001
         vertex 9.572920e-001 2.174919e+000 5.000000e-001
         vertex 9.144326e-001 2.014966e+000 5.000000e-001
      endloop
   endfacet
   facet normal -9.730601e-001 2.305518e-001 0.000000e+000
      outer loop
         vertex 9.572920e-001 2.174919e+000 1.180000e+001
         vertex 9.144326e-001 2.014966e+000 5.000000e-001
         vertex 9.144326e-001 2.014966e+000 1.180000e+001
      endloop
   endfacet
   facet normal -9.932307e-001 1.161583e-001 0.000000e+000
      outer loop
         vertex 9.144326e-001 2.014966e+000 1.180000e+001
         vertex 9.144326e-001 2.014966e+000 5.000000e-001
         vertex 9.000000e-001 1.850000e+000 5.000000e-001
      endloop
   endfacet
   facet normal 0.000000e+000 0.000000e+000 1.000000e+000
      outer loop
         vertex 2.742708e+000 2.174919e+000 1.180000e+001
         vertex 9.572920e-001 1.525081e+000 1.180000e+001
         vertex 1.027276e+000 1.375000e+000 1.180000e+001
      endloop
   endfacet
   facet normal 0.000000e+000 0.000000e+000 1.000000e+000
      outer loop
         vertex 9.572920e-001 1.525081e+000 1.180000e+001
         vertex 2.325000e+000 2.672724e+000 1.180000e+001
         vertex 2.174919e+000 2.742708e+000 1.180000e+001
      endloop
   endfacet
   facet normal 0.000000e+000 0.000000e+000 1.000000e+000
      outer loop
         vertex 2.460648e+000 2.577742e+000 1.180000e+001
         vertex 2.325000e+000 2.672724e+000 1.180000e+001
         vertex 2.577742e+000 2.460648e+000 1.180000e+001
      endloop
   endfacet
   facet normal 0.000000e+000 0.000000e+000 1.000000e+000
      outer loop
         vertex 2.577742e+000 2.460648e+000 1.180000e+001
         vertex 2.325000e+000 2.672724e+000 1.180000e+001
         vertex 9.572920e-001 1.525081e+000 1.180000e+001
      endloop
   endfacet
   facet normal 0.000000e+000 0.000000e+000 1.000000e+000
      outer loop
         vertex 2.577742e+000 2.460648e+000 1.180000e+001
         vertex 9.572920e-001 1.525081e+000 1.180000e+001
         vertex 2.672724e+000 2.325000e+000 1.180000e+001
      endloop
   endfacet
   facet normal 0.000000e+000 0.000000e+000 1.000000e+000
      outer loop
         vertex 2.672724e+000 2.325000e+000 1.180000e+001
         vertex 9.572920e-001 1.525081e+000 1.180000e+001
         vertex 2.742708e+000 2.174919e+000 1.180000e+001
      endloop
   endfacet
   facet normal 0.000000e+000 0.000000e+000 1.000000e+000
      outer loop
         vertex 1.375000e+000 1.027276e+000 1.180000e+001
         vertex 1.525081e+000 9.572920e-001 1.180000e+001
         vertex 1.239352e+000 1.122258e+000 1.180000e+001
      endloop
   endfacet
   facet normal 0.000000e+000 0.000000e+000 1.000000e+000
      outer loop
         vertex 1.239352e+000 1.122258e+000 1.180000e+001
         vertex 1.525081e+000 9.572920e-001 1.180000e+001
         vertex 2.742708e+000 2.174919e+000 1.180000e+001
      endloop
   endfacet
   facet normal 0.000000e+000 0.000000e+000 1.000000e+000
      outer loop
         vertex 1.239352e+000 1.122258e+000 1.180000e+001
         vertex 2.742708e+000 2.174919e+000 1.180000e+001
         vertex 1.122258e+000 1.239352e+000 1.180000e+001
      endloop
   endfacet
   facet normal 0.000000e+000 0.000000e+000 1.000000e+000
      outer loop
         vertex 1.122258e+000 1.239352e+000 1.180000e+001
         vertex 2.742708e+000 2.174919e+000 1.180000e+001
         vertex 1.027276e+000 1.375000e+000 1.180000e+001
      endloop
   endfacet
   facet normal 0.000000e+000 0.000000e+000 1.000000e+000
      outer loop
         vertex 2.785568e+000 2.014966e+000 1.180000e+001
         vertex 2.742708e+000 2.174919e+000 1.180000e+001
         vertex 2.800000e+000 1.850000e+000 1.180000e+001
      endloop
   endfacet
   facet normal 0.000000e+000 0.000000e+000 1.000000e+000
      outer loop
         vertex 2.800000e+000 1.850000e+000 1.180000e+001
         vertex 2.742708e+000 2.174919e+000 1.180000e+001
         vertex 1.525081e+000 9.572920e-001 1.180000e+001
      endloop
   endfacet
   facet normal 0.000000e+000 0.000000e+000 1.000000e+000
      outer loop
         vertex 2.800000e+000 1.850000e+000 1.180000e+001
         vertex 1.525081e+000 9.572920e-001 1.180000e+001
         vertex 2.785568e+000 1.685034e+000 1.180000e+001
      endloop
   endfacet
   facet normal 0.000000e+000 0.000000e+000 1.000000e+000
      outer loop
         vertex 2.785568e+000 1.685034e+000 1.180000e+001
         vertex 1.525081e+000 9.572920e-001 1.180000e+001
         vertex 2.742708e+000 1.525081e+000 1.180000e+001
      endloop
   endfacet
   facet normal 0.000000e+000 0.000000e+000 1.000000e+000
      outer loop
         vertex 9.572920e-001 1.525081e+000 1.180000e+001
         vertex 1.525081e+000 2.742708e+000 1.180000e+001
         vertex 1.375000e+000 2.672724e+000 1.180000e+001
      endloop
   endfacet
   facet normal 0.000000e+000 0.000000e+000 1.000000e+000
      outer loop
         vertex 2.014966e+000 9.144326e-001 1.180000e+001
         vertex 2.174919e+000 9.572920e-001 1.180000e+001
         vertex 1.850000e+000 9.000000e-001 1.180000e+001
      endloop
   endfacet
   facet normal 0.000000e+000 0.000000e+000 1.000000e+000
      outer loop
         vertex 1.850000e+000 9.000000e-001 1.180000e+001
         vertex 2.174919e+000 9.572920e-001 1.180000e+001
         vertex 2.325000e+000 1.027276e+000 1.180000e+001
      endloop
   endfacet
   facet normal 0.000000e+000 0.000000e+000 1.000000e+000
      outer loop
         vertex 1.850000e+000 9.000000e-001 1.180000e+001
         vertex 2.325000e+000 1.027276e+000 1.180000e+001
         vertex 1.685034e+000 9.144326e-001 1.180000e+001
      endloop
   endfacet
   facet normal 0.000000e+000 0.000000e+000 1.000000e+000
      outer loop
         vertex 1.685034e+000 9.144326e-001 1.180000e+001
         vertex 2.325000e+000 1.027276e+000 1.180000e+001
         vertex 1.525081e+000 9.572920e-001 1.180000e+001
      endloop
   endfacet
   facet normal 0.000000e+000 0.000000e+000 1.000000e+000
      outer loop
         vertex 1.685034e+000 2.785568e+000 1.180000e+001
         vertex 1.525081e+000 2.742708e+000 1.180000e+001
         vertex 1.850000e+000 2.800000e+000 1.180000e+001
      endloop
   endfacet
   facet normal 0.000000e+000 0.000000e+000 1.000000e+000
      outer loop
         vertex 1.850000e+000 2.800000e+000 1.180000e+001
         vertex 1.525081e+000 2.742708e+000 1.180000e+001
         vertex 9.572920e-001 1.525081e+000 1.180000e+001
      endloop
   endfacet
   facet normal 0.000000e+000 0.000000e+000 1.000000e+000
      outer loop
         vertex 1.850000e+000 2.800000e+000 1.180000e+001
         vertex 9.572920e-001 1.525081e+000 1.180000e+001
         vertex 2.014966e+000 2.785568e+000 1.180000e+001
      endloop
   endfacet
   facet normal 0.000000e+000 0.000000e+000 1.000000e+000
      outer loop
         vertex 2.014966e+000 2.785568e+000 1.180000e+001
         vertex 9.572920e-001 1.525081e+000 1.180000e+001
         vertex 2.174919e+000 2.742708e+000 1.180000e+001
      endloop
   endfacet
   facet normal 0.000000e+000 0.000000e+000 1.000000e+000
      outer loop
         vertex 2.672724e+000 1.375000e+000 1.180000e+001
         vertex 2.742708e+000 1.525081e+000 1.180000e+001
         vertex 2.577742e+000 1.239352e+000 1.180000e+001
      endloop
   endfacet
   facet normal 0.000000e+000 0.000000e+000 1.000000e+000
      outer loop
         vertex 2.577742e+000 1.239352e+000 1.180000e+001
         vertex 2.742708e+000 1.525081e+000 1.180000e+001
         vertex 1.525081e+000 9.572920e-001 1.180000e+001
      endloop
   endfacet
   facet normal 0.000000e+000 0.000000e+000 1.000000e+000
      outer loop
         vertex 2.577742e+000 1.239352e+000 1.180000e+001
         vertex 1.525081e+000 9.572920e-001 1.180000e+001
         vertex 2.460648e+000 1.122258e+000 1.180000e+001
      endloop
   endfacet
   facet normal 0.000000e+000 0.000000e+000 1.000000e+000
      outer loop
         vertex 2.460648e+000 1.122258e+000 1.180000e+001
         vertex 1.525081e+000 9.572920e-001 1.180000e+001
         vertex 2.325000e+000 1.027276e+000 1.180000e+001
      endloop
   endfacet
   facet normal 0.000000e+000 0.000000e+000 1.000000e+000
      outer loop
         vertex 1.375000e+000 2.672724e+000 1.180000e+001
         vertex 1.239352e+000 2.577742e+000 1.180000e+001
         vertex 9.572920e-001 1.525081e+000 1.180000e+001
      endloop
   endfacet
   facet normal 0.000000e+000 0.000000e+000 1.000000e+000
      outer loop
         vertex 9.572920e-001 1.525081e+000 1.180000e+001
         vertex 1.239352e+000 2.577742e+000 1.180000e+001
         vertex 1.122258e+000 2.460648e+000 1.180000e+001
      endloop
   endfacet
   facet normal 0.000000e+000 0.000000e+000 1.000000e+000
      outer loop
         vertex 9.572920e-001 1.525081e+000 1.180000e+001
         vertex 1.122258e+000 2.460648e+000 1.180000e+001
         vertex 1.027276e+000 2.325000e+000 1.180000e+001
      endloop
   endfacet
   facet normal 0.000000e+000 0.000000e+000 1.000000e+000
      outer loop
         vertex 9.000000e-001 1.850000e+000 1.180000e+001
         vertex 9.144326e-001 1.685034e+000 1.180000e+001
         vertex 9.144326e-001 2.014966e+000 1.180000e+001
      endloop
   endfacet
   facet normal 0.000000e+000 0.000000e+000 1.000000e+000
      outer loop
         vertex 9.144326e-001 2.014966e+000 1.180000e+001
         vertex 9.144326e-001 1.685034e+000 1.180000e+001
         vertex 9.572920e-001 1.525081e+000 1.180000e+001
      endloop
   endfacet
   facet normal 0.000000e+000 0.000000e+000 1.000000e+000
      outer loop
         vertex 9.144326e-001 2.014966e+000 1.180000e+001
         vertex 9.572920e-001 1.525081e+000 1.180000e+001
         vertex 9.572920e-001 2.174919e+000 1.180000e+001
      endloop
   endfacet
   facet normal 0.000000e+000 0.000000e+000 1.000000e+000
      outer loop
         vertex 9.572920e-001 2.174919e+000 1.180000e+001
         vertex 9.572920e-001 1.525081e+000 1.180000e+001
         vertex 1.027276e+000 2.325000e+000 1.180000e+001
      endloop
   endfacet
   facet normal 0.000000e+000 0.000000e+000 1.000000e+000
      outer loop
         vertex 1.375000e+000 1.027276e+000 5.000000e-001
         vertex 1.056919e+000 1.786167e-001 5.000000e-001
         vertex 1.525081e+000 9.572920e-001 5.000000e-001
      endloop
   endfacet
   facet normal 0.000000e+000 0.000000e+000 1.000000e+000
      outer loop
         vertex 1.525081e+000 9.572920e-001 5.000000e-001
         vertex 1.056919e+000 1.786167e-001 5.000000e-001
         vertex 1.335298e+000 7.304154e-002 5.000000e-001
      endloop
   endfacet
   facet normal 0.000000e+000 0.000000e+000 1.000000e+000
      outer loop
         vertex 1.525081e+000 9.572920e-001 5.000000e-001
         vertex 1.335298e+000 7.304154e-002 5.000000e-001
         vertex 1.685034e+000 9.144326e-001 5.000000e-001
      endloop
   endfacet
   facet normal 0.000000e+000 0.000000e+000 1.000000e+000
      outer loop
         vertex 1.685034e+000 9.144326e-001 5.000000e-001
         vertex 1.335298e+000 7.304154e-002 5.000000e-001
         vertex 1.627007e+000 1.348858e-002 5.000000e-001
      endloop
   endfacet
   facet normal 0.000000e+000 0.000000e+000 1.000000e+000
      outer loop
         vertex 1.685034e+000 9.144326e-001 5.000000e-001
         vertex 1.627007e+000 1.348858e-002 5.000000e-001
         vertex 1.850000e+000 9.000000e-001 5.000000e-001
      endloop
   endfacet
   facet normal 0.000000e+000 0.000000e+000 1.000000e+000
      outer loop
         vertex 1.850000e+000 9.000000e-001 5.000000e-001
         vertex 1.627007e+000 1.348858e-002 5.000000e-001
         vertex 1.924492e+000 1.500361e-003 5.000000e-001
      endloop
   endfacet
   facet normal 0.000000e+000 0.000000e+000 1.000000e+000
      outer loop
         vertex 1.850000e+000 9.000000e-001 5.000000e-001
         vertex 1.924492e+000 1.500361e-003 5.000000e-001
         vertex 2.014966e+000 9.144326e-001 5.000000e-001
      endloop
   endfacet
   facet normal 0.000000e+000 0.000000e+000 1.000000e+000
      outer loop
         vertex 2.014966e+000 9.144326e-001 5.000000e-001
         vertex 1.924492e+000 1.500361e-003 5.000000e-001
         vertex 2.220048e+000 3.738724e-002 5.000000e-001
      endloop
   endfacet
   facet normal 0.000000e+000 0.000000e+000 1.000000e+000
      outer loop
         vertex 2.014966e+000 9.144326e-001 5.000000e-001
         vertex 2.220048e+000 3.738724e-002 5.000000e-001
         vertex 2.174919e+000 9.572920e-001 5.000000e-001
      endloop
   endfacet
   facet normal 0.000000e+000 0.000000e+000 1.000000e+000
      outer loop
         vertex 2.174919e+000 9.572920e-001 5.000000e-001
         vertex 2.220048e+000 3.738724e-002 5.000000e-001
         vertex 2.506019e+000 1.202200e-001 5.000000e-001
      endloop
   endfacet
   facet normal 0.000000e+000 0.000000e+000 1.000000e+000
      outer loop
         vertex 2.174919e+000 9.572920e-001 5.000000e-001
         vertex 2.506019e+000 1.202200e-001 5.000000e-001
         vertex 2.325000e+000 1.027276e+000 5.000000e-001
      endloop
   endfacet
   facet normal 0.000000e+000 0.000000e+000 1.000000e+000
      outer loop
         vertex 2.325000e+000 1.027276e+000 5.000000e-001
         vertex 2.506019e+000 1.202200e-001 5.000000e-001
         vertex 2.775000e+000 2.478530e-001 5.000000e-001
      endloop
   endfacet
   facet normal 0.000000e+000 0.000000e+000 1.000000e+000
      outer loop
         vertex 2.325000e+000 1.027276e+000 5.000000e-001
         vertex 2.775000e+000 2.478530e-001 5.000000e-001
         vertex 2.460648e+000 1.122258e+000 5.000000e-001
      endloop
   endfacet
   facet normal 0.000000e+000 0.000000e+000 1.000000e+000
      outer loop
         vertex 2.460648e+000 1.122258e+000 5.000000e-001
         vertex 2.775000e+000 2.478530e-001 5.000000e-001
         vertex 3.020024e+000 4.169808e-001 5.000000e-001
      endloop
   endfacet
   facet normal 0.000000e+000 0.000000e+000 1.000000e+000
      outer loop
         vertex 2.460648e+000 1.122258e+000 5.000000e-001
         vertex 3.020024e+000 4.169808e-001 5.000000e-001
         vertex 2.577742e+000 1.239352e+000 5.000000e-001
      endloop
   endfacet
   facet normal 0.000000e+000 0.000000e+000 1.000000e+000
      outer loop
         vertex 2.577742e+000 1.239352e+000 5.000000e-001
         vertex 3.020024e+000 4.169808e-001 5.000000e-001
         vertex 3.234745e+000 6.232231e-001 5.000000e-001
      endloop
   endfacet
   facet normal 0.000000e+000 0.000000e+000 1.000000e+000
      outer loop
         vertex 2.577742e+000 1.239352e+000 5.000000e-001
         vertex 3.234745e+000 6.232231e-001 5.000000e-001
         vertex 2.672724e+000 1.375000e+000 5.000000e-001
      endloop
   endfacet
   facet normal 0.000000e+000 0.000000e+000 1.000000e+000
      outer loop
         vertex 2.672724e+000 1.375000e+000 5.000000e-001
         vertex 3.234745e+000 6.232231e-001 5.000000e-001
         vertex 3.413602e+000 8.612382e-001 5.000000e-001
      endloop
   endfacet
   facet normal 0.000000e+000 0.000000e+000 1.000000e+000
      outer loop
         vertex 2.672724e+000 1.375000e+000 5.000000e-001
         vertex 3.413602e+000 8.612382e-001 5.000000e-001
         vertex 2.742708e+000 1.525081e+000 5.000000e-001
      endloop
   endfacet
   facet normal 0.000000e+000 0.000000e+000 1.000000e+000
      outer loop
         vertex 2.742708e+000 1.525081e+000 5.000000e-001
         vertex 3.413602e+000 8.612382e-001 5.000000e-001
         vertex 3.551962e+000 1.124862e+000 5.000000e-001
      endloop
   endfacet
   facet normal 0.000000e+000 0.000000e+000 1.000000e+000
      outer loop
         vertex 2.742708e+000 1.525081e+000 5.000000e-001
         vertex 3.551962e+000 1.124862e+000 5.000000e-001
         vertex 2.785568e+000 1.685034e+000 5.000000e-001
      endloop
   endfacet
   facet normal 0.000000e+000 0.000000e+000 1.000000e+000
      outer loop
         vertex 2.785568e+000 1.685034e+000 5.000000e-001
         vertex 3.551962e+000 1.124862e+000 5.000000e-001
         vertex 3.646242e+000 1.407266e+000 5.000000e-001
      endloop
   endfacet
   facet normal 0.000000e+000 0.000000e+000 1.000000e+000
      outer loop
         vertex 2.785568e+000 1.685034e+000 5.000000e-001
         vertex 3.646242e+000 1.407266e+000 5.000000e-001
         vertex 2.800000e+000 1.850000e+000 5.000000e-001
      endloop
   endfacet
   facet normal 0.000000e+000 0.000000e+000 1.000000e+000
      outer loop
         vertex 3.646242e+000 1.407266e+000 5.000000e-001
         vertex 3.694001e+000 1.701137e+000 5.000000e-001
         vertex 2.800000e+000 1.850000e+000 5.000000e-001
      endloop
   endfacet
   facet normal 0.000000e+000 0.000000e+000 1.000000e+000
      outer loop
         vertex 2.800000e+000 1.850000e+000 5.000000e-001
         vertex 3.694001e+000 1.701137e+000 5.000000e-001
         vertex 3.694001e+000 1.998863e+000 5.000000e-001
      endloop
   endfacet
   facet normal 0.000000e+000 0.000000e+000 1.000000e+000
      outer loop
         vertex 2.800000e+000 1.850000e+000 5.000000e-001
         vertex 3.694001e+000 1.998863e+000 5.000000e-001
         vertex 2.785568e+000 2.014966e+000 5.000000e-001
      endloop
   endfacet
   facet normal 0.000000e+000 0.000000e+000 1.000000e+000
      outer loop
         vertex 2.785568e+000 2.014966e+000 5.000000e-001
         vertex 3.694001e+000 1.998863e+000 5.000000e-001
         vertex 3.646242e+000 2.292734e+000 5.000000e-001
      endloop
   endfacet
   facet normal 0.000000e+000 0.000000e+000 1.000000e+000
      outer loop
         vertex 2.785568e+000 2.014966e+000 5.000000e-001
         vertex 3.646242e+000 2.292734e+000 5.000000e-001
         vertex 2.742708e+000 2.174919e+000 5.000000e-001
      endloop
   endfacet
   facet normal 0.000000e+000 0.000000e+000 1.000000e+000
      outer loop
         vertex 2.742708e+000 2.174919e+000 5.000000e-001
         vertex 3.646242e+000 2.292734e+000 5.000000e-001
         vertex 3.551962e+000 2.575138e+000 5.000000e-001
      endloop
   endfacet
   facet normal 0.000000e+000 0.000000e+000 1.000000e+000
      outer loop
         vertex 2.742708e+000 2.174919e+000 5.000000e-001
         vertex 3.551962e+000 2.575138e+000 5.000000e-001
         vertex 2.672724e+000 2.325000e+000 5.000000e-001
      endloop
   endfacet
   facet normal 0.000000e+000 0.000000e+000 1.000000e+000
      outer loop
         vertex 2.672724e+000 2.325000e+000 5.000000e-001
         vertex 3.551962e+000 2.575138e+000 5.000000e-001
         vertex 3.413602e+000 2.838762e+000 5.000000e-001
      endloop
   endfacet
   facet normal 0.000000e+000 0.000000e+000 1.000000e+000
      outer loop
         vertex 2.672724e+000 2.325000e+000 5.000000e-001
         vertex 3.413602e+000 2.838762e+000 5.000000e-001
         vertex 2.577742e+000 2.460648e+000 5.000000e-001
      endloop
   endfacet
   facet normal 0.000000e+000 0.000000e+000 1.000000e+000
      outer loop
         vertex 2.577742e+000 2.460648e+000 5.000000e-001
         vertex 3.413602e+000 2.838762e+000 5.000000e-001
         vertex 3.234745e+000 3.076777e+000 5.000000e-001
      endloop
   endfacet
   facet normal 0.000000e+000 0.000000e+000 1.000000e+000
      outer loop
         vertex 2.577742e+000 2.460648e+000 5.000000e-001
         vertex 3.234745e+000 3.076777e+000 5.000000e-001
         vertex 2.460648e+000 2.577742e+000 5.000000e-001
      endloop
   endfacet
   facet normal 0.000000e+000 0.000000e+000 1.000000e+000
      outer loop
         vertex 2.460648e+000 2.577742e+000 5.000000e-001
         vertex 3.234745e+000 3.076777e+000 5.000000e-001
         vertex 3.020024e+000 3.283019e+000 5.000000e-001
      endloop
   endfacet
   facet normal 0.000000e+000 0.000000e+000 1.000000e+000
      outer loop
         vertex 2.460648e+000 2.577742e+000 5.000000e-001
         vertex 3.020024e+000 3.283019e+000 5.000000e-001
         vertex 2.325000e+000 2.672724e+000 5.000000e-001
      endloop
   endfacet
   facet normal 0.000000e+000 0.000000e+000 1.000000e+000
      outer loop
         vertex 2.325000e+000 2.672724e+000 5.000000e-001
         vertex 3.020024e+000 3.283019e+000 5.000000e-001
         vertex 2.775000e+000 3.452147e+000 5.000000e-001
      endloop
   endfacet
   facet normal 0.000000e+000 0.000000e+000 1.000000e+000
      outer loop
         vertex 2.325000e+000 2.672724e+000 5.000000e-001
         vertex 2.775000e+000 3.452147e+000 5.000000e-001
         vertex 2.174919e+000 2.742708e+000 5.000000e-001
      endloop
   endfacet
   facet normal 0.000000e+000 0.000000e+000 1.000000e+000
      outer loop
         vertex 2.174919e+000 2.742708e+000 5.000000e-001
         vertex 2.775000e+000 3.452147e+000 5.000000e-001
         vertex 2.506019e+000 3.579780e+000 5.000000e-001
      endloop
   endfacet
   facet normal 0.000000e+000 0.000000e+000 1.000000e+000
      outer loop
         vertex 2.174919e+000 2.742708e+000 5.000000e-001
         vertex 2.506019e+000 3.579780e+000 5.000000e-001
         vertex 2.014966e+000 2.785568e+000 5.000000e-001
      endloop
   endfacet
   facet normal 0.000000e+000 0.000000e+000 1.000000e+000
      outer loop
         vertex 2.014966e+000 2.785568e+000 5.000000e-001
         vertex 2.506019e+000 3.579780e+000 5.000000e-001
         vertex 2.220048e+000 3.662613e+000 5.000000e-001
      endloop
   endfacet
   facet normal 0.000000e+000 0.000000e+000 1.000000e+000
      outer loop
         vertex 2.014966e+000 2.785568e+000 5.000000e-001
         vertex 2.220048e+000 3.662613e+000 5.000000e-001
         vertex 1.850000e+000 2.800000e+000 5.000000e-001
      endloop
   endfacet
   facet normal 0.000000e+000 0.000000e+000 1.000000e+000
      outer loop
         vertex 1.850000e+000 2.800000e+000 5.000000e-001
         vertex 2.220048e+000 3.662613e+000 5.000000e-001
         vertex 1.924492e+000 3.698500e+000 5.000000e-001
      endloop
   endfacet
   facet normal 0.000000e+000 0.000000e+000 1.000000e+000
      outer loop
         vertex 1.850000e+000 2.800000e+000 5.000000e-001
         vertex 1.924492e+000 3.698500e+000 5.000000e-001
         vertex 1.685034e+000 2.785568e+000 5.000000e-001
      endloop
   endfacet
   facet normal 0.000000e+000 0.000000e+000 1.000000e+000
      outer loop
         vertex 1.685034e+000 2.785568e+000 5.000000e-001
         vertex 1.924492e+000 3.698500e+000 5.000000e-001
         vertex 1.627007e+000 3.686512e+000 5.000000e-001
      endloop
   endfacet
   facet normal 0.000000e+000 0.000000e+000 1.000000e+000
      outer loop
         vertex 1.685034e+000 2.785568e+000 5.000000e-001
         vertex 1.627007e+000 3.686512e+000 5.000000e-001
         vertex 1.525081e+000 2.742708e+000 5.000000e-001
      endloop
   endfacet
   facet normal 0.000000e+000 0.000000e+000 1.000000e+000
      outer loop
         vertex 1.525081e+000 2.742708e+000 5.000000e-001
         vertex 1.627007e+000 3.686512e+000 5.000000e-001
         vertex 1.335298e+000 3.626958e+000 5.000000e-001
      endloop
   endfacet
   facet normal 0.000000e+000 0.000000e+000 1.000000e+000
      outer loop
         vertex 1.525081e+000 2.742708e+000 5.000000e-001
         vertex 1.335298e+000 3.626958e+000 5.000000e-001
         vertex 1.375000e+000 2.672724e+000 5.000000e-001
      endloop
   endfacet
   facet normal 0.000000e+000 0.000000e+000 1.000000e+000
      outer loop
         vertex 1.335298e+000 3.626958e+000 5.000000e-001
         vertex 1.056919e+000 3.521383e+000 5.000000e-001
         vertex 1.375000e+000 2.672724e+000 5.000000e-001
      endloop
   endfacet
   facet normal 0.000000e+000 0.000000e+000 1.000000e+000
      outer loop
         vertex 1.375000e+000 2.672724e+000 5.000000e-001
         vertex 1.056919e+000 3.521383e+000 5.000000e-001
         vertex 7.990803e-001 3.372520e+000 5.000000e-001
      endloop
   endfacet
   facet normal 0.000000e+000 0.000000e+000 1.000000e+000
      outer loop
         vertex 1.375000e+000 2.672724e+000 5.000000e-001
         vertex 7.990803e-001 3.372520e+000 5.000000e-001
         vertex 1.239352e+000 2.577742e+000 5.000000e-001
      endloop
   endfacet
   facet normal 0.000000e+000 0.000000e+000 1.000000e+000
      outer loop
         vertex 1.239352e+000 2.577742e+000 5.000000e-001
         vertex 7.990803e-001 3.372520e+000 5.000000e-001
         vertex 5.684600e-001 3.184224e+000 5.000000e-001
      endloop
   endfacet
   facet normal 0.000000e+000 0.000000e+000 1.000000e+000
      outer loop
         vertex 1.239352e+000 2.577742e+000 5.000000e-001
         vertex 5.684600e-001 3.184224e+000 5.000000e-001
         vertex 1.122258e+000 2.460648e+000 5.000000e-001
      endloop
   endfacet
   facet normal 0.000000e+000 0.000000e+000 1.000000e+000
      outer loop
         vertex 1.122258e+000 2.460648e+000 5.000000e-001
         vertex 5.684600e-001 3.184224e+000 5.000000e-001
         vertex 3.710309e-001 2.961373e+000 5.000000e-001
      endloop
   endfacet
   facet normal 0.000000e+000 0.000000e+000 1.000000e+000
      outer loop
         vertex 1.122258e+000 2.460648e+000 5.000000e-001
         vertex 3.710309e-001 2.961373e+000 5.000000e-001
         vertex 1.027276e+000 2.325000e+000 5.000000e-001
      endloop
   endfacet
   facet normal 0.000000e+000 0.000000e+000 1.000000e+000
      outer loop
         vertex 1.027276e+000 2.325000e+000 5.000000e-001
         vertex 3.710309e-001 2.961373e+000 5.000000e-001
         vertex 2.119064e-001 2.709738e+000 5.000000e-001
      endloop
   endfacet
   facet normal 0.000000e+000 0.000000e+000 1.000000e+000
      outer loop
         vertex 1.027276e+000 2.325000e+000 5.000000e-001
         vertex 2.119064e-001 2.709738e+000 5.000000e-001
         vertex 9.572920e-001 2.174919e+000 5.000000e-001
      endloop
   endfacet
   facet normal 0.000000e+000 0.000000e+000 1.000000e+000
      outer loop
         vertex 9.572920e-001 2.174919e+000 5.000000e-001
         vertex 2.119064e-001 2.709738e+000 5.000000e-001
         vertex 9.520759e-002 2.435836e+000 5.000000e-001
      endloop
   endfacet
   facet normal 0.000000e+000 0.000000e+000 1.000000e+000
      outer loop
         vertex 9.572920e-001 2.174919e+000 5.000000e-001
         vertex 9.520759e-002 2.435836e+000 5.000000e-001
         vertex 9.144326e-001 2.014966e+000 5.000000e-001
      endloop
   endfacet
   facet normal 0.000000e+000 0.000000e+000 1.000000e+000
      outer loop
         vertex 9.144326e-001 2.014966e+000 5.000000e-001
         vertex 9.520759e-002 2.435836e+000 5.000000e-001
         vertex 2.395699e-002 2.146761e+000 5.000000e-001
      endloop
   endfacet
   facet normal 0.000000e+000 0.000000e+000 1.000000e+000
      outer loop
         vertex 9.144326e-001 2.014966e+000 5.000000e-001
         vertex 2.395699e-002 2.146761e+000 5.000000e-001
         vertex 9.000000e-001 1.850000e+000 5.000000e-001
      endloop
   endfacet
   facet normal 0.000000e+000 0.000000e+000 1.000000e+000
      outer loop
         vertex 9.000000e-001 1.850000e+000 5.000000e-001
         vertex 2.395699e-002 2.146761e+000 5.000000e-001
         vertex 0.000000e+000 1.850000e+000 5.000000e-001
      endloop
   endfacet
   facet normal 0.000000e+000 0.000000e+000 1.000000e+000
      outer loop
         vertex 9.000000e-001 1.850000e+000 5.000000e-001
         vertex 0.000000e+000 1.850000e+000 5.000000e-001
         vertex 9.144326e-001 1.685034e+000 5.000000e-001
      endloop
   endfacet
   facet normal 0.000000e+000 0.000000e+000 1.000000e+000
      outer loop
         vertex 9.144326e-001 1.685034e+000 5.000000e-001
         vertex 0.000000e+000 1.850000e+000 5.000000e-001
         vertex 2.395699e-002 1.553239e+000 5.000000e-001
      endloop
   endfacet
   facet normal 0.000000e+000 0.000000e+000 1.000000e+000
      outer loop
         vertex 9.144326e-001 1.685034e+000 5.000000e-001
         vertex 2.395699e-002 1.553239e+000 5.000000e-001
         vertex 9.572920e-001 1.525081e+000 5.000000e-001
      endloop
   endfacet
   facet normal 0.000000e+000 0.000000e+000 1.000000e+000
      outer loop
         vertex 9.572920e-001 1.525081e+000 5.000000e-001
         vertex 2.395699e-002 1.553239e+000 5.000000e-001
         vertex 9.520759e-002 1.264164e+000 5.000000e-001
      endloop
   endfacet
   facet normal 0.000000e+000 0.000000e+000 1.000000e+000
      outer loop
         vertex 9.572920e-001 1.525081e+000 5.000000e-001
         vertex 9.520759e-002 1.264164e+000 5.000000e-001
         vertex 1.027276e+000 1.375000e+000 5.000000e-001
      endloop
   endfacet
   facet normal 0.000000e+000 0.000000e+000 1.000000e+000
      outer loop
         vertex 1.027276e+000 1.375000e+000 5.000000e-001
         vertex 9.520759e-002 1.264164e+000 5.000000e-001
         vertex 2.119064e-001 9.902622e-001 5.000000e-001
      endloop
   endfacet
   facet normal 0.000000e+000 0.000000e+000 1.000000e+000
      outer loop
         vertex 1.027276e+000 1.375000e+000 5.000000e-001
         vertex 2.119064e-001 9.902622e-001 5.000000e-001
         vertex 1.122258e+000 1.239352e+000 5.000000e-001
      endloop
   endfacet
   facet normal 0.000000e+000 0.000000e+000 1.000000e+000
      outer loop
         vertex 1.122258e+000 1.239352e+000 5.000000e-001
         vertex 2.119064e-001 9.902622e-001 5.000000e-001
         vertex 3.710309e-001 7.386268e-001 5.000000e-001
      endloop
   endfacet
   facet normal 0.000000e+000 0.000000e+000 1.000000e+000
      outer loop
         vertex 1.122258e+000 1.239352e+000 5.000000e-001
         vertex 3.710309e-001 7.386268e-001 5.000000e-001
         vertex 1.239352e+000 1.122258e+000 5.000000e-001
      endloop
   endfacet
   facet normal 0.000000e+000 0.000000e+000 1.000000e+000
      outer loop
         vertex 1.239352e+000 1.122258e+000 5.000000e-001
         vertex 3.710309e-001 7.386268e-001 5.000000e-001
         vertex 5.684600e-001 5.157755e-001 5.000000e-001
      endloop
   endfacet
   facet normal 0.000000e+000 0.000000e+000 1.000000e+000
      outer loop
         vertex 1.239352e+000 1.122258e+000 5.000000e-001
         vertex 5.684600e-001 5.157755e-001 5.000000e-001
         vertex 1.375000e+000 1.027276e+000 5.000000e-001
      endloop
   endfacet
   facet normal 0.000000e+000 0.000000e+000 1.000000e+000
      outer loop
         vertex 1.375000e+000 1.027276e+000 5.000000e-001
         vertex 5.684600e-001 5.157755e-001 5.000000e-001
         vertex 7.990803e-001 3.274798e-001 5.000000e-001
      endloop
   endfacet
   facet normal 0.000000e+000 0.000000e+000 1.000000e+000
      outer loop
         vertex 1.375000e+000 1.027276e+000 5.000000e-001
         vertex 7.990803e-001 3.274798e-001 5.000000e-001
         vertex 1.056919e+000 1.786167e-001 5.000000e-001
      endloop
   endfacet
   facet normal -9.985611e-001 5.362497e-002 0.000000e+000
      outer loop
         vertex 2.395699e-002 2.146761e+000 5.000000e-001
         vertex 0.000000e+000 1.850000e+000 0.000000e+000
         vertex 0.000000e+000 1.850000e+000 5.000000e-001
      endloop
   endfacet
   facet normal -9.985611e-001 -5.362497e-002 0.000000e+000
      outer loop
         vertex 0.000000e+000 1.850000e+000 5.000000e-001
         vertex 0.000000e+000 1.850000e+000 0.000000e+000
         vertex 2.395699e-002 1.553239e+000 0.000000e+000
      endloop
   endfacet
   facet normal -9.942321e-001 -1.072499e-001 0.000000e+000
      outer loop
         vertex 0.000000e+000 1.850000e+000 5.000000e-001
         vertex 2.395699e-002 1.553239e+000 0.000000e+000
         vertex 2.395699e-002 1.553239e+000 5.000000e-001
      endloop
   endfacet
   facet normal -9.770280e-001 -2.131110e-001 0.000000e+000
      outer loop
         vertex 2.395699e-002 1.553239e+000 5.000000e-001
         vertex 2.395699e-002 1.553239e+000 0.000000e+000
         vertex 9.520759e-002 1.264164e+000 0.000000e+000
      endloop
   endfacet
   facet normal -9.641530e-001 -2.653471e-001 0.000000e+000
      outer loop
         vertex 2.395699e-002 1.553239e+000 5.000000e-001
         vertex 9.520759e-002 1.264164e+000 0.000000e+000
         vertex 9.520759e-002 1.264164e+000 5.000000e-001
      endloop
   endfacet
   facet normal -9.301903e-001 -3.670776e-001 0.000000e+000
      outer loop
         vertex 9.520759e-002 1.264164e+000 5.000000e-001
         vertex 9.520759e-002 1.264164e+000 0.000000e+000
         vertex 2.119064e-001 9.902622e-001 0.000000e+000
      endloop
   endfacet
   facet normal -9.091027e-001 -4.165720e-001 0.000000e+000
      outer loop
         vertex 9.520759e-002 1.264164e+000 5.000000e-001
         vertex 2.119064e-001 9.902622e-001 0.000000e+000
         vertex 2.119064e-001 9.902622e-001 5.000000e-001
      endloop
   endfacet
   facet normal -8.592612e-001 -5.115371e-001 0.000000e+000
      outer loop
         vertex 2.119064e-001 9.902622e-001 5.000000e-001
         vertex 2.119064e-001 9.902622e-001 0.000000e+000
         vertex 3.710309e-001 7.386268e-001 0.000000e+000
      endloop
   endfacet
   facet normal -8.305073e-001 -5.570078e-001 0.000000e+000
      outer loop
         vertex 2.119064e-001 9.902622e-001 5.000000e-001
         vertex 3.710309e-001 7.386268e-001 0.000000e+000
         vertex 3.710309e-001 7.386268e-001 5.000000e-001
      endloop
   endfacet
   facet normal -7.660777e-001 -6.427480e-001 0.000000e+000
      outer loop
         vertex 3.710309e-001 7.386268e-001 5.000000e-001
         vertex 3.710309e-001 7.386268e-001 0.000000e+000
         vertex 5.684600e-001 5.157755e-001 0.000000e+000
      endloop
   endfacet
   facet normal -7.304021e-001 -6.830174e-001 0.000000e+000
      outer loop
         vertex 3.710309e-001 7.386268e-001 5.000000e-001
         vertex 5.684600e-001 5.157755e-001 0.000000e+000
         vertex 5.684600e-001 5.157755e-001 5.000000e-001
      endloop
   endfacet
   facet normal -6.530532e-001 -7.573121e-001 0.000000e+000
      outer loop
         vertex 5.684600e-001 5.157755e-001 5.000000e-001
         vertex 5.684600e-001 5.157755e-001 0.000000e+000
         vertex 7.990803e-001 3.274798e-001 0.000000e+000
      endloop
   endfacet
   facet normal -6.113799e-001 -7.913373e-001 0.000000e+000
      outer loop
         vertex 5.684600e-001 5.157755e-001 5.000000e-001
         vertex 7.990803e-001 3.274798e-001 0.000000e+000
         vertex 7.990803e-001 3.274798e-001 5.000000e-001
      endloop
   endfacet
   facet normal -5.231149e-001 -8.522622e-001 0.000000e+000
      outer loop
         vertex 7.990803e-001 3.274798e-001 5.000000e-001
         vertex 7.990803e-001 3.274798e-001 0.000000e+000
         vertex 1.056919e+000 1.786167e-001 0.000000e+000
      endloop
   endfacet
   facet normal -4.765233e-001 -8.791618e-001 0.000000e+000
      outer loop
         vertex 7.990803e-001 3.274798e-001 5.000000e-001
         vertex 1.056919e+000 1.786167e-001 0.000000e+000
         vertex 1.056919e+000 1.786167e-001 5.000000e-001
      endloop
   endfacet
   facet normal -3.796282e-001 -9.251391e-001 0.000000e+000
      outer loop
         vertex 1.056919e+000 1.786167e-001 5.000000e-001
         vertex 1.056919e+000 1.786167e-001 0.000000e+000
         vertex 1.335298e+000 7.304154e-002 0.000000e+000
      endloop
   endfacet
   facet normal -3.293249e-001 -9.442167e-001 0.000000e+000
      outer loop
         vertex 1.056919e+000 1.786167e-001 5.000000e-001
         vertex 1.335298e+000 7.304154e-002 0.000000e+000
         vertex 1.335298e+000 7.304154e-002 5.000000e-001
      endloop
   endfacet
   facet normal -2.263094e-001 -9.740555e-001 0.000000e+000
      outer loop
         vertex 1.335298e+000 7.304154e-002 5.000000e-001
         vertex 1.335298e+000 7.304154e-002 0.000000e+000
         vertex 1.627007e+000 1.348858e-002 0.000000e+000
      endloop
   endfacet
   facet normal -1.735972e-001 -9.848167e-001 0.000000e+000
      outer loop
         vertex 1.335298e+000 7.304154e-002 5.000000e-001
         vertex 1.627007e+000 1.348858e-002 0.000000e+000
         vertex 1.627007e+000 1.348858e-002 5.000000e-001
      endloop
   endfacet
   facet normal -6.712927e-002 -9.977443e-001 0.000000e+000
      outer loop
         vertex 1.627007e+000 1.348858e-002 5.000000e-001
         vertex 1.627007e+000 1.348858e-002 0.000000e+000
         vertex 1.924492e+000 1.500361e-003 0.000000e+000
      endloop
   endfacet
   facet normal -1.337347e-002 -9.999106e-001 0.000000e+000
      outer loop
         vertex 1.627007e+000 1.348858e-002 5.000000e-001
         vertex 1.924492e+000 1.500361e-003 0.000000e+000
         vertex 1.924492e+000 1.500361e-003 5.000000e-001
      endloop
   endfacet
   facet normal 9.378948e-002 -9.955921e-001 0.000000e+000
      outer loop
         vertex 1.924492e+000 1.500361e-003 5.000000e-001
         vertex 1.924492e+000 1.500361e-003 0.000000e+000
         vertex 2.220048e+000 3.738724e-002 0.000000e+000
      endloop
   endfacet
   facet normal 1.471967e-001 -9.891073e-001 0.000000e+000
      outer loop
         vertex 1.924492e+000 1.500361e-003 5.000000e-001
         vertex 2.220048e+000 3.738724e-002 0.000000e+000
         vertex 2.220048e+000 3.738724e-002 5.000000e-001
      endloop
   endfacet
   facet normal 2.522792e-001 -9.676545e-001 0.000000e+000
      outer loop
         vertex 2.220048e+000 3.738724e-002 5.000000e-001
         vertex 2.220048e+000 3.738724e-002 0.000000e+000
         vertex 2.506019e+000 1.202200e-001 0.000000e+000
      endloop
   endfacet
   facet normal 3.039545e-001 -9.526865e-001 0.000000e+000
      outer loop
         vertex 2.220048e+000 3.738724e-002 5.000000e-001
         vertex 2.506019e+000 1.202200e-001 0.000000e+000
         vertex 2.506019e+000 1.202200e-001 5.000000e-001
      endloop
   endfacet
   facet normal 4.042349e-001 -9.146552e-001 0.000000e+000
      outer loop
         vertex 2.506019e+000 1.202200e-001 5.000000e-001
         vertex 2.506019e+000 1.202200e-001 0.000000e+000
         vertex 2.775000e+000 2.478530e-001 0.000000e+000
      endloop
   endfacet
   facet normal 4.528400e-001 -8.915918e-001 0.000000e+000
      outer loop
         vertex 2.506019e+000 1.202200e-001 5.000000e-001
         vertex 2.775000e+000 2.478530e-001 0.000000e+000
         vertex 2.775000e+000 2.478530e-001 5.000000e-001
      endloop
   endfacet
   facet normal 5.457212e-001 -8.379669e-001 0.000000e+000
      outer loop
         vertex 2.775000e+000 2.478530e-001 5.000000e-001
         vertex 2.775000e+000 2.478530e-001 0.000000e+000
         vertex 3.020024e+000 4.169808e-001 0.000000e+000
      endloop
   endfacet
   facet normal 5.899972e-001 -8.074052e-001 0.000000e+000
      outer loop
         vertex 2.775000e+000 2.478530e-001 5.000000e-001
         vertex 3.020024e+000 4.169808e-001 0.000000e+000
         vertex 3.020024e+000 4.169808e-001 5.000000e-001
      endloop
   endfacet
   facet normal 6.730735e-001 -7.395756e-001 0.000000e+000
      outer loop
         vertex 3.020024e+000 4.169808e-001 5.000000e-001
         vertex 3.020024e+000 4.169808e-001 0.000000e+000
         vertex 3.234745e+000 6.232231e-001 0.000000e+000
      endloop
   endfacet
   facet normal 7.118738e-001 -7.023074e-001 0.000000e+000
      outer loop
         vertex 3.020024e+000 4.169808e-001 5.000000e-001
         vertex 3.234745e+000 6.232231e-001 0.000000e+000
         vertex 3.234745e+000 6.232231e-001 5.000000e-001
      endloop
   endfacet
   facet normal 7.829937e-001 -6.220297e-001 0.000000e+000
      outer loop
         vertex 3.234745e+000 6.232231e-001 5.000000e-001
         vertex 3.234745e+000 6.232231e-001 0.000000e+000
         vertex 3.413602e+000 8.612382e-001 0.000000e+000
      endloop
   endfacet
   facet normal 8.153133e-001 -5.790201e-001 0.000000e+000
      outer loop
         vertex 3.234745e+000 6.232231e-001 5.000000e-001
         vertex 3.413602e+000 8.612382e-001 0.000000e+000
         vertex 3.413602e+000 8.612382e-001 5.000000e-001
      endloop
   endfacet
   facet normal 8.726347e-001 -4.883735e-001 0.000000e+000
      outer loop
         vertex 3.413602e+000 8.612382e-001 5.000000e-001
         vertex 3.413602e+000 8.612382e-001 0.000000e+000
         vertex 3.551962e+000 1.124862e+000 0.000000e+000
      endloop
   endfacet
   facet normal 8.976365e-001 -4.407365e-001 0.000000e+000
      outer loop
         vertex 3.413602e+000 8.612382e-001 5.000000e-001
         vertex 3.551962e+000 1.124862e+000 0.000000e+000
         vertex 3.551962e+000 1.124862e+000 5.000000e-001
      endloop
   endfacet
   facet normal 9.396749e-001 -3.420688e-001 0.000000e+000
      outer loop
         vertex 3.551962e+000 1.124862e+000 5.000000e-001
         vertex 3.551962e+000 1.124862e+000 0.000000e+000
         vertex 3.646242e+000 1.407266e+000 0.000000e+000
      endloop
   endfacet
   facet normal 9.567115e-001 -2.910380e-001 0.000000e+000
      outer loop
         vertex 3.551962e+000 1.124862e+000 5.000000e-001
         vertex 3.646242e+000 1.407266e+000 0.000000e+000
         vertex 3.646242e+000 1.407266e+000 5.000000e-001
      endloop
   endfacet
   facet normal 9.823781e-001 -1.869046e-001 0.000000e+000
      outer loop
         vertex 3.646242e+000 1.407266e+000 5.000000e-001
         vertex 3.646242e+000 1.407266e+000 0.000000e+000
         vertex 3.694001e+000 1.701137e+000 0.000000e+000
      endloop
   endfacet
   facet normal 9.910081e-001 -1.338019e-001 0.000000e+000
      outer loop
         vertex 3.646242e+000 1.407266e+000 5.000000e-001
         vertex 3.694001e+000 1.701137e+000 0.000000e+000
         vertex 3.694001e+000 1.701137e+000 5.000000e-001
      endloop
   endfacet
   facet normal 9.996382e-001 -2.689971e-002 0.000000e+000
      outer loop
         vertex 3.694001e+000 1.701137e+000 5.000000e-001
         vertex 3.694001e+000 1.701137e+000 0.000000e+000
         vertex 3.694001e+000 1.998863e+000 0.000000e+000
      endloop
   endfacet
   facet normal 9.996382e-001 2.689971e-002 0.000000e+000
      outer loop
         vertex 3.694001e+000 1.701137e+000 5.000000e-001
         vertex 3.694001e+000 1.998863e+000 0.000000e+000
         vertex 3.694001e+000 1.998863e+000 5.000000e-001
      endloop
   endfacet
   facet normal 9.910081e-001 1.338019e-001 0.000000e+000
      outer loop
         vertex 3.694001e+000 1.998863e+000 5.000000e-001
         vertex 3.694001e+000 1.998863e+000 0.000000e+000
         vertex 3.646242e+000 2.292734e+000 0.000000e+000
      endloop
   endfacet
   facet normal 9.823781e-001 1.869046e-001 0.000000e+000
      outer loop
         vertex 3.694001e+000 1.998863e+000 5.000000e-001
         vertex 3.646242e+000 2.292734e+000 0.000000e+000
         vertex 3.646242e+000 2.292734e+000 5.000000e-001
      endloop
   endfacet
   facet normal 9.567115e-001 2.910380e-001 0.000000e+000
      outer loop
         vertex 3.646242e+000 2.292734e+000 5.000000e-001
         vertex 3.646242e+000 2.292734e+000 0.000000e+000
         vertex 3.551962e+000 2.575138e+000 0.000000e+000
      endloop
   endfacet
   facet normal 9.396749e-001 3.420688e-001 0.000000e+000
      outer loop
         vertex 3.646242e+000 2.292734e+000 5.000000e-001
         vertex 3.551962e+000 2.575138e+000 0.000000e+000
         vertex 3.551962e+000 2.575138e+000 5.000000e-001
      endloop
   endfacet
   facet normal 8.976365e-001 4.407365e-001 0.000000e+000
      outer loop
         vertex 3.551962e+000 2.575138e+000 5.000000e-001
         vertex 3.551962e+000 2.575138e+000 0.000000e+000
         vertex 3.413602e+000 2.838762e+000 0.000000e+000
      endloop
   endfacet
   facet normal 8.726347e-001 4.883735e-001 0.000000e+000
      outer loop
         vertex 3.551962e+000 2.575138e+000 5.000000e-001
         vertex 3.413602e+000 2.838762e+000 0.000000e+000
         vertex 3.413602e+000 2.838762e+000 5.000000e-001
      endloop
   endfacet
   facet normal 8.153133e-001 5.790201e-001 0.000000e+000
      outer loop
         vertex 3.413602e+000 2.838762e+000 5.000000e-001
         vertex 3.413602e+000 2.838762e+000 0.000000e+000
         vertex 3.234745e+000 3.076777e+000 0.000000e+000
      endloop
   endfacet
   facet normal 7.829937e-001 6.220297e-001 0.000000e+000
      outer loop
         vertex 3.413602e+000 2.838762e+000 5.000000e-001
         vertex 3.234745e+000 3.076777e+000 0.000000e+000
         vertex 3.234745e+000 3.076777e+000 5.000000e-001
      endloop
   endfacet
   facet normal 7.118738e-001 7.023074e-001 0.000000e+000
      outer loop
         vertex 3.234745e+000 3.076777e+000 5.000000e-001
         vertex 3.234745e+000 3.076777e+000 0.000000e+000
         vertex 3.020024e+000 3.283019e+000 0.000000e+000
      endloop
   endfacet
   facet normal 6.730735e-001 7.395756e-001 0.000000e+000
      outer loop
         vertex 3.234745e+000 3.076777e+000 5.000000e-001
         vertex 3.020024e+000 3.283019e+000 0.000000e+000
         vertex 3.020024e+000 3.283019e+000 5.000000e-001
      endloop
   endfacet
   facet normal 5.899972e-001 8.074052e-001 0.000000e+000
      outer loop
         vertex 3.020024e+000 3.283019e+000 5.000000e-001
         vertex 3.020024e+000 3.283019e+000 0.000000e+000
         vertex 2.775000e+000 3.452147e+000 0.000000e+000
      endloop
   endfacet
   facet normal 5.457212e-001 8.379669e-001 0.000000e+000
      outer loop
         vertex 3.020024e+000 3.283019e+000 5.000000e-001
         vertex 2.775000e+000 3.452147e+000 0.000000e+000
         vertex 2.775000e+000 3.452147e+000 5.000000e-001
      endloop
   endfacet
   facet normal 4.528400e-001 8.915918e-001 0.000000e+000
      outer loop
         vertex 2.775000e+000 3.452147e+000 5.000000e-001
         vertex 2.775000e+000 3.452147e+000 0.000000e+000
         vertex 2.506019e+000 3.579780e+000 0.000000e+000
      endloop
   endfacet
   facet normal 4.042349e-001 9.146552e-001 0.000000e+000
      outer loop
         vertex 2.775000e+000 3.452147e+000 5.000000e-001
         vertex 2.506019e+000 3.579780e+000 0.000000e+000
         vertex 2.506019e+000 3.579780e+000 5.000000e-001
      endloop
   endfacet
   facet normal 3.039545e-001 9.526865e-001 0.000000e+000
      outer loop
         vertex 2.506019e+000 3.579780e+000 5.000000e-001
         vertex 2.506019e+000 3.579780e+000 0.000000e+000
         vertex 2.220048e+000 3.662613e+000 0.000000e+000
      endloop
   endfacet
   facet normal 2.522792e-001 9.676545e-001 0.000000e+000
      outer loop
         vertex 2.506019e+000 3.579780e+000 5.000000e-001
         vertex 2.220048e+000 3.662613e+000 0.000000e+000
         vertex 2.220048e+000 3.662613e+000 5.000000e-001
      endloop
   endfacet
   facet normal 1.471967e-001 9.891073e-001 0.000000e+000
      outer loop
         vertex 2.220048e+000 3.662613e+000 5.000000e-001
         vertex 2.220048e+000 3.662613e+000 0.000000e+000
         vertex 1.924492e+000 3.698500e+000 0.000000e+000
      endloop
   endfacet
   facet normal 9.378948e-002 9.955921e-001 0.000000e+000
      outer loop
         vertex 2.220048e+000 3.662613e+000 5.000000e-001
         vertex 1.924492e+000 3.698500e+000 0.000000e+000
         vertex 1.924492e+000 3.698500e+000 5.000000e-001
      endloop
   endfacet
   facet normal -1.337347e-002 9.999106e-001 0.000000e+000
      outer loop
         vertex 1.924492e+000 3.698500e+000 5.000000e-001
         vertex 1.924492e+000 3.698500e+000 0.000000e+000
         vertex 1.627007e+000 3.686512e+000 0.000000e+000
      endloop
   endfacet
   facet normal -6.712927e-002 9.977443e-001 0.000000e+000
      outer loop
         vertex 1.924492e+000 3.698500e+000 5.000000e-001
         vertex 1.627007e+000 3.686512e+000 0.000000e+000
         vertex 1.627007e+000 3.686512e+000 5.000000e-001
      endloop
   endfacet
   facet normal -1.735972e-001 9.848167e-001 0.000000e+000
      outer loop
         vertex 1.627007e+000 3.686512e+000 5.000000e-001
         vertex 1.627007e+000 3.686512e+000 0.000000e+000
         vertex 1.335298e+000 3.626958e+000 0.000000e+000
      endloop
   endfacet
   facet normal -2.263094e-001 9.740555e-001 0.000000e+000
      outer loop
         vertex 1.627007e+000 3.686512e+000 5.000000e-001
         vertex 1.335298e+000 3.626958e+000 0.000000e+000
         vertex 1.335298e+000 3.626958e+000 5.000000e-001
      endloop
   endfacet
   facet normal -3.293249e-001 9.442167e-001 0.000000e+000
      outer loop
         vertex 1.335298e+000 3.626958e+000 5.000000e-001
         vertex 1.335298e+000 3.626958e+000 0.000000e+000
         vertex 1.056919e+000 3.521383e+000 0.000000e+000
      endloop
   endfacet
   facet normal -3.796282e-001 9.251391e-001 0.000000e+000
      outer loop
         vertex 1.335298e+000 3.626958e+000 5.000000e-001
         vertex 1.056919e+000 3.521383e+000 0.000000e+000
         vertex 1.056919e+000 3.521383e+000 5.000000e-001
      endloop
   endfacet
   facet normal -4.765233e-001 8.791618e-001 0.000000e+000
      outer loop
         vertex 1.056919e+000 3.521383e+000 5.000000e-001
         vertex 1.056919e+000 3.521383e+000 0.000000e+000
         vertex 7.990803e-001 3.372520e+000 0.000000e+000
      endloop
   endfacet
   facet normal -5.231149e-001 8.522622e-001 0.000000e+000
      outer loop
         vertex 1.056919e+000 3.521383e+000 5.000000e-001
         vertex 7.990803e-001 3.372520e+000 0.000000e+000
         vertex 7.990803e-001 3.372520e+000 5.000000e-001
      endloop
   endfacet
   facet normal -6.113799e-001 7.913373e-001 0.000000e+000
      outer loop
         vertex 7.990803e-001 3.372520e+000 5.000000e-001
         vertex 7.990803e-001 3.372520e+000 0.000000e+000
         vertex 5.684600e-001 3.184224e+000 0.000000e+000
      endloop
   endfacet
   facet normal -6.530532e-001 7.573121e-001 0.000000e+000
      outer loop
         vertex 7.990803e-001 3.372520e+000 5.000000e-001
         vertex 5.684600e-001 3.184224e+000 0.000000e+000
         vertex 5.684600e-001 3.184224e+000 5.000000e-001
      endloop
   endfacet
   facet normal -7.304021e-001 6.830174e-001 0.000000e+000
      outer loop
         vertex 5.684600e-001 3.184224e+000 5.000000e-001
         vertex 5.684600e-001 3.184224e+000 0.000000e+000
         vertex 3.710309e-001 2.961373e+000 0.000000e+000
      endloop
   endfacet
   facet normal -7.660777e-001 6.427480e-001 0.000000e+000
      outer loop
         vertex 5.684600e-001 3.184224e+000 5.000000e-001
         vertex 3.710309e-001 2.961373e+000 0.000000e+000
         vertex 3.710309e-001 2.961373e+000 5.000000e-001
      endloop
   endfacet
   facet normal -8.305073e-001 5.570078e-001 0.000000e+000
      outer loop
         vertex 3.710309e-001 2.961373e+000 5.000000e-001
         vertex 3.710309e-001 2.961373e+000 0.000000e+000
         vertex 2.119064e-001 2.709738e+000 0.000000e+000
      endloop
   endfacet
   facet normal -8.592612e-001 5.115371e-001 0.000000e+000
      outer loop
         vertex 3.710309e-001 2.961373e+000 5.000000e-001
         vertex 2.119064e-001 2.709738e+000 0.000000e+000
         vertex 2.119064e-001 2.709738e+000 5.000000e-001
      endloop
   endfacet
   facet normal -9.091027e-001 4.165720e-001 0.000000e+000
      outer loop
         vertex 2.119064e-001 2.709738e+000 5.000000e-001
         vertex 2.119064e-001 2.709738e+000 0.000000e+000
         vertex 9.520759e-002 2.435836e+000 0.000000e+000
      endloop
   endfacet
   facet normal -9.301903e-001 3.670776e-001 0.000000e+000
      outer loop
         vertex 2.119064e-001 2.709738e+000 5.000000e-001
         vertex 9.520759e-002 2.435836e+000 0.000000e+000
         vertex 9.520759e-002 2.435836e+000 5.000000e-001
      endloop
   endfacet
   facet normal -9.641530e-001 2.653471e-001 0.000000e+000
      outer loop
         vertex 9.520759e-002 2.435836e+000 5.000000e-001
         vertex 9.520759e-002 2.435836e+000 0.000000e+000
         vertex 2.395699e-002 2.146761e+000 0.000000e+000
      endloop
   endfacet
   facet normal -9.770280e-001 2.131110e-001 0.000000e+000
      outer loop
         vertex 9.520759e-002 2.435836e+000 5.000000e-001
         vertex 2.395699e-002 2.146761e+000 0.000000e+000
         vertex 2.395699e-002 2.146761e+000 5.000000e-001
      endloop
   endfacet
   facet normal -9.942321e-001 1.072499e-001 0.000000e+000
      outer loop
         vertex 2.395699e-002 2.146761e+000 5.000000e-001
         vertex 2.395699e-002 2.146761e+000 0.000000e+000
         vertex 0.000000e+000 1.850000e+000 0.000000e+000
      endloop
   endfacet
   facet normal 0.000000e+000 0.000000e+000 -1.000000e+000
      outer loop
         vertex 1.056919e+000 3.521383e+000 0.000000e+000
         vertex 1.335298e+000 3.626958e+000 0.000000e+000
         vertex 1.627007e+000 3.686512e+000 0.000000e+000
      endloop
   endfacet
   facet normal 0.000000e+000 0.000000e+000 -1.000000e+000
      outer loop
         vertex 1.056919e+000 1.786167e-001 0.000000e+000
         vertex 7.990803e-001 3.274798e-001 0.000000e+000
         vertex 5.684600e-001 5.157755e-001 0.000000e+000
      endloop
   endfacet
   facet normal 0.000000e+000 0.000000e+000 -1.000000e+000
      outer loop
         vertex 1.056919e+000 3.521383e+000 0.000000e+000
         vertex 2.775000e+000 2.478530e-001 0.000000e+000
         vertex 7.990803e-001 3.372520e+000 0.000000e+000
      endloop
   endfacet
   facet normal 0.000000e+000 0.000000e+000 -1.000000e+000
      outer loop
         vertex 7.990803e-001 3.372520e+000 0.000000e+000
         vertex 2.775000e+000 2.478530e-001 0.000000e+000
         vertex 2.506019e+000 1.202200e-001 0.000000e+000
      endloop
   endfacet
   facet normal 0.000000e+000 0.000000e+000 -1.000000e+000
      outer loop
         vertex 7.990803e-001 3.372520e+000 0.000000e+000
         vertex 2.506019e+000 1.202200e-001 0.000000e+000
         vertex 2.220048e+000 3.738724e-002 0.000000e+000
      endloop
   endfacet
   facet normal 0.000000e+000 0.000000e+000 -1.000000e+000
      outer loop
         vertex 2.220048e+000 3.738724e-002 0.000000e+000
         vertex 1.924492e+000 1.500361e-003 0.000000e+000
         vertex 1.627007e+000 1.348858e-002 0.000000e+000
      endloop
   endfacet
   facet normal 0.000000e+000 0.000000e+000 -1.000000e+000
      outer loop
         vertex 2.220048e+000 3.738724e-002 0.000000e+000
         vertex 1.627007e+000 1.348858e-002 0.000000e+000
         vertex 7.990803e-001 3.372520e+000 0.000000e+000
      endloop
   endfacet
   facet normal 0.000000e+000 0.000000e+000 -1.000000e+000
      outer loop
         vertex 7.990803e-001 3.372520e+000 0.000000e+000
         vertex 1.627007e+000 1.348858e-002 0.000000e+000
         vertex 1.335298e+000 7.304154e-002 0.000000e+000
      endloop
   endfacet
   facet normal 0.000000e+000 0.000000e+000 -1.000000e+000
      outer loop
         vertex 7.990803e-001 3.372520e+000 0.000000e+000
         vertex 1.335298e+000 7.304154e-002 0.000000e+000
         vertex 1.056919e+000 1.786167e-001 0.000000e+000
      endloop
   endfacet
   facet normal 0.000000e+000 0.000000e+000 -1.000000e+000
      outer loop
         vertex 1.056919e+000 1.786167e-001 0.000000e+000
         vertex 5.684600e-001 5.157755e-001 0.000000e+000
         vertex 7.990803e-001 3.372520e+000 0.000000e+000
      endloop
   endfacet
   facet normal 0.000000e+000 0.000000e+000 -1.000000e+000
      outer loop
         vertex 7.990803e-001 3.372520e+000 0.000000e+000
         vertex 5.684600e-001 5.157755e-001 0.000000e+000
         vertex 3.710309e-001 7.386268e-001 0.000000e+000
      endloop
   endfacet
   facet normal 0.000000e+000 0.000000e+000 -1.000000e+000
      outer loop
         vertex 7.990803e-001 3.372520e+000 0.000000e+000
         vertex 3.710309e-001 7.386268e-001 0.000000e+000
         vertex 2.119064e-001 9.902622e-001 0.000000e+000
      endloop
   endfacet
   facet normal 0.000000e+000 0.000000e+000 -1.000000e+000
      outer loop
         vertex 1.056919e+000 3.521383e+000 0.000000e+000
         vertex 1.627007e+000 3.686512e+000 0.000000e+000
         vertex 2.775000e+000 2.478530e-001 0.000000e+000
      endloop
   endfacet
   facet normal 0.000000e+000 0.000000e+000 -1.000000e+000
      outer loop
         vertex 2.775000e+000 2.478530e-001 0.000000e+000
         vertex 1.627007e+000 3.686512e+000 0.000000e+000
         vertex 1.924492e+000 3.698500e+000 0.000000e+000
      endloop
   endfacet
   facet normal 0.000000e+000 0.000000e+000 -1.000000e+000
      outer loop
         vertex 2.775000e+000 2.478530e-001 0.000000e+000
         vertex 1.924492e+000 3.698500e+000 0.000000e+000
         vertex 2.220048e+000 3.662613e+000 0.000000e+000
      endloop
   endfacet
   facet normal 0.000000e+000 0.000000e+000 -1.000000e+000
      outer loop
         vertex 3.020024e+000 3.283019e+000 0.000000e+000
         vertex 2.775000e+000 2.478530e-001 0.000000e+000
         vertex 2.775000e+000 3.452147e+000 0.000000e+000
      endloop
   endfacet
   facet normal 0.000000e+000 0.000000e+000 -1.000000e+000
      outer loop
         vertex 2.775000e+000 3.452147e+000 0.000000e+000
         vertex 2.775000e+000 2.478530e-001 0.000000e+000
         vertex 2.220048e+000 3.662613e+000 0.000000e+000
      endloop
   endfacet
   facet normal 0.000000e+000 0.000000e+000 -1.000000e+000
      outer loop
         vertex 2.775000e+000 3.452147e+000 0.000000e+000
         vertex 2.220048e+000 3.662613e+000 0.000000e+000
         vertex 2.506019e+000 3.579780e+000 0.000000e+000
      endloop
   endfacet
   facet normal 0.000000e+000 0.000000e+000 -1.000000e+000
      outer loop
         vertex 3.551962e+000 1.124862e+000 0.000000e+000
         vertex 3.413602e+000 8.612382e-001 0.000000e+000
         vertex 3.234745e+000 6.232231e-001 0.000000e+000
      endloop
   endfacet
   facet normal 0.000000e+000 0.000000e+000 -1.000000e+000
      outer loop
         vertex 3.020024e+000 4.169808e-001 0.000000e+000
         vertex 2.775000e+000 2.478530e-001 0.000000e+000
         vertex 3.234745e+000 6.232231e-001 0.000000e+000
      endloop
   endfacet
   facet normal 0.000000e+000 0.000000e+000 -1.000000e+000
      outer loop
         vertex 3.234745e+000 6.232231e-001 0.000000e+000
         vertex 2.775000e+000 2.478530e-001 0.000000e+000
         vertex 3.646242e+000 2.292734e+000 0.000000e+000
      endloop
   endfacet
   facet normal 0.000000e+000 0.000000e+000 -1.000000e+000
      outer loop
         vertex 5.684600e-001 3.184224e+000 0.000000e+000
         vertex 7.990803e-001 3.372520e+000 0.000000e+000
         vertex 3.710309e-001 2.961373e+000 0.000000e+000
      endloop
   endfacet
   facet normal 0.000000e+000 0.000000e+000 -1.000000e+000
      outer loop
         vertex 3.710309e-001 2.961373e+000 0.000000e+000
         vertex 7.990803e-001 3.372520e+000 0.000000e+000
         vertex 2.395699e-002 2.146761e+000 0.000000e+000
      endloop
   endfacet
   facet normal 0.000000e+000 0.000000e+000 -1.000000e+000
      outer loop
         vertex 3.710309e-001 2.961373e+000 0.000000e+000
         vertex 2.395699e-002 2.146761e+000 0.000000e+000
         vertex 2.119064e-001 2.709738e+000 0.000000e+000
      endloop
   endfacet
   facet normal 0.000000e+000 0.000000e+000 -1.000000e+000
      outer loop
         vertex 2.119064e-001 2.709738e+000 0.000000e+000
         vertex 2.395699e-002 2.146761e+000 0.000000e+000
         vertex 9.520759e-002 2.435836e+000 0.000000e+000
      endloop
   endfacet
   facet normal 0.000000e+000 0.000000e+000 -1.000000e+000
      outer loop
         vertex 3.551962e+000 2.575138e+000 0.000000e+000
         vertex 3.646242e+000 2.292734e+000 0.000000e+000
         vertex 3.413602e+000 2.838762e+000 0.000000e+000
      endloop
   endfacet
   facet normal 0.000000e+000 0.000000e+000 -1.000000e+000
      outer loop
         vertex 3.413602e+000 2.838762e+000 0.000000e+000
         vertex 3.646242e+000 2.292734e+000 0.000000e+000
         vertex 2.775000e+000 2.478530e-001 0.000000e+000
      endloop
   endfacet
   facet normal 0.000000e+000 0.000000e+000 -1.000000e+000
      outer loop
         vertex 3.413602e+000 2.838762e+000 0.000000e+000
         vertex 2.775000e+000 2.478530e-001 0.000000e+000
         vertex 3.234745e+000 3.076777e+000 0.000000e+000
      endloop
   endfacet
   facet normal 0.000000e+000 0.000000e+000 -1.000000e+000
      outer loop
         vertex 3.234745e+000 3.076777e+000 0.000000e+000
         vertex 2.775000e+000 2.478530e-001 0.000000e+000
         vertex 3.020024e+000 3.283019e+000 0.000000e+000
      endloop
   endfacet
   facet normal 0.000000e+000 0.000000e+000 -1.000000e+000
      outer loop
         vertex 0.000000e+000 1.850000e+000 0.000000e+000
         vertex 2.395699e-002 2.146761e+000 0.000000e+000
         vertex 2.395699e-002 1.553239e+000 0.000000e+000
      endloop
   endfacet
   facet normal 0.000000e+000 0.000000e+000 -1.000000e+000
      outer loop
         vertex 2.395699e-002 1.553239e+000 0.000000e+000
         vertex 2.395699e-002 2.146761e+000 0.000000e+000
         vertex 7.990803e-001 3.372520e+000 0.000000e+000
      endloop
   endfacet
   facet normal 0.000000e+000 0.000000e+000 -1.000000e+000
      outer loop
         vertex 2.395699e-002 1.553239e+000 0.000000e+000
         vertex 7.990803e-001 3.372520e+000 0.000000e+000
         vertex 9.520759e-002 1.264164e+000 0.000000e+000
      endloop
   endfacet
   facet normal 0.000000e+000 0.000000e+000 -1.000000e+000
      outer loop
         vertex 9.520759e-002 1.264164e+000 0.000000e+000
         vertex 7.990803e-001 3.372520e+000 0.000000e+000
         vertex 2.119064e-001 9.902622e-001 0.000000e+000
      endloop
   endfacet
   facet normal 0.000000e+000 0.000000e+000 -1.000000e+000
      outer loop
         vertex 3.646242e+000 1.407266e+000 0.000000e+000
         vertex 3.551962e+000 1.124862e+000 0.000000e+000
         vertex 3.694001e+000 1.701137e+000 0.000000e+000
      endloop
   endfacet
   facet normal 0.000000e+000 0.000000e+000 -1.000000e+000
      outer loop
         vertex 3.694001e+000 1.701137e+000 0.000000e+000
         vertex 3.551962e+000 1.124862e+000 0.000000e+000
         vertex 3.234745e+000 6.232231e-001 0.000000e+000
      endloop
   endfacet
   facet normal 0.000000e+000 0.000000e+000 -1.000000e+000
      outer loop
         vertex 3.694001e+000 1.701137e+000 0.000000e+000
         vertex 3.234745e+000 6.232231e-001 0.000000e+000
         vertex 3.694001e+000 1.998863e+000 0.000000e+000
      endloop
   endfacet
   facet normal 0.000000e+000 0.000000e+000 -1.000000e+000
      outer loop
         vertex 3.694001e+000 1.998863e+000 0.000000e+000
         vertex 3.234745e+000 6.232231e-001 0.000000e+000
         vertex 3.646242e+000 2.292734e+000 0.000000e+000
      endloop
   endfacet
endsolid